<svg xmlns="http://www.w3.org/2000/svg" xmlns:xlink="http://www.w3.org/1999/xlink" contentStyleType="text/css" data-diagram-type="CLASS" height="955px" preserveAspectRatio="none" style="width:2064px;height:955px;background:#FAFAFA;" version="1.1" viewBox="0 0 2064 955" width="2064px" zoomAndPan="magnify"><title>Cache strategies &lt;-&gt; algorithms</title><defs/><g><rect fill="#FAFAFA" height="955" style="stroke:none;stroke-width:1;" width="2064" x="0" y="0"/><g class="title" data-source-line="4"><text fill="#000000" font-family="Padauk" font-size="14" font-weight="bold" lengthAdjust="spacing" textLength="256.7578" x="896.8761" y="22.9951">Cache strategies &lt;-&gt; algorithms</text></g><!--cluster CLASSIC--><g class="cluster" data-entity="CLASSIC" data-source-line="18" data-uid="ent0018" id="cluster_CLASSIC"><rect fill="#FAFAFA" height="131.3" rx="2.5" ry="2.5" style="stroke:#005F7F;stroke-width:1;" width="1392" x="403" y="242.4269"/><path d="M606.4775,242.4269 L606.4775,251.7238 L596.4775,261.7238 L403,261.7238" fill="none" style="stroke:#005F7F;stroke-width:1;"/><text fill="#000000" font-family="Padauk" font-size="14" font-weight="bold" lengthAdjust="spacing" textLength="193.4775" x="406" y="256.422">Classic Cache Strategies</text></g><!--cluster MODERN--><g class="cluster" data-entity="MODERN" data-source-line="26" data-uid="ent0025" id="cluster_MODERN"><rect fill="#FAFAFA" height="131.3" rx="2.5" ry="2.5" style="stroke:#005F7F;stroke-width:1;" width="1226" x="400" y="767.8569"/><path d="M609.1309,767.8569 L609.1309,777.1538 L599.1309,787.1538 L400,787.1538" fill="none" style="stroke:#005F7F;stroke-width:1;"/><text fill="#000000" font-family="Padauk" font-size="14" font-weight="bold" lengthAdjust="spacing" textLength="199.1309" x="403" y="781.852">Modern Cache Strategies</text></g><!--class FIFO--><g class="entity" data-entity="FIFO" data-source-line="19" data-uid="ent0019" id="entity_FIFO"><rect fill="#FAFAFA" height="64.2969" rx="2.5" ry="2.5" style="stroke:#181818;stroke-width:0.5;" width="147.6318" x="427.18" y="285.4269"/><ellipse cx="481.119" cy="301.4269" fill="#FAFAFA" rx="11" ry="11" style="stroke:#181818;stroke-width:1;"/><path d="M484.0877,307.0675 Q483.5096,307.3644 482.869,307.505 Q482.2283,307.6613 481.5252,307.6613 Q479.0252,307.6613 477.6971,306.0206 Q476.3846,304.3644 476.3846,301.2394 Q476.3846,298.1144 477.6971,296.4581 Q479.0252,294.8019 481.5252,294.8019 Q482.2283,294.8019 482.869,294.9581 Q483.5252,295.1144 484.0877,295.4113 L484.0877,298.13 Q483.4627,297.5519 482.869,297.2863 Q482.2752,297.005 481.6502,297.005 Q480.3065,297.005 479.619,298.0831 Q478.9315,299.1456 478.9315,301.2394 Q478.9315,303.3331 479.619,304.4113 Q480.3065,305.4738 481.6502,305.4738 Q482.2752,305.4738 482.869,305.2081 Q483.4627,304.9269 484.0877,304.3488 L484.0877,307.0675 Z " fill="#000000"/><text fill="#000000" font-family="Padauk" font-size="14" lengthAdjust="spacing" textLength="31.2539" x="501.619" y="306.2736">FIFO</text><line style="stroke:#181818;stroke-width:0.5;" x1="428.18" x2="573.8118" y1="317.4269" y2="317.4269"/><text fill="#000000" font-family="Padauk" font-size="14" lengthAdjust="spacing" textLength="135.6318" x="433.18" y="334.422">"ring-buffer queue"</text><line style="stroke:#181818;stroke-width:0.5;" x1="428.18" x2="573.8118" y1="341.7238" y2="341.7238"/></g><!--class LRU--><g class="entity" data-entity="LRU" data-source-line="20" data-uid="ent0020" id="entity_LRU"><rect fill="#FAFAFA" height="64.2969" rx="2.5" ry="2.5" style="stroke:#181818;stroke-width:0.5;" width="207.6172" x="881.19" y="285.4269"/><ellipse cx="966.8614" cy="301.4269" fill="#FAFAFA" rx="11" ry="11" style="stroke:#181818;stroke-width:1;"/><path d="M969.8301,307.0675 Q969.252,307.3644 968.6114,307.505 Q967.9708,307.6613 967.2676,307.6613 Q964.7676,307.6613 963.4395,306.0206 Q962.127,304.3644 962.127,301.2394 Q962.127,298.1144 963.4395,296.4581 Q964.7676,294.8019 967.2676,294.8019 Q967.9708,294.8019 968.6114,294.9581 Q969.2676,295.1144 969.8301,295.4113 L969.8301,298.13 Q969.2051,297.5519 968.6114,297.2863 Q968.0176,297.005 967.3926,297.005 Q966.0489,297.005 965.3614,298.0831 Q964.6739,299.1456 964.6739,301.2394 Q964.6739,303.3331 965.3614,304.4113 Q966.0489,305.4738 967.3926,305.4738 Q968.0176,305.4738 968.6114,305.2081 Q969.2051,304.9269 969.8301,304.3488 L969.8301,307.0675 Z " fill="#000000"/><text fill="#000000" font-family="Padauk" font-size="14" lengthAdjust="spacing" textLength="27.7744" x="987.3614" y="306.2736">LRU</text><line style="stroke:#181818;stroke-width:0.5;" x1="882.19" x2="1087.8072" y1="317.4269" y2="317.4269"/><line style="stroke:#181818;stroke-width:0.5;" x1="882.19" x2="1087.8072" y1="325.4269" y2="325.4269"/><text fill="#000000" font-family="Padauk" font-size="14" lengthAdjust="spacing" textLength="195.6172" x="887.19" y="342.422">"DLL + HashMap (recency)"</text></g><!--class MRU--><g class="entity" data-entity="MRU" data-source-line="21" data-uid="ent0021" id="entity_MRU"><rect fill="#FAFAFA" height="64.2969" rx="2.5" ry="2.5" style="stroke:#181818;stroke-width:0.5;" width="237.1621" x="609.42" y="285.4269"/><ellipse cx="707.7242" cy="301.4269" fill="#FAFAFA" rx="11" ry="11" style="stroke:#181818;stroke-width:1;"/><path d="M710.6929,307.0675 Q710.1148,307.3644 709.4742,307.505 Q708.8336,307.6613 708.1304,307.6613 Q705.6304,307.6613 704.3023,306.0206 Q702.9898,304.3644 702.9898,301.2394 Q702.9898,298.1144 704.3023,296.4581 Q705.6304,294.8019 708.1304,294.8019 Q708.8336,294.8019 709.4742,294.9581 Q710.1304,295.1144 710.6929,295.4113 L710.6929,298.13 Q710.0679,297.5519 709.4742,297.2863 Q708.8804,297.005 708.2554,297.005 Q706.9117,297.005 706.2242,298.0831 Q705.5367,299.1456 705.5367,301.2394 Q705.5367,303.3331 706.2242,304.4113 Q706.9117,305.4738 708.2554,305.4738 Q708.8804,305.4738 709.4742,305.2081 Q710.0679,304.9269 710.6929,304.3488 L710.6929,307.0675 Z " fill="#000000"/><text fill="#000000" font-family="Padauk" font-size="14" lengthAdjust="spacing" textLength="32.0537" x="728.2242" y="306.2736">MRU</text><line style="stroke:#181818;stroke-width:0.5;" x1="610.42" x2="845.5821" y1="317.4269" y2="317.4269"/><line style="stroke:#181818;stroke-width:0.5;" x1="610.42" x2="845.5821" y1="325.4269" y2="325.4269"/><text fill="#000000" font-family="Padauk" font-size="14" lengthAdjust="spacing" textLength="225.1621" x="615.42" y="342.422">"DLL + HashMap (most&#8209;recent)"</text></g><!--class ARC--><g class="entity" data-entity="ARC" data-source-line="22" data-uid="ent0022" id="entity_ARC"><rect fill="#FAFAFA" height="64.2969" rx="2.5" ry="2.5" style="stroke:#181818;stroke-width:0.5;" width="166.1846" x="1123.91" y="285.4269"/><ellipse cx="1188.2122" cy="301.4269" fill="#FAFAFA" rx="11" ry="11" style="stroke:#181818;stroke-width:1;"/><path d="M1191.181,307.0675 Q1190.6029,307.3644 1189.9622,307.505 Q1189.3216,307.6613 1188.6185,307.6613 Q1186.1185,307.6613 1184.7904,306.0206 Q1183.4779,304.3644 1183.4779,301.2394 Q1183.4779,298.1144 1184.7904,296.4581 Q1186.1185,294.8019 1188.6185,294.8019 Q1189.3216,294.8019 1189.9622,294.9581 Q1190.6185,295.1144 1191.181,295.4113 L1191.181,298.13 Q1190.556,297.5519 1189.9622,297.2863 Q1189.3685,297.005 1188.7435,297.005 Q1187.3997,297.005 1186.7122,298.0831 Q1186.0247,299.1456 1186.0247,301.2394 Q1186.0247,303.3331 1186.7122,304.4113 Q1187.3997,305.4738 1188.7435,305.4738 Q1189.3685,305.4738 1189.9622,305.2081 Q1190.556,304.9269 1191.181,304.3488 L1191.181,307.0675 Z " fill="#000000"/><text fill="#000000" font-family="Padauk" font-size="14" lengthAdjust="spacing" textLength="29.0801" x="1208.7122" y="306.2736">ARC</text><line style="stroke:#181818;stroke-width:0.5;" x1="1124.91" x2="1289.0946" y1="317.4269" y2="317.4269"/><text fill="#000000" font-family="Padauk" font-size="14" lengthAdjust="spacing" textLength="154.1846" x="1129.91" y="334.422">"2 LRUs + ghost sets"</text><line style="stroke:#181818;stroke-width:0.5;" x1="1124.91" x2="1289.0946" y1="341.7238" y2="341.7238"/></g><!--class LFU--><g class="entity" data-entity="LFU" data-source-line="23" data-uid="ent0023" id="entity_LFU"><rect fill="#FAFAFA" height="64.2969" rx="2.5" ry="2.5" style="stroke:#181818;stroke-width:0.5;" width="206.5986" x="1324.7" y="285.4269"/><ellipse cx="1410.6995" cy="301.4269" fill="#FAFAFA" rx="11" ry="11" style="stroke:#181818;stroke-width:1;"/><path d="M1413.6683,307.0675 Q1413.0901,307.3644 1412.4495,307.505 Q1411.8089,307.6613 1411.1058,307.6613 Q1408.6058,307.6613 1407.2776,306.0206 Q1405.9651,304.3644 1405.9651,301.2394 Q1405.9651,298.1144 1407.2776,296.4581 Q1408.6058,294.8019 1411.1058,294.8019 Q1411.8089,294.8019 1412.4495,294.9581 Q1413.1058,295.1144 1413.6683,295.4113 L1413.6683,298.13 Q1413.0433,297.5519 1412.4495,297.2863 Q1411.8558,297.005 1411.2308,297.005 Q1409.887,297.005 1409.1995,298.0831 Q1408.512,299.1456 1408.512,301.2394 Q1408.512,303.3331 1409.1995,304.4113 Q1409.887,305.4738 1411.2308,305.4738 Q1411.8558,305.4738 1412.4495,305.2081 Q1413.0433,304.9269 1413.6683,304.3488 L1413.6683,307.0675 Z " fill="#000000"/><text fill="#000000" font-family="Padauk" font-size="14" lengthAdjust="spacing" textLength="26.0996" x="1431.1995" y="306.2736">LFU</text><line style="stroke:#181818;stroke-width:0.5;" x1="1325.7" x2="1530.2986" y1="317.4269" y2="317.4269"/><text fill="#000000" font-family="Padauk" font-size="14" lengthAdjust="spacing" textLength="194.5986" x="1330.7" y="334.422">"Hash buckets + min&#8209;heap"</text><line style="stroke:#181818;stroke-width:0.5;" x1="1325.7" x2="1530.2986" y1="341.7238" y2="341.7238"/></g><!--class RandomReplace--><g class="entity" data-entity="RandomReplace" data-source-line="24" data-uid="ent0024" id="entity_RandomReplace"><rect fill="#FAFAFA" height="64.2969" rx="2.5" ry="2.5" style="stroke:#181818;stroke-width:0.5;" width="185.4893" x="1566.26" y="285.4269"/><ellipse cx="1598.9058" cy="301.4269" fill="#FAFAFA" rx="11" ry="11" style="stroke:#181818;stroke-width:1;"/><path d="M1601.8746,307.0675 Q1601.2964,307.3644 1600.6558,307.505 Q1600.0152,307.6613 1599.3121,307.6613 Q1596.8121,307.6613 1595.4839,306.0206 Q1594.1714,304.3644 1594.1714,301.2394 Q1594.1714,298.1144 1595.4839,296.4581 Q1596.8121,294.8019 1599.3121,294.8019 Q1600.0152,294.8019 1600.6558,294.9581 Q1601.3121,295.1144 1601.8746,295.4113 L1601.8746,298.13 Q1601.2496,297.5519 1600.6558,297.2863 Q1600.0621,297.005 1599.4371,297.005 Q1598.0933,297.005 1597.4058,298.0831 Q1596.7183,299.1456 1596.7183,301.2394 Q1596.7183,303.3331 1597.4058,304.4113 Q1598.0933,305.4738 1599.4371,305.4738 Q1600.0621,305.4738 1600.6558,305.2081 Q1601.2496,304.9269 1601.8746,304.3488 L1601.8746,307.0675 Z " fill="#000000"/><text fill="#000000" font-family="Padauk" font-size="14" lengthAdjust="spacing" textLength="114.2764" x="1616.8271" y="306.2736">RandomReplace</text><line style="stroke:#181818;stroke-width:0.5;" x1="1567.26" x2="1750.7493" y1="317.4269" y2="317.4269"/><text fill="#000000" font-family="Padauk" font-size="14" lengthAdjust="spacing" textLength="173.4893" x="1572.26" y="334.422">"uniform random victim"</text><line style="stroke:#181818;stroke-width:0.5;" x1="1567.26" x2="1750.7493" y1="341.7238" y2="341.7238"/></g><!--class CLOCK--><g class="entity" data-entity="CLOCK" data-source-line="27" data-uid="ent0026" id="entity_CLOCK"><rect fill="#FAFAFA" height="64.2969" rx="2.5" ry="2.5" style="stroke:#181818;stroke-width:0.5;" width="162.0488" x="423.98" y="810.8569"/><ellipse cx="476.979" cy="826.8569" fill="#FAFAFA" rx="11" ry="11" style="stroke:#181818;stroke-width:1;"/><path d="M479.9478,832.4975 Q479.3696,832.7944 478.729,832.935 Q478.0884,833.0913 477.3853,833.0913 Q474.8853,833.0913 473.5571,831.4506 Q472.2446,829.7944 472.2446,826.6694 Q472.2446,823.5444 473.5571,821.8881 Q474.8853,820.2319 477.3853,820.2319 Q478.0884,820.2319 478.729,820.3881 Q479.3853,820.5444 479.9478,820.8413 L479.9478,823.56 Q479.3228,822.9819 478.729,822.7163 Q478.1353,822.435 477.5103,822.435 Q476.1665,822.435 475.479,823.5131 Q474.7915,824.5756 474.7915,826.6694 Q474.7915,828.7631 475.479,829.8413 Q476.1665,830.9038 477.5103,830.9038 Q478.1353,830.9038 478.729,830.6381 Q479.3228,830.3569 479.9478,829.7788 L479.9478,832.4975 Z " fill="#000000"/><text fill="#000000" font-family="Padauk" font-size="14" lengthAdjust="spacing" textLength="47.5508" x="497.479" y="831.7036">CLOCK</text><line style="stroke:#181818;stroke-width:0.5;" x1="424.98" x2="585.0288" y1="842.8569" y2="842.8569"/><text fill="#000000" font-family="Padauk" font-size="14" lengthAdjust="spacing" textLength="150.0488" x="429.98" y="859.852">"second-chance ring"</text><line style="stroke:#181818;stroke-width:0.5;" x1="424.98" x2="585.0288" y1="867.1538" y2="867.1538"/></g><!--class CLOCK_Pro--><g class="entity" data-entity="CLOCK_Pro" data-source-line="28" data-uid="ent0027" id="entity_CLOCK_Pro"><rect fill="#FAFAFA" height="64.2969" rx="2.5" ry="2.5" style="stroke:#181818;stroke-width:0.5;" width="162.8008" x="620.6" y="810.8569"/><ellipse cx="659.6688" cy="826.8569" fill="#FAFAFA" rx="11" ry="11" style="stroke:#181818;stroke-width:1;"/><path d="M662.6376,832.4975 Q662.0595,832.7944 661.4188,832.935 Q660.7782,833.0913 660.0751,833.0913 Q657.5751,833.0913 656.247,831.4506 Q654.9345,829.7944 654.9345,826.6694 Q654.9345,823.5444 656.247,821.8881 Q657.5751,820.2319 660.0751,820.2319 Q660.7782,820.2319 661.4188,820.3881 Q662.0751,820.5444 662.6376,820.8413 L662.6376,823.56 Q662.0126,822.9819 661.4188,822.7163 Q660.8251,822.435 660.2001,822.435 Q658.8563,822.435 658.1688,823.5131 Q657.4813,824.5756 657.4813,826.6694 Q657.4813,828.7631 658.1688,829.8413 Q658.8563,830.9038 660.2001,830.9038 Q660.8251,830.9038 661.4188,830.6381 Q662.0126,830.3569 662.6376,829.7788 L662.6376,832.4975 Z " fill="#000000"/><text fill="#000000" font-family="Padauk" font-size="14" lengthAdjust="spacing" textLength="77.3145" x="679.0175" y="831.7036">CLOCK_Pro</text><line style="stroke:#181818;stroke-width:0.5;" x1="621.6" x2="782.4008" y1="842.8569" y2="842.8569"/><text fill="#000000" font-family="Padauk" font-size="14" lengthAdjust="spacing" textLength="150.8008" x="626.6" y="859.852">"multi-clock hot/cold"</text><line style="stroke:#181818;stroke-width:0.5;" x1="621.6" x2="782.4008" y1="867.1538" y2="867.1538"/></g><!--class TwoQ--><g class="entity" data-entity="TwoQ" data-source-line="29" data-uid="ent0028" id="entity_TwoQ"><rect fill="#FAFAFA" height="64.2969" rx="2.5" ry="2.5" style="stroke:#181818;stroke-width:0.5;" width="143.7285" x="818.14" y="810.8569"/><ellipse cx="865.9608" cy="826.8569" fill="#FAFAFA" rx="11" ry="11" style="stroke:#181818;stroke-width:1;"/><path d="M868.9296,832.4975 Q868.3514,832.7944 867.7108,832.935 Q867.0702,833.0913 866.3671,833.0913 Q863.8671,833.0913 862.5389,831.4506 Q861.2264,829.7944 861.2264,826.6694 Q861.2264,823.5444 862.5389,821.8881 Q863.8671,820.2319 866.3671,820.2319 Q867.0702,820.2319 867.7108,820.3881 Q868.3671,820.5444 868.9296,820.8413 L868.9296,823.56 Q868.3046,822.9819 867.7108,822.7163 Q867.1171,822.435 866.4921,822.435 Q865.1483,822.435 864.4608,823.5131 Q863.7733,824.5756 863.7733,826.6694 Q863.7733,828.7631 864.4608,829.8413 Q865.1483,830.9038 866.4921,830.9038 Q867.1171,830.9038 867.7108,830.6381 Q868.3046,830.3569 868.9296,829.7788 L868.9296,832.4975 Z " fill="#000000"/><text fill="#000000" font-family="Padauk" font-size="14" lengthAdjust="spacing" textLength="39.5869" x="886.4608" y="831.7036">TwoQ</text><line style="stroke:#181818;stroke-width:0.5;" x1="819.14" x2="960.8685" y1="842.8569" y2="842.8569"/><text fill="#000000" font-family="Padauk" font-size="14" lengthAdjust="spacing" textLength="131.7285" x="824.14" y="859.852">"A1-in &amp; Am LRUs"</text><line style="stroke:#181818;stroke-width:0.5;" x1="819.14" x2="960.8685" y1="867.1538" y2="867.1538"/></g><!--class LIRS--><g class="entity" data-entity="LIRS" data-source-line="30" data-uid="ent0029" id="entity_LIRS"><rect fill="#FAFAFA" height="64.2969" rx="2.5" ry="2.5" style="stroke:#181818;stroke-width:0.5;" width="155.3428" x="997.33" y="810.8569"/><ellipse cx="1055.4799" cy="826.8569" fill="#FAFAFA" rx="11" ry="11" style="stroke:#181818;stroke-width:1;"/><path d="M1058.4487,832.4975 Q1057.8705,832.7944 1057.2299,832.935 Q1056.5893,833.0913 1055.8862,833.0913 Q1053.3862,833.0913 1052.058,831.4506 Q1050.7455,829.7944 1050.7455,826.6694 Q1050.7455,823.5444 1052.058,821.8881 Q1053.3862,820.2319 1055.8862,820.2319 Q1056.5893,820.2319 1057.2299,820.3881 Q1057.8862,820.5444 1058.4487,820.8413 L1058.4487,823.56 Q1057.8237,822.9819 1057.2299,822.7163 Q1056.6362,822.435 1056.0112,822.435 Q1054.6674,822.435 1053.9799,823.5131 Q1053.2924,824.5756 1053.2924,826.6694 Q1053.2924,828.7631 1053.9799,829.8413 Q1054.6674,830.9038 1056.0112,830.9038 Q1056.6362,830.9038 1057.2299,830.6381 Q1057.8237,830.3569 1058.4487,829.7788 L1058.4487,832.4975 Z " fill="#000000"/><text fill="#000000" font-family="Padauk" font-size="14" lengthAdjust="spacing" textLength="30.543" x="1075.9799" y="831.7036">LIRS</text><line style="stroke:#181818;stroke-width:0.5;" x1="998.33" x2="1151.6728" y1="842.8569" y2="842.8569"/><text fill="#000000" font-family="Padauk" font-size="14" lengthAdjust="spacing" textLength="143.3428" x="1003.33" y="859.852">"stack S + queue Q"</text><line style="stroke:#181818;stroke-width:0.5;" x1="998.33" x2="1151.6728" y1="867.1538" y2="867.1538"/></g><!--class TinyLFU--><g class="entity" data-entity="TinyLFU" data-source-line="31" data-uid="ent0030" id="entity_TinyLFU"><rect fill="#FAFAFA" height="64.2969" rx="2.5" ry="2.5" style="stroke:#181818;stroke-width:0.5;" width="203.8301" x="1379.08" y="810.8569"/><ellipse cx="1448.8954" cy="826.8569" fill="#FAFAFA" rx="11" ry="11" style="stroke:#181818;stroke-width:1;"/><path d="M1451.8642,832.4975 Q1451.2861,832.7944 1450.6454,832.935 Q1450.0048,833.0913 1449.3017,833.0913 Q1446.8017,833.0913 1445.4736,831.4506 Q1444.1611,829.7944 1444.1611,826.6694 Q1444.1611,823.5444 1445.4736,821.8881 Q1446.8017,820.2319 1449.3017,820.2319 Q1450.0048,820.2319 1450.6454,820.3881 Q1451.3017,820.5444 1451.8642,820.8413 L1451.8642,823.56 Q1451.2392,822.9819 1450.6454,822.7163 Q1450.0517,822.435 1449.4267,822.435 Q1448.0829,822.435 1447.3954,823.5131 Q1446.7079,824.5756 1446.7079,826.6694 Q1446.7079,828.7631 1447.3954,829.8413 Q1448.0829,830.9038 1449.4267,830.9038 Q1450.0517,830.9038 1450.6454,830.6381 Q1451.2392,830.3569 1451.8642,829.7788 L1451.8642,832.4975 Z " fill="#000000"/><text fill="#000000" font-family="Padauk" font-size="14" lengthAdjust="spacing" textLength="55.6992" x="1469.3954" y="831.7036">TinyLFU</text><line style="stroke:#181818;stroke-width:0.5;" x1="1380.08" x2="1581.9101" y1="842.8569" y2="842.8569"/><text fill="#000000" font-family="Padauk" font-size="14" lengthAdjust="spacing" textLength="191.8301" x="1385.08" y="859.852">"CM-sketch + window LRU"</text><line style="stroke:#181818;stroke-width:0.5;" x1="1380.08" x2="1581.9101" y1="867.1538" y2="867.1538"/></g><!--class GDSF--><g class="entity" data-entity="GDSF" data-source-line="32" data-uid="ent0031" id="entity_GDSF"><rect fill="#FAFAFA" height="64.2969" rx="2.5" ry="2.5" style="stroke:#181818;stroke-width:0.5;" width="156.6416" x="1187.68" y="810.8569"/><ellipse cx="1242.4666" cy="826.8569" fill="#FAFAFA" rx="11" ry="11" style="stroke:#181818;stroke-width:1;"/><path d="M1245.4354,832.4975 Q1244.8572,832.7944 1244.2166,832.935 Q1243.576,833.0913 1242.8729,833.0913 Q1240.3729,833.0913 1239.0447,831.4506 Q1237.7322,829.7944 1237.7322,826.6694 Q1237.7322,823.5444 1239.0447,821.8881 Q1240.3729,820.2319 1242.8729,820.2319 Q1243.576,820.2319 1244.2166,820.3881 Q1244.8729,820.5444 1245.4354,820.8413 L1245.4354,823.56 Q1244.8104,822.9819 1244.2166,822.7163 Q1243.6229,822.435 1242.9979,822.435 Q1241.6541,822.435 1240.9666,823.5131 Q1240.2791,824.5756 1240.2791,826.6694 Q1240.2791,828.7631 1240.9666,829.8413 Q1241.6541,830.9038 1242.9979,830.9038 Q1243.6229,830.9038 1244.2166,830.6381 Q1244.8104,830.3569 1245.4354,829.7788 L1245.4354,832.4975 Z " fill="#000000"/><text fill="#000000" font-family="Padauk" font-size="14" lengthAdjust="spacing" textLength="38.5684" x="1262.9666" y="831.7036">GDSF</text><line style="stroke:#181818;stroke-width:0.5;" x1="1188.68" x2="1343.3216" y1="842.8569" y2="842.8569"/><text fill="#000000" font-family="Padauk" font-size="14" lengthAdjust="spacing" textLength="144.6416" x="1193.68" y="859.852">"cost/size min&#8209;heap"</text><line style="stroke:#181818;stroke-width:0.5;" x1="1188.68" x2="1343.3216" y1="867.1538" y2="867.1538"/></g><!--entity array_processing--><g class="entity" data-entity="array_processing" data-source-line="6" data-uid="ent0002" id="entity_array_processing"><ellipse cx="197" cy="158.4269" fill="#FAFAFA" rx="8" ry="8" style="stroke:#181818;stroke-width:0.5;"/><text fill="#000000" font-family="Padauk" font-size="14" lengthAdjust="spacing" textLength="119.7109" x="137.1445" y="188.422">array_processing</text></g><!--entity hashing--><g class="entity" data-entity="hashing" data-source-line="7" data-uid="ent0003" id="entity_hashing"><ellipse cx="1659" cy="158.4269" fill="#FAFAFA" rx="8" ry="8" style="stroke:#181818;stroke-width:0.5;"/><text fill="#000000" font-family="Padauk" font-size="14" lengthAdjust="spacing" textLength="55.2686" x="1631.3657" y="188.422">hashing</text></g><!--entity priority--><g class="entity" data-entity="priority" data-source-line="8" data-uid="ent0004" id="entity_priority"><ellipse cx="372" cy="158.4269" fill="#FAFAFA" rx="8" ry="8" style="stroke:#181818;stroke-width:0.5;"/><text fill="#000000" font-family="Padauk" font-size="14" lengthAdjust="spacing" textLength="50.5176" x="346.7412" y="188.422">priority</text></g><!--entity sliding_window--><g class="entity" data-entity="sliding_window" data-source-line="9" data-uid="ent0005" id="entity_sliding_window"><ellipse cx="1647" cy="605.8569" fill="#FAFAFA" rx="8" ry="8" style="stroke:#181818;stroke-width:0.5;"/><text fill="#000000" font-family="Padauk" font-size="14" lengthAdjust="spacing" textLength="105.7246" x="1594.1377" y="635.852">sliding_window</text></g><g class="entity" data-entity="GMN6" data-source-line="11" data-uid="ent0007" id="entity_GMN6"><path d="M78.01,43.2969 L78.01,68.4297 A0,0 0 0 0 78.01,68.4297 L173.61,68.4297 L195.28,149.5469 L181.61,68.4297 L271.99,68.4297 A0,0 0 0 0 271.99,68.4297 L271.99,53.2969 L261.99,43.2969 L78.01,43.2969 A0,0 0 0 0 78.01,43.2969" fill="#585858" style="stroke:#181818;stroke-width:0.5;"/><path d="M261.99,43.2969 L261.99,53.2969 L271.99,53.2969 L261.99,43.2969" fill="#585858" style="stroke:#181818;stroke-width:0.5;"/><text fill="#FAFAFA" font-family="Padauk" font-size="13" lengthAdjust="spacing" textLength="172.98" x="84.01" y="60.3638">"linked-list, queue, deque"</text></g><g class="entity" data-entity="GMN9" data-source-line="12" data-uid="ent0010" id="entity_GMN9"><path d="M1593.32,43.2969 L1593.32,68.4297 A0,0 0 0 0 1593.32,68.4297 L1655,68.4297 L1659,149.5469 L1663,68.4297 L1724.6804,68.4297 A0,0 0 0 0 1724.6804,68.4297 L1724.6804,53.2969 L1714.6804,43.2969 L1593.32,43.2969 A0,0 0 0 0 1593.32,43.2969" fill="#585858" style="stroke:#181818;stroke-width:0.5;"/><path d="M1714.6804,43.2969 L1714.6804,53.2969 L1724.6804,53.2969 L1714.6804,43.2969" fill="#585858" style="stroke:#181818;stroke-width:0.5;"/><text fill="#FAFAFA" font-family="Padauk" font-size="13" lengthAdjust="spacing" textLength="110.3604" x="1599.32" y="60.3638">hash-table / map</text></g><g class="entity" data-entity="GMN12" data-source-line="13" data-uid="ent0013" id="entity_GMN12"><path d="M306.52,43.2969 L306.52,68.4297 A0,0 0 0 0 306.52,68.4297 L377.69,68.4297 L372.86,149.5469 L385.69,68.4297 L459.4878,68.4297 A0,0 0 0 0 459.4878,68.4297 L459.4878,53.2969 L449.4878,43.2969 L306.52,43.2969 A0,0 0 0 0 306.52,43.2969" fill="#585858" style="stroke:#181818;stroke-width:0.5;"/><path d="M449.4878,43.2969 L449.4878,53.2969 L459.4878,53.2969 L449.4878,43.2969" fill="#585858" style="stroke:#181818;stroke-width:0.5;"/><text fill="#FAFAFA" font-family="Padauk" font-size="13" lengthAdjust="spacing" textLength="131.9678" x="312.52" y="60.3638">heap / top&#8209;K helpers</text></g><g class="entity" data-entity="GMN15" data-source-line="14" data-uid="ent0016" id="entity_GMN15"><path d="M1529.71,490.7269 L1529.71,515.8597 A0,0 0 0 0 1529.71,515.8597 L1643.88,515.8597 L1647.08,596.9769 L1651.88,515.8597 L1766.2828,515.8597 A0,0 0 0 0 1766.2828,515.8597 L1766.2828,500.7269 L1756.2828,490.7269 L1529.71,490.7269 A0,0 0 0 0 1529.71,490.7269" fill="#585858" style="stroke:#181818;stroke-width:0.5;"/><path d="M1756.2828,490.7269 L1756.2828,500.7269 L1766.2828,500.7269 L1756.2828,490.7269" fill="#585858" style="stroke:#181818;stroke-width:0.5;"/><text fill="#FAFAFA" font-family="Padauk" font-size="13" lengthAdjust="spacing" textLength="215.5728" x="1535.71" y="507.7938">fixed window deque + freq maps</text></g><!--link array_processing to FIFO--><g class="link" data-entity-1="array_processing" data-entity-2="FIFO" data-source-line="50" data-uid="lnk33" id="link_array_processing_FIFO"><path codeLine="50" d="M203.64,167.2769 C214.39,179.5869 236.78,203.5569 260,218.4269 C312.02,251.7569 371.5567,275.5533 421.0167,292.2933" fill="none" id="array_processing-to-FIFO" style="stroke:#005F7F;stroke-width:1;stroke-dasharray:7,7;"/><polygon fill="#005F7F" points="426.7,294.2169,419.4574,287.5427,421.9639,292.6139,416.8927,295.1204,426.7,294.2169" style="stroke:#005F7F;stroke-width:1;"/></g><!--link array_processing to CLOCK--><g class="link" data-entity-1="array_processing" data-entity-2="CLOCK" data-source-line="51" data-uid="lnk35" id="link_array_processing_CLOCK"><path codeLine="51" d="M188.22,160.5969 C163.46,164.3269 92.26,178.0969 51,217.4269 C15.97,250.8169 6,268.1869 6,316.5769 C6,316.5769 6,316.5769 6,705.3569 C6,790.9169 276.3406,824.3104 417.7406,836.0504" fill="none" id="array_processing-to-CLOCK" style="stroke:#005F7F;stroke-width:1;stroke-dasharray:7,7;"/><polygon fill="#005F7F" points="423.72,836.5469,415.0818,831.8159,418.7371,836.1332,414.4199,839.7885,423.72,836.5469" style="stroke:#005F7F;stroke-width:1;"/></g><!--link array_processing to CLOCK_Pro--><g class="link" data-entity-1="array_processing" data-entity-2="CLOCK_Pro" data-source-line="52" data-uid="lnk37" id="link_array_processing_CLOCK_Pro"><path codeLine="52" d="M188.48,164.1169 C173.32,172.8369 141.4,192.9069 122,217.4269 C91.98,255.3869 77,268.1869 77,316.5769 C77,316.5769 77,316.5769 77,705.3569 C77,731.6769 97.39,734.5369 122,743.8569 C172.09,762.8369 554.26,731.9869 604,751.8569 C634.05,763.8669 656.6602,785.1386 674.4902,806.0786" fill="none" id="array_processing-to-CLOCK_Pro" style="stroke:#005F7F;stroke-width:1;stroke-dasharray:7,7;"/><polygon fill="#005F7F" points="678.38,810.6469,675.5908,801.2012,675.1385,806.84,669.4997,806.3876,678.38,810.6469" style="stroke:#005F7F;stroke-width:1;"/></g><!--link array_processing to LRU--><g class="link" data-entity-1="array_processing" data-entity-2="LRU" data-source-line="55" data-uid="lnk39" id="link_array_processing_LRU"><path codeLine="55" d="M205.71,161.8469 C225.94,167.3769 277.78,180.9269 322,187.4269 C441.47,205.0069 750.82,184.3369 864,226.4269 C898.13,239.1269 926.4229,260.5791 949.2229,281.2291" fill="none" id="array_processing-to-LRU" style="stroke:#005F7F;stroke-width:1;stroke-dasharray:7,7;"/><polygon fill="#005F7F" points="953.67,285.2569,949.6845,276.2505,949.9641,281.9004,944.3141,282.18,953.67,285.2569" style="stroke:#005F7F;stroke-width:1;"/></g><!--link hashing to LRU--><g class="link" data-entity-1="hashing" data-entity-2="LRU" data-source-line="56" data-uid="lnk41" id="link_hashing_LRU"><path codeLine="56" d="M1650.18,159.8769 C1587.7,163.1369 1211.28,184.3269 1106,226.4269 C1072.43,239.8569 1044.3834,261.0095 1021.5134,281.3495" fill="none" id="hashing-to-LRU" style="stroke:#00BAC6;stroke-width:1;stroke-dasharray:7,7;"/><polygon fill="#00BAC6" points="1017.03,285.3369,1026.4133,282.3447,1020.7661,282.014,1021.0968,276.3669,1017.03,285.3369" style="stroke:#00BAC6;stroke-width:1;"/></g><!--link array_processing to MRU--><g class="link" data-entity-1="array_processing" data-entity-2="MRU" data-source-line="57" data-uid="lnk43" id="link_array_processing_MRU"><path codeLine="57" d="M205.74,161.6369 C226.05,166.6969 278.04,179.3469 322,187.4269 C441.24,209.3669 478.72,183.2169 592,226.4269 C628.13,240.2069 659.6411,261.2597 685.6311,281.3297" fill="none" id="array_processing-to-MRU" style="stroke:#005F7F;stroke-width:1;stroke-dasharray:7,7;"/><polygon fill="#005F7F" points="690.38,284.9969,685.7015,276.3302,686.4226,281.9409,680.8119,282.662,690.38,284.9969" style="stroke:#005F7F;stroke-width:1;"/></g><!--link hashing to MRU--><g class="link" data-entity-1="hashing" data-entity-2="MRU" data-source-line="58" data-uid="lnk45" id="link_hashing_MRU"><path codeLine="58" d="M1650.07,159.5769 C1573.03,160.9069 1019.68,172.2869 864,226.4269 C827.08,239.2769 795.1476,260.7469 769.2176,281.2369" fill="none" id="hashing-to-MRU" style="stroke:#00BAC6;stroke-width:1;stroke-dasharray:7,7;"/><polygon fill="#00BAC6" points="764.51,284.9569,774.0514,282.5153,768.433,281.8569,769.0914,276.2385,764.51,284.9569" style="stroke:#00BAC6;stroke-width:1;"/></g><!--link array_processing to TwoQ--><g class="link" data-entity-1="array_processing" data-entity-2="TwoQ" data-source-line="59" data-uid="lnk47" id="link_array_processing_TwoQ"><path codeLine="59" d="M192.65,167.3369 C180.66,189.9069 148,256.8469 148,316.5769 C148,316.5769 148,316.5769 148,705.3569 C148,731.6769 168.37,734.5769 193,743.8569 C224.61,755.7769 769.92,738.6269 801,751.8569 C829.33,763.9169 849.6616,784.9683 865.5616,805.9083" fill="none" id="array_processing-to-TwoQ" style="stroke:#005F7F;stroke-width:1;stroke-dasharray:7,7;"/><polygon fill="#005F7F" points="869.19,810.6869,866.9331,801.1001,866.1663,806.7047,860.5617,805.938,869.19,810.6869" style="stroke:#005F7F;stroke-width:1;"/></g><!--link hashing to TwoQ--><g class="link" data-entity-1="hashing" data-entity-2="TwoQ" data-source-line="60" data-uid="lnk49" id="link_hashing_TwoQ"><path codeLine="60" d="M1667.88,160.3669 C1694.18,163.6669 1771.72,177.3769 1803,226.4269 C1842.02,287.6269 1848.54,333.2169 1803,389.7269 C1711.1,503.7569 1621.35,417.8769 1481,459.7269 C1444.06,470.7369 1434.52,473.5869 1400,490.7269 C1203.13,588.4869 1152.12,615.1469 980,751.8569 C957.66,769.6069 939.0744,787.971 922.0744,806.181" fill="none" id="hashing-to-TwoQ" style="stroke:#00BAC6;stroke-width:1;stroke-dasharray:7,7;"/><polygon fill="#00BAC6" points="917.98,810.5669,927.0455,806.7177,921.392,806.912,921.1977,801.2585,917.98,810.5669" style="stroke:#00BAC6;stroke-width:1;"/></g><!--link array_processing to ARC--><g class="link" data-entity-1="array_processing" data-entity-2="ARC" data-source-line="61" data-uid="lnk51" id="link_array_processing_ARC"><path codeLine="61" d="M205.7,161.9169 C225.91,167.5869 277.71,181.4169 322,187.4269 C494.85,210.9169 944.61,160.2369 1106,226.4269 C1136.23,238.8269 1159.4126,259.8624 1177.9326,280.5924" fill="none" id="array_processing-to-ARC" style="stroke:#005F7F;stroke-width:1;stroke-dasharray:7,7;"/><polygon fill="#005F7F" points="1181.93,285.0669,1178.9168,275.6903,1178.5988,281.3382,1172.9509,281.0202,1181.93,285.0669" style="stroke:#005F7F;stroke-width:1;"/></g><!--link hashing to ARC--><g class="link" data-entity-1="hashing" data-entity-2="ARC" data-source-line="62" data-uid="lnk53" id="link_hashing_ARC"><path codeLine="62" d="M1650,159.4069 C1608.49,159.6169 1432.09,164.3169 1307,226.4269 C1278.53,240.5669 1256.1666,260.7337 1237.6366,280.6537" fill="none" id="hashing-to-ARC" style="stroke:#00BAC6;stroke-width:1;stroke-dasharray:7,7;"/><polygon fill="#00BAC6" points="1233.55,285.0469,1242.6087,281.1816,1236.9555,281.3859,1236.7511,275.7328,1233.55,285.0469" style="stroke:#00BAC6;stroke-width:1;"/></g><!--link array_processing to LIRS--><g class="link" data-entity-1="array_processing" data-entity-2="LIRS" data-source-line="63" data-uid="lnk55" id="link_array_processing_LIRS"><path codeLine="63" d="M198.25,167.2269 C202.9,197.0369 219,306.7369 219,397.7269 C219,397.7269 219,397.7269 219,705.3569 C219,789.9669 901.33,718.3269 979,751.8569 C1008.18,764.4569 1030.0954,785.3656 1047.5854,806.0456" fill="none" id="array_processing-to-LIRS" style="stroke:#005F7F;stroke-width:1;stroke-dasharray:7,7;"/><polygon fill="#005F7F" points="1051.46,810.6269,1048.7023,801.172,1048.2312,806.8092,1042.594,806.3381,1051.46,810.6269" style="stroke:#005F7F;stroke-width:1;"/></g><!--link hashing to LIRS--><g class="link" data-entity-1="hashing" data-entity-2="LIRS" data-source-line="64" data-uid="lnk57" id="link_hashing_LIRS"><path codeLine="64" d="M1667.66,160.4769 C1703.68,165.0469 1840.97,184.4169 1866,217.4269 C1914.69,281.6369 1918.19,337.3369 1866,398.7269 C1811.46,462.8869 1571.57,432.1469 1492,459.7269 C1465.12,469.0469 1458.19,472.9269 1436,490.7269 C1318.81,584.7169 1342.57,669.5669 1212,743.8569 C1195.48,753.2569 1186.91,743.1869 1170,751.8569 C1142.48,765.9669 1121.3463,786.016 1103.8663,805.946" fill="none" id="hashing-to-LIRS" style="stroke:#00BAC6;stroke-width:1;stroke-dasharray:7,7;"/><polygon fill="#00BAC6" points="1099.91,810.4569,1108.8517,806.3282,1103.2069,806.6978,1102.8372,801.0531,1099.91,810.4569" style="stroke:#00BAC6;stroke-width:1;"/></g><!--link hashing to LFU--><g class="link" data-entity-1="hashing" data-entity-2="LFU" data-source-line="67" data-uid="lnk59" id="link_hashing_LFU"><path codeLine="67" d="M1650.27,164.3769 C1631.43,175.1269 1585.7,201.6669 1549,226.4269 C1521.53,244.9669 1496.4345,263.55 1473.2445,281.3" fill="none" id="hashing-to-LFU" style="stroke:#00BAC6;stroke-width:1;stroke-dasharray:7,7;"/><polygon fill="#00BAC6" points="1468.48,284.9469,1478.058,282.653,1472.4504,281.9078,1473.1955,276.3003,1468.48,284.9469" style="stroke:#00BAC6;stroke-width:1;"/></g><!--link priority to LFU--><g class="link" data-entity-1="priority" data-entity-2="LFU" data-source-line="68" data-uid="lnk61" id="link_priority_LFU"><path codeLine="68" d="M380.89,159.3769 C465.21,158.9769 1125.27,158.0969 1308,226.4269 C1341.92,239.1169 1369.9614,260.5587 1392.5414,281.1987" fill="none" id="priority-to-LFU" style="stroke:#CBDB2A;stroke-width:1;stroke-dasharray:7,7;"/><polygon fill="#CBDB2A" points="1396.97,285.2469,1393.0258,276.2223,1393.2795,281.8734,1387.6283,282.1271,1396.97,285.2469" style="stroke:#CBDB2A;stroke-width:1;"/></g><!--link hashing to TinyLFU--><g class="link" data-entity-1="hashing" data-entity-2="TinyLFU" data-source-line="69" data-uid="lnk63" id="link_hashing_TinyLFU"><path codeLine="69" d="M1667.98,159.4369 C1718.08,159.6869 1962.43,163.6669 2008,217.4269 C2057.51,275.8469 2051.17,326.4769 2008,389.7269 C1869.33,592.9069 1477,299.8669 1477,545.8569 C1477,545.8569 1477,545.8569 1477,705.3569 C1477,741.4369 1478.161,776.852 1479.311,804.542" fill="none" id="hashing-to-TinyLFU" style="stroke:#00BAC6;stroke-width:1;stroke-dasharray:7,7;"/><polygon fill="#00BAC6" points="1479.56,810.5369,1483.1831,801.3786,1479.3525,805.5412,1475.19,801.7106,1479.56,810.5369" style="stroke:#00BAC6;stroke-width:1;"/></g><!--link priority to TinyLFU--><g class="link" data-entity-1="priority" data-entity-2="TinyLFU" data-source-line="70" data-uid="lnk65" id="link_priority_TinyLFU"><path codeLine="70" d="M370.8,167.2869 C366.39,199.1569 354.14,320.4569 411,389.7269 C697.97,739.2969 966.42,532.6169 1362,751.8569 C1391.81,768.3769 1417.768,787.891 1440.468,806.681" fill="none" id="priority-to-TinyLFU" style="stroke:#CBDB2A;stroke-width:1;stroke-dasharray:7,7;"/><polygon fill="#CBDB2A" points="1445.09,810.5069,1440.7076,801.6868,1441.2383,807.3187,1435.6064,807.8494,1445.09,810.5069" style="stroke:#CBDB2A;stroke-width:1;"/></g><!--link hashing to GDSF--><g class="link" data-entity-1="hashing" data-entity-2="GDSF" data-source-line="71" data-uid="lnk67" id="link_hashing_GDSF"><path codeLine="71" d="M1667.82,159.8369 C1711.26,162.0469 1901.78,174.1069 1937,217.4269 C1985.3,276.8469 1974.73,323.0869 1937,389.7269 C1888.76,474.9269 1589.52,415.8369 1502,459.7269 C1429.49,496.0869 1321.5097,720.2724 1282.6297,805.1124" fill="none" id="hashing-to-GDSF" style="stroke:#00BAC6;stroke-width:1;stroke-dasharray:7,7;"/><polygon fill="#00BAC6" points="1280.13,810.5669,1287.5158,804.0516,1282.2131,806.0214,1280.2432,800.7187,1280.13,810.5669" style="stroke:#00BAC6;stroke-width:1;"/></g><!--link priority to GDSF--><g class="link" data-entity-1="priority" data-entity-2="GDSF" data-source-line="72" data-uid="lnk69" id="link_priority_GDSF"><path codeLine="72" d="M366.77,167.3569 C358.9,179.5869 343.99,203.9769 335,226.4269 C305.75,299.5069 290,319.0169 290,397.7269 C290,397.7269 290,397.7269 290,546.8569 C290,948.4469 815.94,562.3569 1170,751.8569 C1197.21,766.4269 1218.4026,786.2404 1236.1526,805.9304" fill="none" id="priority-to-GDSF" style="stroke:#CBDB2A;stroke-width:1;stroke-dasharray:7,7;"/><polygon fill="#CBDB2A" points="1240.17,810.3869,1237.1149,801.0238,1236.8222,806.6731,1231.1729,806.3804,1240.17,810.3869" style="stroke:#CBDB2A;stroke-width:1;"/></g><!--link hashing to RandomReplace--><g class="link" data-entity-1="hashing" data-entity-2="RandomReplace" data-source-line="75" data-uid="lnk71" id="link_hashing_RandomReplace"><path codeLine="75" d="M1659,167.0069 C1659,187.9769 1659,241.6669 1659,278.9969" fill="none" id="hashing-to-RandomReplace" style="stroke:#00BAC6;stroke-width:1;stroke-dasharray:7,7;"/><polygon fill="#00BAC6" points="1659,284.9969,1663,275.9969,1659,279.9969,1655,275.9969,1659,284.9969" style="stroke:#00BAC6;stroke-width:1;"/></g><!--link sliding_window to TinyLFU--><g class="link" data-entity-1="sliding_window" data-entity-2="TinyLFU" data-source-line="78" data-uid="lnk73" id="link_sliding_window_TinyLFU"><path codeLine="78" d="M1641.48,614.6869 C1620.1,644.9669 1545.5203,750.6152 1506.7003,805.6052" fill="none" id="sliding_window-to-TinyLFU" style="stroke:#444444;stroke-width:1;stroke-dasharray:7,7;"/><polygon fill="#444444" points="1503.24,810.5069,1511.6982,805.4613,1506.1236,806.4222,1505.1627,800.8475,1503.24,810.5069" style="stroke:#444444;stroke-width:1;"/><text fill="#000000" font-family="Padauk" font-size="13" lengthAdjust="spacing" textLength="119.2979" x="1584.88" y="708.9238">admission window</text></g><!--link CLASSIC to MODERN--><!--SRC=[bLR1Rjiu4BthAsPrs3JOoaBt60G53CLkZ4fn8cUnXw88Q8goY52aIbBDUei2FUrzYtvXlcI7ign8he9uTQAeDuypRuOp-eLBAkgCrLf0OMrbpi9GauV9XjkYNjU6QQgaPT9Eg2h3IglFJ0MKX3p3FMwteMQv2Gj6CXEMXCiMCk5rAJmF4O91H6Z1m5XDBDjmPk0yU0j4R9J6GqhZUQzEWMXDjdTeJ9anN6xSNa5CqIuhpHrwwzP6y0otxnwupDI3vqbb6LXLWSf_ee4py0MNzomB13VsDNogMSrUGyPmuGzCszEWUywQhS2IDSOGGacg0NxlKX_FI8L813n- -_SzlegAQJEm6ZhVMENyBvP1kz4u1hz1hjadToIg4vu0HDFeSWRfx3gUHhDaTdKBryju4IrcAu3WnGTEGi_BDIaP-94Wg0njaxBgak83CH35qzLg4S4N3u0w8CmNysNt4gT_TEkajvwcqHDc_hIV4eofJ5ab26NUrxqBYSgObkCU9CkBMNhLSo2Abz7xuTlTjLRTpks3kdawV96kdhvmkUrxy-vYDKSdF1SIzDFiQyn8iAxpdEbTWVWUXWf3q4KSOrukiIGIpF8hpIYJT7lgUybBq58PYmNHM5WqGBaE37vtqXgqsHI81SEiGHVcXxoE4TOrlSVl22wvH5fNTButaBe1rvBdIfUWco_mcLFBIzzh51om6ePNF0jeGIIQEYrQbDEvGvMri3oWGj5xA9GDgHAPxpdrXpvEtmHSmgymBPkOC0pCoH1YB46I5KRGY0qtoBFBLGyK9O71E6c1iFPk89_lkImEwIXA5Xh-Dni8ugvDL_zjxzd2up_V8KVFCT4PgvZ4BaPTHuBdByx9uxSVSDCu6aAAwk0HRQsiYM5PlvxE9n-YPRnCxvBfukfZNKr-xciz_Oz5x_9m17hdQuoD3aLpfTSusDKgA0t5TgrvTjglxoE8nz3J-BO1xxjqyhyOaoCOUyLr1ECO-f2nT_EEO1n37pBsgliO7KVGXuox9Cwr6mGkQI5Sidqg-ptXUPV6C564GwE1TQEqT-UUJy4OPeIhTokVvHh5Z73j1DWrj2Pi7E3ieC6zeDxURIAC0lo9CK30b4G8-BDf9NY5tIpRmyudI34vdCtOMaXMSioSacqBmhQo7v71Xu9ds3u-uhPiciNRTdZz1m00]--></g></svg>