<svg xmlns="http://www.w3.org/2000/svg" xmlns:xlink="http://www.w3.org/1999/xlink" contentStyleType="text/css" data-diagram-type="CLASS" height="954px" preserveAspectRatio="none" style="width:1869px;height:954px;background:#FAFAFA;" version="1.1" viewBox="0 0 1869 954" width="1869px" zoomAndPan="magnify"><title>Cache strategies &lt;-&gt; algorithms</title><defs/><g><rect fill="#FAFAFA" height="954" style="stroke:none;stroke-width:1;" width="1869" x="0" y="0"/><text fill="#000000" font-family="Padauk" font-size="14" font-weight="bold" lengthAdjust="spacing" textLength="206.4453" x="824.4323" y="23.8086">Cache strategies &lt;-&gt; algorithms</text><!--cluster CLASSIC--><g class="cluster" data-entity="CLASSIC" data-source-line="18" data-uid="ent0018" id="cluster_CLASSIC"><rect fill="#FAFAFA" height="139.65" rx="2.5" ry="2.5" style="stroke:#005F7F;stroke-width:1;" width="1195" x="403" y="258.8145"/><path d="M562.1465,258.8145 L562.1465,272.4591 L552.1465,282.4591 L403,282.4591" fill="none" style="stroke:#005F7F;stroke-width:1;"/><text fill="#000000" font-family="Padauk" font-size="14" font-weight="bold" lengthAdjust="spacing" textLength="149.1465" x="406" y="273.6231">Classic Cache Strategies</text></g><!--cluster MODERN--><g class="cluster" data-entity="MODERN" data-source-line="26" data-uid="ent0025" id="cluster_MODERN"><rect fill="#FAFAFA" height="139.64" rx="2.5" ry="2.5" style="stroke:#005F7F;stroke-width:1;" width="1060" x="397" y="808.6345"/><path d="M560.1797,808.6345 L560.1797,822.2791 L550.1797,832.2791 L397,832.2791" fill="none" style="stroke:#005F7F;stroke-width:1;"/><text fill="#000000" font-family="Padauk" font-size="14" font-weight="bold" lengthAdjust="spacing" textLength="153.1797" x="400" y="823.4431">Modern Cache Strategies</text></g><!--class FIFO--><g class="entity" data-entity="FIFO" data-source-line="19" data-uid="ent0019" id="entity_FIFO"><rect fill="#FAFAFA" height="68.6445" rx="2.5" ry="2.5" style="stroke:#181818;stroke-width:0.5;" width="117.7246" x="427.14" y="305.8145"/><ellipse cx="468.8174" cy="321.8145" fill="#FAFAFA" rx="11" ry="11" style="stroke:#181818;stroke-width:1;"/><path d="M468.9268,317.3458 Q468.0049,317.3458 467.2706,317.6583 Q466.5518,317.9708 466.0518,318.5645 Q465.5518,319.1427 465.2706,320.0177 Q465.0049,320.8927 465.0049,321.9864 Q465.0049,323.4239 465.4424,324.4708 Q465.8956,325.5177 466.7393,326.0645 Q467.5987,326.6114 468.9112,326.6114 Q469.6924,326.6114 470.3799,326.4864 Q471.0831,326.3458 472.0831,326.0333 L472.0831,327.9083 Q471.2237,328.2364 470.4581,328.3614 Q469.7081,328.4864 468.6924,328.4864 Q466.7706,328.4864 465.4581,327.6895 Q464.1612,326.877 463.5049,325.4083 Q462.8487,323.9239 462.8487,321.9552 Q462.8487,320.5333 463.2393,319.3614 Q463.6456,318.1739 464.4268,317.2989 Q465.2081,316.4239 466.3487,315.9552 Q467.4893,315.4708 468.9581,315.4708 Q469.9112,315.4708 470.8018,315.6739 Q471.7081,315.8614 472.6456,316.3302 L471.8174,318.1114 Q471.0362,317.7364 470.3799,317.5489 Q469.7237,317.3458 468.9268,317.3458 Z " fill="#000000"/><text fill="#000000" font-family="Padauk" font-size="14" lengthAdjust="spacing" textLength="26.4414" x="488.7458" y="325.3009">FIFO</text><line style="stroke:#181818;stroke-width:0.5;" x1="428.14" x2="543.8646" y1="337.8145" y2="337.8145"/><text fill="#000000" font-family="Padauk" font-size="14" lengthAdjust="spacing" textLength="105.7246" x="433.14" y="355.6231">"ring&#8209;buffer queue"</text><line style="stroke:#181818;stroke-width:0.5;" x1="428.14" x2="543.8646" y1="366.4591" y2="366.4591"/></g><!--class LRU--><g class="entity" data-entity="LRU" data-source-line="20" data-uid="ent0020" id="entity_LRU"><rect fill="#FAFAFA" height="68.6445" rx="2.5" ry="2.5" style="stroke:#181818;stroke-width:0.5;" width="176.3086" x="810.85" y="305.8145"/><ellipse cx="883.2221" cy="321.8145" fill="#FAFAFA" rx="11" ry="11" style="stroke:#181818;stroke-width:1;"/><path d="M883.3314,317.3458 Q882.4096,317.3458 881.6752,317.6583 Q880.9564,317.9708 880.4564,318.5645 Q879.9564,319.1427 879.6752,320.0177 Q879.4096,320.8927 879.4096,321.9864 Q879.4096,323.4239 879.8471,324.4708 Q880.3002,325.5177 881.1439,326.0645 Q882.0033,326.6114 883.3158,326.6114 Q884.0971,326.6114 884.7846,326.4864 Q885.4877,326.3458 886.4877,326.0333 L886.4877,327.9083 Q885.6283,328.2364 884.8627,328.3614 Q884.1127,328.4864 883.0971,328.4864 Q881.1752,328.4864 879.8627,327.6895 Q878.5658,326.877 877.9096,325.4083 Q877.2533,323.9239 877.2533,321.9552 Q877.2533,320.5333 877.6439,319.3614 Q878.0502,318.1739 878.8314,317.2989 Q879.6127,316.4239 880.7533,315.9552 Q881.8939,315.4708 883.3627,315.4708 Q884.3158,315.4708 885.2064,315.6739 Q886.1127,315.8614 887.0502,316.3302 L886.2221,318.1114 Q885.4408,317.7364 884.7846,317.5489 Q884.1283,317.3458 883.3314,317.3458 Z " fill="#000000"/><text fill="#000000" font-family="Padauk" font-size="14" lengthAdjust="spacing" textLength="23.0645" x="903.7221" y="325.3009">LRU</text><line style="stroke:#181818;stroke-width:0.5;" x1="811.85" x2="986.1586" y1="337.8145" y2="337.8145"/><line style="stroke:#181818;stroke-width:0.5;" x1="811.85" x2="986.1586" y1="345.8145" y2="345.8145"/><text fill="#000000" font-family="Padauk" font-size="14" lengthAdjust="spacing" textLength="164.3086" x="816.85" y="363.6231">"DLL + HashMap (recency)"</text></g><!--class MRU--><g class="entity" data-entity="MRU" data-source-line="21" data-uid="ent0021" id="entity_MRU"><rect fill="#FAFAFA" height="68.6445" rx="2.5" ry="2.5" style="stroke:#181818;stroke-width:0.5;" width="196.2148" x="579.89" y="305.8145"/><ellipse cx="659.973" cy="321.8145" fill="#FAFAFA" rx="11" ry="11" style="stroke:#181818;stroke-width:1;"/><path d="M660.0824,317.3458 Q659.1605,317.3458 658.4261,317.6583 Q657.7074,317.9708 657.2074,318.5645 Q656.7074,319.1427 656.4261,320.0177 Q656.1605,320.8927 656.1605,321.9864 Q656.1605,323.4239 656.598,324.4708 Q657.0511,325.5177 657.8949,326.0645 Q658.7543,326.6114 660.0668,326.6114 Q660.848,326.6114 661.5355,326.4864 Q662.2386,326.3458 663.2386,326.0333 L663.2386,327.9083 Q662.3793,328.2364 661.6136,328.3614 Q660.8636,328.4864 659.848,328.4864 Q657.9261,328.4864 656.6136,327.6895 Q655.3168,326.877 654.6605,325.4083 Q654.0043,323.9239 654.0043,321.9552 Q654.0043,320.5333 654.3949,319.3614 Q654.8011,318.1739 655.5824,317.2989 Q656.3636,316.4239 657.5043,315.9552 Q658.6449,315.4708 660.1136,315.4708 Q661.0668,315.4708 661.9574,315.6739 Q662.8636,315.8614 663.8011,316.3302 L662.973,318.1114 Q662.1918,317.7364 661.5355,317.5489 Q660.8793,317.3458 660.0824,317.3458 Z " fill="#000000"/><text fill="#000000" font-family="Padauk" font-size="14" lengthAdjust="spacing" textLength="27.5488" x="680.473" y="325.3009">MRU</text><line style="stroke:#181818;stroke-width:0.5;" x1="580.89" x2="775.1048" y1="337.8145" y2="337.8145"/><line style="stroke:#181818;stroke-width:0.5;" x1="580.89" x2="775.1048" y1="345.8145" y2="345.8145"/><text fill="#000000" font-family="Padauk" font-size="14" lengthAdjust="spacing" textLength="184.2148" x="585.89" y="363.6231">"DLL + HashMap (most&#8209;recent)"</text></g><!--class ARC--><g class="entity" data-entity="ARC" data-source-line="22" data-uid="ent0022" id="entity_ARC"><rect fill="#FAFAFA" height="68.6445" rx="2.5" ry="2.5" style="stroke:#181818;stroke-width:0.5;" width="142.5117" x="1021.74" y="305.8145"/><ellipse cx="1076.2088" cy="321.8145" fill="#FAFAFA" rx="11" ry="11" style="stroke:#181818;stroke-width:1;"/><path d="M1076.3181,317.3458 Q1075.3963,317.3458 1074.6619,317.6583 Q1073.9431,317.9708 1073.4431,318.5645 Q1072.9431,319.1427 1072.6619,320.0177 Q1072.3963,320.8927 1072.3963,321.9864 Q1072.3963,323.4239 1072.8338,324.4708 Q1073.2869,325.5177 1074.1306,326.0645 Q1074.99,326.6114 1076.3025,326.6114 Q1077.0838,326.6114 1077.7713,326.4864 Q1078.4744,326.3458 1079.4744,326.0333 L1079.4744,327.9083 Q1078.615,328.2364 1077.8494,328.3614 Q1077.0994,328.4864 1076.0838,328.4864 Q1074.1619,328.4864 1072.8494,327.6895 Q1071.5525,326.877 1070.8963,325.4083 Q1070.24,323.9239 1070.24,321.9552 Q1070.24,320.5333 1070.6306,319.3614 Q1071.0369,318.1739 1071.8181,317.2989 Q1072.5994,316.4239 1073.74,315.9552 Q1074.8806,315.4708 1076.3494,315.4708 Q1077.3025,315.4708 1078.1931,315.6739 Q1079.0994,315.8614 1080.0369,316.3302 L1079.2088,318.1114 Q1078.4275,317.7364 1077.7713,317.5489 Q1077.115,317.3458 1076.3181,317.3458 Z " fill="#000000"/><text fill="#000000" font-family="Padauk" font-size="14" lengthAdjust="spacing" textLength="25.0742" x="1096.7088" y="325.3009">ARC</text><line style="stroke:#181818;stroke-width:0.5;" x1="1022.74" x2="1163.2517" y1="337.8145" y2="337.8145"/><text fill="#000000" font-family="Padauk" font-size="14" lengthAdjust="spacing" textLength="130.5117" x="1027.74" y="355.6231">"2 LRUs + ghost sets"</text><line style="stroke:#181818;stroke-width:0.5;" x1="1022.74" x2="1163.2517" y1="366.4591" y2="366.4591"/></g><!--class LFU--><g class="entity" data-entity="LFU" data-source-line="23" data-uid="ent0023" id="entity_LFU"><rect fill="#FAFAFA" height="68.6445" rx="2.5" ry="2.5" style="stroke:#181818;stroke-width:0.5;" width="166.957" x="1199.52" y="305.8145"/><ellipse cx="1267.5854" cy="321.8145" fill="#FAFAFA" rx="11" ry="11" style="stroke:#181818;stroke-width:1;"/><path d="M1267.6948,317.3458 Q1266.7729,317.3458 1266.0386,317.6583 Q1265.3198,317.9708 1264.8198,318.5645 Q1264.3198,319.1427 1264.0386,320.0177 Q1263.7729,320.8927 1263.7729,321.9864 Q1263.7729,323.4239 1264.2104,324.4708 Q1264.6636,325.5177 1265.5073,326.0645 Q1266.3667,326.6114 1267.6792,326.6114 Q1268.4604,326.6114 1269.1479,326.4864 Q1269.8511,326.3458 1270.8511,326.0333 L1270.8511,327.9083 Q1269.9917,328.2364 1269.2261,328.3614 Q1268.4761,328.4864 1267.4604,328.4864 Q1265.5386,328.4864 1264.2261,327.6895 Q1262.9292,326.877 1262.2729,325.4083 Q1261.6167,323.9239 1261.6167,321.9552 Q1261.6167,320.5333 1262.0073,319.3614 Q1262.4136,318.1739 1263.1948,317.2989 Q1263.9761,316.4239 1265.1167,315.9552 Q1266.2573,315.4708 1267.7261,315.4708 Q1268.6792,315.4708 1269.5698,315.6739 Q1270.4761,315.8614 1271.4136,316.3302 L1270.5854,318.1114 Q1269.8042,317.7364 1269.1479,317.5489 Q1268.4917,317.3458 1267.6948,317.3458 Z " fill="#000000"/><text fill="#000000" font-family="Padauk" font-size="14" lengthAdjust="spacing" textLength="22.3262" x="1288.0854" y="325.3009">LFU</text><line style="stroke:#181818;stroke-width:0.5;" x1="1200.52" x2="1365.477" y1="337.8145" y2="337.8145"/><text fill="#000000" font-family="Padauk" font-size="14" lengthAdjust="spacing" textLength="154.957" x="1205.52" y="355.6231">"Hash buckets + min&#8209;heap"</text><line style="stroke:#181818;stroke-width:0.5;" x1="1200.52" x2="1365.477" y1="366.4591" y2="366.4591"/></g><!--class RandomReplace--><g class="entity" data-entity="RandomReplace" data-source-line="24" data-uid="ent0024" id="entity_RandomReplace"><rect fill="#FAFAFA" height="68.6445" rx="2.5" ry="2.5" style="stroke:#181818;stroke-width:0.5;" width="153.6406" x="1401.18" y="305.8145"/><ellipse cx="1429.9437" cy="321.8145" fill="#FAFAFA" rx="11" ry="11" style="stroke:#181818;stroke-width:1;"/><path d="M1430.053,317.3458 Q1429.1312,317.3458 1428.3968,317.6583 Q1427.678,317.9708 1427.178,318.5645 Q1426.678,319.1427 1426.3968,320.0177 Q1426.1312,320.8927 1426.1312,321.9864 Q1426.1312,323.4239 1426.5687,324.4708 Q1427.0218,325.5177 1427.8655,326.0645 Q1428.7249,326.6114 1430.0374,326.6114 Q1430.8187,326.6114 1431.5062,326.4864 Q1432.2093,326.3458 1433.2093,326.0333 L1433.2093,327.9083 Q1432.3499,328.2364 1431.5843,328.3614 Q1430.8343,328.4864 1429.8187,328.4864 Q1427.8968,328.4864 1426.5843,327.6895 Q1425.2874,326.877 1424.6312,325.4083 Q1423.9749,323.9239 1423.9749,321.9552 Q1423.9749,320.5333 1424.3655,319.3614 Q1424.7718,318.1739 1425.553,317.2989 Q1426.3343,316.4239 1427.4749,315.9552 Q1428.6155,315.4708 1430.0843,315.4708 Q1431.0374,315.4708 1431.928,315.6739 Q1432.8343,315.8614 1433.7718,316.3302 L1432.9437,318.1114 Q1432.1624,317.7364 1431.5062,317.5489 Q1430.8499,317.3458 1430.053,317.3458 Z " fill="#000000"/><text fill="#000000" font-family="Padauk" font-size="14" lengthAdjust="spacing" textLength="91.0547" x="1447.0023" y="325.3009">RandomReplace</text><line style="stroke:#181818;stroke-width:0.5;" x1="1402.18" x2="1553.8206" y1="337.8145" y2="337.8145"/><text fill="#000000" font-family="Padauk" font-size="14" lengthAdjust="spacing" textLength="141.6406" x="1407.18" y="355.6231">"uniform random victim"</text><line style="stroke:#181818;stroke-width:0.5;" x1="1402.18" x2="1553.8206" y1="366.4591" y2="366.4591"/></g><!--class CLOCK--><g class="entity" data-entity="CLOCK" data-source-line="27" data-uid="ent0026" id="entity_CLOCK"><rect fill="#FAFAFA" height="68.6445" rx="2.5" ry="2.5" style="stroke:#181818;stroke-width:0.5;" width="130.2754" x="420.86" y="855.6345"/><ellipse cx="461.8545" cy="871.6345" fill="#FAFAFA" rx="11" ry="11" style="stroke:#181818;stroke-width:1;"/><path d="M461.9639,867.1658 Q461.042,867.1658 460.3077,867.4783 Q459.5889,867.7908 459.0889,868.3845 Q458.5889,868.9627 458.3077,869.8377 Q458.042,870.7127 458.042,871.8064 Q458.042,873.2439 458.4795,874.2908 Q458.9327,875.3377 459.7764,875.8845 Q460.6358,876.4314 461.9483,876.4314 Q462.7295,876.4314 463.417,876.3064 Q464.1202,876.1658 465.1202,875.8533 L465.1202,877.7283 Q464.2608,878.0564 463.4952,878.1814 Q462.7452,878.3064 461.7295,878.3064 Q459.8077,878.3064 458.4952,877.5095 Q457.1983,876.697 456.542,875.2283 Q455.8858,873.7439 455.8858,871.7752 Q455.8858,870.3533 456.2764,869.1814 Q456.6827,867.9939 457.4639,867.1189 Q458.2452,866.2439 459.3858,865.7752 Q460.5264,865.2908 461.9952,865.2908 Q462.9483,865.2908 463.8389,865.4939 Q464.7452,865.6814 465.6827,866.1502 L464.8545,867.9314 Q464.0733,867.5564 463.417,867.3689 Q462.7608,867.1658 461.9639,867.1658 Z " fill="#000000"/><text fill="#000000" font-family="Padauk" font-size="14" lengthAdjust="spacing" textLength="40.5098" x="481.6311" y="875.1209">CLOCK</text><line style="stroke:#181818;stroke-width:0.5;" x1="421.86" x2="550.1354" y1="887.6345" y2="887.6345"/><text fill="#000000" font-family="Padauk" font-size="14" lengthAdjust="spacing" textLength="118.2754" x="426.86" y="905.4431">"second&#8209;chance ring"</text><line style="stroke:#181818;stroke-width:0.5;" x1="421.86" x2="550.1354" y1="916.2791" y2="916.2791"/></g><!--class CLOCK_Pro--><g class="entity" data-entity="CLOCK_Pro" data-source-line="28" data-uid="ent0027" id="entity_CLOCK_Pro"><rect fill="#FAFAFA" height="68.6445" rx="2.5" ry="2.5" style="stroke:#181818;stroke-width:0.5;" width="133.3242" x="586.34" y="855.6345"/><ellipse cx="616.531" cy="871.6345" fill="#FAFAFA" rx="11" ry="11" style="stroke:#181818;stroke-width:1;"/><path d="M616.6404,867.1658 Q615.7185,867.1658 614.9841,867.4783 Q614.2654,867.7908 613.7654,868.3845 Q613.2654,868.9627 612.9841,869.8377 Q612.7185,870.7127 612.7185,871.8064 Q612.7185,873.2439 613.156,874.2908 Q613.6091,875.3377 614.4529,875.8845 Q615.3123,876.4314 616.6248,876.4314 Q617.406,876.4314 618.0935,876.3064 Q618.7966,876.1658 619.7966,875.8533 L619.7966,877.7283 Q618.9373,878.0564 618.1716,878.1814 Q617.4216,878.3064 616.406,878.3064 Q614.4841,878.3064 613.1716,877.5095 Q611.8748,876.697 611.2185,875.2283 Q610.5623,873.7439 610.5623,871.7752 Q610.5623,870.3533 610.9529,869.1814 Q611.3591,867.9939 612.1404,867.1189 Q612.9216,866.2439 614.0623,865.7752 Q615.2029,865.2908 616.6716,865.2908 Q617.6248,865.2908 618.5154,865.4939 Q619.4216,865.6814 620.3591,866.1502 L619.531,867.9314 Q618.7498,867.5564 618.0935,867.3689 Q617.4373,867.1658 616.6404,867.1658 Z " fill="#000000"/><text fill="#000000" font-family="Padauk" font-size="14" lengthAdjust="spacing" textLength="67.5664" x="633.9068" y="875.1209">CLOCK_Pro</text><line style="stroke:#181818;stroke-width:0.5;" x1="587.34" x2="718.6642" y1="887.6345" y2="887.6345"/><text fill="#000000" font-family="Padauk" font-size="14" lengthAdjust="spacing" textLength="121.3242" x="592.34" y="905.4431">"multi&#8209;clock hot/cold"</text><line style="stroke:#181818;stroke-width:0.5;" x1="587.34" x2="718.6642" y1="916.2791" y2="916.2791"/></g><!--class TwoQ--><g class="entity" data-entity="TwoQ" data-source-line="29" data-uid="ent0028" id="entity_TwoQ"><rect fill="#FAFAFA" height="68.6445" rx="2.5" ry="2.5" style="stroke:#181818;stroke-width:0.5;" width="122.7695" x="754.62" y="855.6345"/><ellipse cx="795.1162" cy="871.6345" fill="#FAFAFA" rx="11" ry="11" style="stroke:#181818;stroke-width:1;"/><path d="M795.2256,867.1658 Q794.3037,867.1658 793.5693,867.4783 Q792.8506,867.7908 792.3506,868.3845 Q791.8506,868.9627 791.5693,869.8377 Q791.3037,870.7127 791.3037,871.8064 Q791.3037,873.2439 791.7412,874.2908 Q792.1943,875.3377 793.0381,875.8845 Q793.8974,876.4314 795.2099,876.4314 Q795.9912,876.4314 796.6787,876.3064 Q797.3818,876.1658 798.3818,875.8533 L798.3818,877.7283 Q797.5224,878.0564 796.7568,878.1814 Q796.0068,878.3064 794.9912,878.3064 Q793.0693,878.3064 791.7568,877.5095 Q790.4599,876.697 789.8037,875.2283 Q789.1474,873.7439 789.1474,871.7752 Q789.1474,870.3533 789.5381,869.1814 Q789.9443,867.9939 790.7256,867.1189 Q791.5068,866.2439 792.6474,865.7752 Q793.7881,865.2908 795.2568,865.2908 Q796.2099,865.2908 797.1006,865.4939 Q798.0068,865.6814 798.9443,866.1502 L798.1162,867.9314 Q797.3349,867.5564 796.6787,867.3689 Q796.0224,867.1658 795.2256,867.1658 Z " fill="#000000"/><text fill="#000000" font-family="Padauk" font-size="14" lengthAdjust="spacing" textLength="34.1113" x="814.782" y="875.1209">TwoQ</text><line style="stroke:#181818;stroke-width:0.5;" x1="755.62" x2="876.3895" y1="887.6345" y2="887.6345"/><text fill="#000000" font-family="Padauk" font-size="14" lengthAdjust="spacing" textLength="110.7695" x="760.62" y="905.4431">"A1&#8209;in &amp; Am LRUs"</text><line style="stroke:#181818;stroke-width:0.5;" x1="755.62" x2="876.3895" y1="916.2791" y2="916.2791"/></g><!--class LIRS--><g class="entity" data-entity="LIRS" data-source-line="30" data-uid="ent0029" id="entity_LIRS"><rect fill="#FAFAFA" height="68.6445" rx="2.5" ry="2.5" style="stroke:#181818;stroke-width:0.5;" width="133.4199" x="912.29" y="855.6345"/><ellipse cx="962.083" cy="871.6345" fill="#FAFAFA" rx="11" ry="11" style="stroke:#181818;stroke-width:1;"/><path d="M962.1923,867.1658 Q961.2705,867.1658 960.5361,867.4783 Q959.8173,867.7908 959.3173,868.3845 Q958.8173,868.9627 958.5361,869.8377 Q958.2705,870.7127 958.2705,871.8064 Q958.2705,873.2439 958.708,874.2908 Q959.1611,875.3377 960.0048,875.8845 Q960.8642,876.4314 962.1767,876.4314 Q962.958,876.4314 963.6455,876.3064 Q964.3486,876.1658 965.3486,875.8533 L965.3486,877.7283 Q964.4892,878.0564 963.7236,878.1814 Q962.9736,878.3064 961.958,878.3064 Q960.0361,878.3064 958.7236,877.5095 Q957.4267,876.697 956.7705,875.2283 Q956.1142,873.7439 956.1142,871.7752 Q956.1142,870.3533 956.5048,869.1814 Q956.9111,867.9939 957.6923,867.1189 Q958.4736,866.2439 959.6142,865.7752 Q960.7548,865.2908 962.2236,865.2908 Q963.1767,865.2908 964.0673,865.4939 Q964.9736,865.6814 965.9111,866.1502 L965.083,867.9314 Q964.3017,867.5564 963.6455,867.3689 Q962.9892,867.1658 962.1923,867.1658 Z " fill="#000000"/><text fill="#000000" font-family="Padauk" font-size="14" lengthAdjust="spacing" textLength="25.334" x="982.583" y="875.1209">LIRS</text><line style="stroke:#181818;stroke-width:0.5;" x1="913.29" x2="1044.7099" y1="887.6345" y2="887.6345"/><text fill="#000000" font-family="Padauk" font-size="14" lengthAdjust="spacing" textLength="121.4199" x="918.29" y="905.4431">"stack S + queue Q"</text><line style="stroke:#181818;stroke-width:0.5;" x1="913.29" x2="1044.7099" y1="916.2791" y2="916.2791"/></g><!--class TinyLFU--><g class="entity" data-entity="TinyLFU" data-source-line="31" data-uid="ent0030" id="entity_TinyLFU"><rect fill="#FAFAFA" height="68.6445" rx="2.5" ry="2.5" style="stroke:#181818;stroke-width:0.5;" width="169.0898" x="1244.46" y="855.6345"/><ellipse cx="1301.711" cy="871.6345" fill="#FAFAFA" rx="11" ry="11" style="stroke:#181818;stroke-width:1;"/><path d="M1301.8204,867.1658 Q1300.8985,867.1658 1300.1641,867.4783 Q1299.4454,867.7908 1298.9454,868.3845 Q1298.4454,868.9627 1298.1641,869.8377 Q1297.8985,870.7127 1297.8985,871.8064 Q1297.8985,873.2439 1298.336,874.2908 Q1298.7891,875.3377 1299.6329,875.8845 Q1300.4922,876.4314 1301.8047,876.4314 Q1302.586,876.4314 1303.2735,876.3064 Q1303.9766,876.1658 1304.9766,875.8533 L1304.9766,877.7283 Q1304.1172,878.0564 1303.3516,878.1814 Q1302.6016,878.3064 1301.586,878.3064 Q1299.6641,878.3064 1298.3516,877.5095 Q1297.0547,876.697 1296.3985,875.2283 Q1295.7422,873.7439 1295.7422,871.7752 Q1295.7422,870.3533 1296.1329,869.1814 Q1296.5391,867.9939 1297.3204,867.1189 Q1298.1016,866.2439 1299.2422,865.7752 Q1300.3829,865.2908 1301.8516,865.2908 Q1302.8047,865.2908 1303.6954,865.4939 Q1304.6016,865.6814 1305.5391,866.1502 L1304.711,867.9314 Q1303.9297,867.5564 1303.2735,867.3689 Q1302.6172,867.1658 1301.8204,867.1658 Z " fill="#000000"/><text fill="#000000" font-family="Padauk" font-size="14" lengthAdjust="spacing" textLength="46.0879" x="1322.211" y="875.1209">TinyLFU</text><line style="stroke:#181818;stroke-width:0.5;" x1="1245.46" x2="1412.5498" y1="887.6345" y2="887.6345"/><text fill="#000000" font-family="Padauk" font-size="14" lengthAdjust="spacing" textLength="157.0898" x="1250.46" y="905.4431">"CM&#8209;sketch + window LRU"</text><line style="stroke:#181818;stroke-width:0.5;" x1="1245.46" x2="1412.5498" y1="916.2791" y2="916.2791"/></g><!--class GDSF--><g class="entity" data-entity="GDSF" data-source-line="32" data-uid="ent0031" id="entity_GDSF"><rect fill="#FAFAFA" height="68.6445" rx="2.5" ry="2.5" style="stroke:#181818;stroke-width:0.5;" width="128.7305" x="1080.63" y="855.6345"/><ellipse cx="1124.307" cy="871.6345" fill="#FAFAFA" rx="11" ry="11" style="stroke:#181818;stroke-width:1;"/><path d="M1124.4163,867.1658 Q1123.4945,867.1658 1122.7601,867.4783 Q1122.0413,867.7908 1121.5413,868.3845 Q1121.0413,868.9627 1120.7601,869.8377 Q1120.4945,870.7127 1120.4945,871.8064 Q1120.4945,873.2439 1120.932,874.2908 Q1121.3851,875.3377 1122.2288,875.8845 Q1123.0882,876.4314 1124.4007,876.4314 Q1125.182,876.4314 1125.8695,876.3064 Q1126.5726,876.1658 1127.5726,875.8533 L1127.5726,877.7283 Q1126.7132,878.0564 1125.9476,878.1814 Q1125.1976,878.3064 1124.182,878.3064 Q1122.2601,878.3064 1120.9476,877.5095 Q1119.6507,876.697 1118.9945,875.2283 Q1118.3382,873.7439 1118.3382,871.7752 Q1118.3382,870.3533 1118.7288,869.1814 Q1119.1351,867.9939 1119.9163,867.1189 Q1120.6976,866.2439 1121.8382,865.7752 Q1122.9788,865.2908 1124.4476,865.2908 Q1125.4007,865.2908 1126.2913,865.4939 Q1127.1976,865.6814 1128.1351,866.1502 L1127.307,867.9314 Q1126.5257,867.5564 1125.8695,867.3689 Q1125.2132,867.1658 1124.4163,867.1658 Z " fill="#000000"/><text fill="#000000" font-family="Padauk" font-size="14" lengthAdjust="spacing" textLength="33.0039" x="1144.6796" y="875.1209">GDSF</text><line style="stroke:#181818;stroke-width:0.5;" x1="1081.63" x2="1208.3605" y1="887.6345" y2="887.6345"/><text fill="#000000" font-family="Padauk" font-size="14" lengthAdjust="spacing" textLength="116.7305" x="1086.63" y="905.4431">"cost/size min&#8209;heap"</text><line style="stroke:#181818;stroke-width:0.5;" x1="1081.63" x2="1208.3605" y1="916.2791" y2="916.2791"/></g><!--entity array_processing--><g class="entity" data-entity="array_processing" data-source-line="6" data-uid="ent0002" id="entity_array_processing"><ellipse cx="197" cy="170.8145" fill="#FAFAFA" rx="8" ry="8" style="stroke:#181818;stroke-width:0.5;"/><text fill="#000000" font-family="Padauk" font-size="14" lengthAdjust="spacing" textLength="97.8633" x="148.0684" y="201.6231">array_processing</text></g><!--entity hashing--><g class="entity" data-entity="hashing" data-source-line="7" data-uid="ent0003" id="entity_hashing"><ellipse cx="1478" cy="170.8145" fill="#FAFAFA" rx="8" ry="8" style="stroke:#181818;stroke-width:0.5;"/><text fill="#000000" font-family="Padauk" font-size="14" lengthAdjust="spacing" textLength="43.75" x="1456.125" y="201.6231">hashing</text></g><!--entity priority--><g class="entity" data-entity="priority" data-source-line="8" data-uid="ent0004" id="entity_priority"><ellipse cx="365" cy="170.8145" fill="#FAFAFA" rx="8" ry="8" style="stroke:#181818;stroke-width:0.5;"/><text fill="#000000" font-family="Padauk" font-size="14" lengthAdjust="spacing" textLength="39.6621" x="345.1689" y="201.6231">priority</text></g><!--entity sliding_window--><g class="entity" data-entity="sliding_window" data-source-line="9" data-uid="ent0005" id="entity_sliding_window"><ellipse cx="1463" cy="638.6345" fill="#FAFAFA" rx="8" ry="8" style="stroke:#181818;stroke-width:0.5;"/><text fill="#000000" font-family="Padauk" font-size="14" lengthAdjust="spacing" textLength="87.6777" x="1419.1611" y="669.4431">sliding_window</text></g><g class="entity" data-entity="GMN6" data-source-line="11" data-uid="ent0007" id="entity_GMN6"><path d="M111.68,47.6445 L111.68,76.8145 A0,0 0 0 0 111.68,76.8145 L186.92,76.8145 L196.48,161.9645 L194.92,76.8145 L268.3294,76.8145 A0,0 0 0 0 268.3294,76.8145 L268.3294,57.6445 L258.3294,47.6445 L111.68,47.6445 A0,0 0 0 0 111.68,47.6445" fill="#585858" style="stroke:#181818;stroke-width:0.5;"/><path d="M258.3294,47.6445 L258.3294,57.6445 L268.3294,57.6445 L258.3294,47.6445" fill="#585858" style="stroke:#181818;stroke-width:0.5;"/><text fill="#FAFAFA" font-family="Padauk" font-size="13" lengthAdjust="spacing" textLength="135.6494" x="117.68" y="65.4668">"linked&#8209;list, queue, deque"</text></g><g class="entity" data-entity="GMN9" data-source-line="12" data-uid="ent0010" id="entity_GMN9"><path d="M1422.66,47.6445 L1422.66,76.8145 A0,0 0 0 0 1422.66,76.8145 L1474,76.8145 L1478,161.9645 L1482,76.8145 L1533.3397,76.8145 A0,0 0 0 0 1533.3397,76.8145 L1533.3397,57.6445 L1523.3397,47.6445 L1422.66,47.6445 A0,0 0 0 0 1422.66,47.6445" fill="#585858" style="stroke:#181818;stroke-width:0.5;"/><path d="M1523.3397,47.6445 L1523.3397,57.6445 L1533.3397,57.6445 L1523.3397,47.6445" fill="#585858" style="stroke:#181818;stroke-width:0.5;"/><text fill="#FAFAFA" font-family="Padauk" font-size="13" lengthAdjust="spacing" textLength="89.6797" x="1428.66" y="65.4668">hash&#8209;table / map</text></g><g class="entity" data-entity="GMN12" data-source-line="13" data-uid="ent0013" id="entity_GMN12"><path d="M303.69,47.6445 L303.69,76.8145 A0,0 0 0 0 303.69,76.8145 L364.48,76.8145 L365.29,161.9645 L372.48,76.8145 L434.314,76.8145 A0,0 0 0 0 434.314,76.8145 L434.314,57.6445 L424.314,47.6445 L303.69,47.6445 A0,0 0 0 0 303.69,47.6445" fill="#585858" style="stroke:#181818;stroke-width:0.5;"/><path d="M424.314,47.6445 L424.314,57.6445 L434.314,57.6445 L424.314,47.6445" fill="#585858" style="stroke:#181818;stroke-width:0.5;"/><text fill="#FAFAFA" font-family="Padauk" font-size="13" lengthAdjust="spacing" textLength="109.624" x="309.69" y="65.4668">heap / top&#8209;K helpers</text></g><g class="entity" data-entity="GMN15" data-source-line="14" data-uid="ent0016" id="entity_GMN15"><path d="M1386.6,515.4645 L1386.6,544.6345 A0,0 0 0 0 1386.6,544.6345 L1479.86,544.6345 L1464.77,629.7745 L1487.86,544.6345 L1587.391,544.6345 A0,0 0 0 0 1587.391,544.6345 L1587.391,525.4645 L1577.391,515.4645 L1386.6,515.4645 A0,0 0 0 0 1386.6,515.4645" fill="#585858" style="stroke:#181818;stroke-width:0.5;"/><path d="M1577.391,515.4645 L1577.391,525.4645 L1587.391,525.4645 L1577.391,515.4645" fill="#585858" style="stroke:#181818;stroke-width:0.5;"/><text fill="#FAFAFA" font-family="Padauk" font-size="13" lengthAdjust="spacing" textLength="179.791" x="1392.6" y="533.2868">fixed window deque + freq maps</text></g><!--link array_processing to FIFO--><g class="link" data-entity-1="array_processing" data-entity-2="FIFO" data-source-line="50" data-uid="lnk33" id="link_array_processing_FIFO"><path codeLine="50" d="M203.26,179.6745 C213.84,192.5545 236.4,218.3545 260,234.8145 C312.28,271.2745 373.744,298.2161 421.194,316.3161" fill="none" id="array_processing-to-FIFO" style="stroke:#005F7F;stroke-width:1;stroke-dasharray:7.0,7.0;"/><polygon fill="#005F7F" points="426.8,318.4545,419.8166,311.5096,422.1283,316.6725,416.9654,318.9842,426.8,318.4545" style="stroke:#005F7F;stroke-width:1;"/></g><!--link array_processing to CLOCK--><g class="link" data-entity-1="array_processing" data-entity-2="CLOCK" data-source-line="51" data-uid="lnk35" id="link_array_processing_CLOCK"><path codeLine="51" d="M188.16,173.2045 C163.27,177.5645 91.74,193.1645 51,233.8145 C14.97,269.7745 6,288.2345 6,339.1345 C6,339.1345 6,339.1345 6,744.1345 C6,829.7045 283.1926,868.6403 414.5526,882.3803" fill="none" id="array_processing-to-CLOCK" style="stroke:#005F7F;stroke-width:1;stroke-dasharray:7.0,7.0;"/><polygon fill="#005F7F" points="420.52,883.0045,411.985,878.09,415.5471,882.4844,411.1527,886.0466,420.52,883.0045" style="stroke:#005F7F;stroke-width:1;"/></g><!--link array_processing to CLOCK_Pro--><g class="link" data-entity-1="array_processing" data-entity-2="CLOCK_Pro" data-source-line="52" data-uid="lnk37" id="link_array_processing_CLOCK_Pro"><path codeLine="52" d="M188.45,176.9245 C173.22,186.4045 141.22,208.1045 122,233.8145 C91.52,274.5845 77,288.2345 77,339.1345 C77,339.1345 77,339.1345 77,744.1345 C77,771.0345 96.97,774.7645 122,784.6345 C168.22,802.8445 523.97,771.6645 569,792.6345 C596.96,805.6445 616.0252,827.9101 630.6252,850.1301" fill="none" id="array_processing-to-CLOCK_Pro" style="stroke:#005F7F;stroke-width:1;stroke-dasharray:7.0,7.0;"/><polygon fill="#005F7F" points="633.92,855.1445,632.3207,845.4264,631.1743,850.9659,625.6349,849.8194,633.92,855.1445" style="stroke:#005F7F;stroke-width:1;"/></g><!--link array_processing to LRU--><g class="link" data-entity-1="array_processing" data-entity-2="LRU" data-source-line="55" data-uid="lnk39" id="link_array_processing_LRU"><path codeLine="55" d="M205.91,174.6745 C226.13,181.0445 277.16,196.4045 321,203.8145 C424.99,221.3945 697.37,200.5545 794,242.8145 C825.28,256.4945 849.3921,278.9051 868.6221,300.8151" fill="none" id="array_processing-to-LRU" style="stroke:#005F7F;stroke-width:1;stroke-dasharray:7.0,7.0;"/><polygon fill="#005F7F" points="872.58,305.3245,869.6495,295.9218,869.2818,301.5666,863.6369,301.1989,872.58,305.3245" style="stroke:#005F7F;stroke-width:1;"/></g><!--link hashing to LRU--><g class="link" data-entity-1="hashing" data-entity-2="LRU" data-source-line="56" data-uid="lnk41" id="link_hashing_LRU"><path codeLine="56" d="M1469.33,172.4245 C1412.37,176.4945 1091.48,201.0445 1004,242.8145 C973.42,257.4145 949.5097,279.5111 930.1597,301.0511" fill="none" id="hashing-to-LRU" style="stroke:#00BAC6;stroke-width:1;stroke-dasharray:7.0,7.0;"/><polygon fill="#00BAC6" points="926.15,305.5145,935.1401,301.4924,929.4914,301.795,929.1888,296.1462,926.15,305.5145" style="stroke:#00BAC6;stroke-width:1;"/></g><!--link array_processing to MRU--><g class="link" data-entity-1="array_processing" data-entity-2="MRU" data-source-line="57" data-uid="lnk43" id="link_array_processing_MRU"><path codeLine="57" d="M205.96,174.4345 C226.28,180.2945 277.48,194.6945 321,203.8145 C427.2,226.0645 463.22,197.9045 562,242.8145 C594.65,257.6545 621.3038,279.9855 643.0038,301.4455" fill="none" id="array_processing-to-MRU" style="stroke:#005F7F;stroke-width:1;stroke-dasharray:7.0,7.0;"/><polygon fill="#005F7F" points="647.27,305.6645,643.6834,296.4919,643.7149,302.1487,638.0581,302.1802,647.27,305.6645" style="stroke:#005F7F;stroke-width:1;"/></g><!--link hashing to MRU--><g class="link" data-entity-1="hashing" data-entity-2="MRU" data-source-line="58" data-uid="lnk45" id="link_hashing_MRU"><path codeLine="58" d="M1469.4,172.0145 C1399.46,173.7645 923.48,187.6045 793,242.8145 C759.9,256.8245 733.2702,279.4299 711.8802,301.2499" fill="none" id="hashing-to-MRU" style="stroke:#00BAC6;stroke-width:1;stroke-dasharray:7.0,7.0;"/><polygon fill="#00BAC6" points="707.68,305.5345,716.8368,301.9077,711.1802,301.964,711.1239,296.3074,707.68,305.5345" style="stroke:#00BAC6;stroke-width:1;"/></g><!--link array_processing to TwoQ--><g class="link" data-entity-1="array_processing" data-entity-2="TwoQ" data-source-line="59" data-uid="lnk47" id="link_array_processing_TwoQ"><path codeLine="59" d="M192.99,179.5845 C181.29,203.0145 148,275.2745 148,339.1345 C148,339.1345 148,339.1345 148,744.1345 C148,771.0345 167.95,774.8045 193,784.6345 C221.14,795.6645 709.77,779.5045 737,792.6345 C764.08,805.6845 781.9208,827.839 795.4308,850.039" fill="none" id="array_processing-to-TwoQ" style="stroke:#005F7F;stroke-width:1;stroke-dasharray:7.0,7.0;"/><polygon fill="#005F7F" points="798.55,855.1645,797.2882,845.3968,795.9507,850.8933,790.4542,849.5557,798.55,855.1645" style="stroke:#005F7F;stroke-width:1;"/></g><!--link hashing to TwoQ--><g class="link" data-entity-1="hashing" data-entity-2="TwoQ" data-source-line="60" data-uid="lnk49" id="link_hashing_TwoQ"><path codeLine="60" d="M1486.98,173.5645 C1511.44,178.8645 1579.18,197.2645 1606,242.8145 C1644.71,308.5545 1652.52,353.9945 1606,414.4645 C1531.98,510.6645 1457.59,447.3945 1342,484.4645 C1304.9,496.3545 1294.09,496.5945 1260,515.4645 C1081.78,614.0945 1041.7,651.3145 895,792.6345 C875.06,811.8345 858.9573,831.1503 844.1973,850.4303" fill="none" id="hashing-to-TwoQ" style="stroke:#00BAC6;stroke-width:1;stroke-dasharray:7.0,7.0;"/><polygon fill="#00BAC6" points="840.55,855.1945,849.197,850.4798,843.5894,851.2244,842.8448,845.6167,840.55,855.1945" style="stroke:#00BAC6;stroke-width:1;"/></g><!--link array_processing to ARC--><g class="link" data-entity-1="array_processing" data-entity-2="ARC" data-source-line="61" data-uid="lnk51" id="link_array_processing_ARC"><path codeLine="61" d="M205.9,174.7545 C226.09,181.2845 277.07,196.9645 321,203.8145 C471.43,227.2845 867.5,177.4545 1005,242.8145 C1033.44,256.3345 1053.4867,278.6579 1069.0267,300.7379" fill="none" id="array_processing-to-ARC" style="stroke:#005F7F;stroke-width:1;stroke-dasharray:7.0,7.0;"/><polygon fill="#005F7F" points="1072.48,305.6445,1070.5711,295.9824,1069.6023,301.5557,1064.029,300.5868,1072.48,305.6445" style="stroke:#005F7F;stroke-width:1;"/></g><!--link hashing to ARC--><g class="link" data-entity-1="hashing" data-entity-2="ARC" data-source-line="62" data-uid="lnk53" id="link_hashing_ARC"><path codeLine="62" d="M1469.08,172.1045 C1431.48,173.6645 1283.21,183.4945 1182,242.8145 C1155.48,258.3545 1135.8251,279.5287 1119.7251,300.5787" fill="none" id="hashing-to-ARC" style="stroke:#00BAC6;stroke-width:1;stroke-dasharray:7.0,7.0;"/><polygon fill="#00BAC6" points="1116.08,305.3445,1124.7249,300.6259,1119.1176,301.373,1118.3705,295.7657,1116.08,305.3445" style="stroke:#00BAC6;stroke-width:1;"/></g><!--link array_processing to LIRS--><g class="link" data-entity-1="array_processing" data-entity-2="LIRS" data-source-line="63" data-uid="lnk55" id="link_array_processing_LIRS"><path codeLine="63" d="M198.18,179.5945 C202.75,210.3245 219,326.3645 219,422.4645 C219,422.4645 219,422.4645 219,744.1345 C219,819.4345 827.61,759.0245 895,792.6345 C922.4,806.2945 941.3266,828.2324 956.0366,850.1524" fill="none" id="array_processing-to-LIRS" style="stroke:#005F7F;stroke-width:1;stroke-dasharray:7.0,7.0;"/><polygon fill="#005F7F" points="959.38,855.1345,957.6863,845.4324,956.5938,850.9827,951.0435,849.8903,959.38,855.1345" style="stroke:#005F7F;stroke-width:1;"/></g><!--link hashing to LIRS--><g class="link" data-entity-1="hashing" data-entity-2="LIRS" data-source-line="64" data-uid="lnk57" id="link_hashing_LIRS"><path codeLine="64" d="M1486.85,171.4345 C1518.21,170.6245 1624.52,172.6145 1669,233.8145 C1718.55,301.9945 1722.62,358.4245 1669,423.4645 C1560.93,554.5445 1429.64,408.0745 1298,515.4645 C1257.39,548.5945 1255.45,565.2845 1222,605.6345 C1156.47,684.6645 1153.24,717.0045 1076,784.6345 C1070.9,789.0945 1068.18,788.2445 1063,792.6345 C1040.99,811.2745 1023.408,831.1212 1007.758,850.7712" fill="none" id="hashing-to-LIRS" style="stroke:#00BAC6;stroke-width:1;stroke-dasharray:7.0,7.0;"/><polygon fill="#00BAC6" points="1004.02,855.4645,1012.7559,850.9165,1007.135,851.5534,1006.498,845.9325,1004.02,855.4645" style="stroke:#00BAC6;stroke-width:1;"/></g><!--link hashing to LFU--><g class="link" data-entity-1="hashing" data-entity-2="LFU" data-source-line="67" data-uid="lnk59" id="link_hashing_LFU"><path codeLine="67" d="M1469.19,177.9545 C1452.23,189.8845 1414.08,217.2545 1384,242.8145 C1360.55,262.7445 1339.7847,282.3942 1320.5047,301.3842" fill="none" id="hashing-to-LFU" style="stroke:#00BAC6;stroke-width:1;stroke-dasharray:7.0,7.0;"/><polygon fill="#00BAC6" points="1316.23,305.5945,1325.4489,302.1288,1319.7922,302.0859,1319.8351,296.4292,1316.23,305.5945" style="stroke:#00BAC6;stroke-width:1;"/></g><!--link priority to LFU--><g class="link" data-entity-1="priority" data-entity-2="LFU" data-source-line="68" data-uid="lnk61" id="link_priority_LFU"><path codeLine="68" d="M373.76,171.7845 C451.73,171.6345 1027.27,172.9345 1182,242.8145 C1212.47,256.5745 1235.5806,278.9006 1253.9706,300.7906" fill="none" id="priority-to-LFU" style="stroke:#CBDB2A;stroke-width:1;stroke-dasharray:7.0,7.0;"/><polygon fill="#CBDB2A" points="1257.83,305.3845,1255.1035,295.9206,1254.6138,301.5562,1248.9782,301.0665,1257.83,305.3845" style="stroke:#CBDB2A;stroke-width:1;"/></g><!--link hashing to TinyLFU--><g class="link" data-entity-1="hashing" data-entity-2="TinyLFU" data-source-line="69" data-uid="lnk63" id="link_hashing_TinyLFU"><path codeLine="69" d="M1486.9,172.0145 C1535.46,173.2845 1767.97,182.0345 1811,233.8145 C1862.31,295.5645 1856.26,348.1445 1811,414.4645 C1684.93,599.1745 1334,350.9945 1334,574.6345 C1334,574.6345 1334,574.6345 1334,744.1345 C1334,782.2445 1332.542,819.9716 1331.112,849.3216" fill="none" id="hashing-to-TinyLFU" style="stroke:#00BAC6;stroke-width:1;stroke-dasharray:7.0,7.0;"/><polygon fill="#00BAC6" points="1330.82,855.3145,1335.2532,846.5199,1331.0633,850.3205,1327.2627,846.1305,1330.82,855.3145" style="stroke:#00BAC6;stroke-width:1;"/></g><!--link priority to TinyLFU--><g class="link" data-entity-1="priority" data-entity-2="TinyLFU" data-source-line="70" data-uid="lnk65" id="link_priority_TinyLFU"><path codeLine="70" d="M364.12,179.5445 C360.86,212.0445 352.48,339.3845 411,414.4645 C656.73,729.7245 896.06,568.4545 1227,792.6345 C1253.42,810.5245 1275.3527,830.9982 1294.5327,850.9582" fill="none" id="priority-to-TinyLFU" style="stroke:#CBDB2A;stroke-width:1;stroke-dasharray:7.0,7.0;"/><polygon fill="#CBDB2A" points="1298.69,855.2845,1295.3383,846.0235,1295.2256,851.6793,1289.5699,851.5665,1298.69,855.2845" style="stroke:#CBDB2A;stroke-width:1;"/></g><!--link hashing to GDSF--><g class="link" data-entity-1="hashing" data-entity-2="GDSF" data-source-line="71" data-uid="lnk67" id="link_hashing_GDSF"><path codeLine="71" d="M1486.88,172.4845 C1528.92,175.8645 1707.31,192.4845 1740,233.8145 C1789.81,296.7845 1779.56,344.5945 1740,414.4645 C1647.32,578.1445 1450.46,371.8245 1329,515.4645 C1237.28,623.9145 1179.8179,780.2194 1157.1979,849.6794" fill="none" id="hashing-to-GDSF" style="stroke:#00BAC6;stroke-width:1;stroke-dasharray:7.0,7.0;"/><polygon fill="#00BAC6" points="1155.34,855.3845,1161.9302,848.0655,1156.8882,850.6303,1154.3234,845.5883,1155.34,855.3845" style="stroke:#00BAC6;stroke-width:1;"/></g><!--link priority to GDSF--><g class="link" data-entity-1="priority" data-entity-2="GDSF" data-source-line="72" data-uid="lnk69" id="link_priority_GDSF"><path codeLine="72" d="M360.75,179.7745 C344.89,210.2745 290,322.9845 290,422.4645 C290,422.4645 290,422.4645 290,575.6345 C290,932.4645 762.5,600.1845 1063,792.6345 C1087.97,808.6145 1105.9636,829.6231 1120.6436,850.5431" fill="none" id="priority-to-GDSF" style="stroke:#CBDB2A;stroke-width:1;stroke-dasharray:7.0,7.0;"/><polygon fill="#CBDB2A" points="1124.09,855.4545,1122.1946,845.7898,1121.218,851.3617,1115.6461,850.385,1124.09,855.4545" style="stroke:#CBDB2A;stroke-width:1;"/></g><!--link hashing to RandomReplace--><g class="link" data-entity-1="hashing" data-entity-2="RandomReplace" data-source-line="75" data-uid="lnk71" id="link_hashing_RandomReplace"><path codeLine="75" d="M1478,179.4445 C1478,201.3645 1478,259.5845 1478,299.5945" fill="none" id="hashing-to-RandomReplace" style="stroke:#00BAC6;stroke-width:1;stroke-dasharray:7.0,7.0;"/><polygon fill="#00BAC6" points="1478,305.5945,1482,296.5945,1478,300.5945,1474,296.5945,1478,305.5945" style="stroke:#00BAC6;stroke-width:1;"/></g><!--link sliding_window to TinyLFU--><g class="link" data-entity-1="sliding_window" data-entity-2="TinyLFU" data-source-line="78" data-uid="lnk73" id="link_sliding_window_TinyLFU"><path codeLine="78" d="M1458.84,647.3645 C1442.06,678.5945 1381.5005,791.2595 1349.9305,849.9995" fill="none" id="sliding_window-to-TinyLFU" style="stroke:#444444;stroke-width:1;stroke-dasharray:7.0,7.0;"/><polygon fill="#444444" points="1347.09,855.2845,1354.8741,849.2506,1349.4571,850.8803,1347.8273,845.4633,1347.09,855.2845" style="stroke:#444444;stroke-width:1;"/><text fill="#000000" font-family="Padauk" font-size="13" lengthAdjust="spacing" textLength="98.3887" x="1413.59" y="746.4568">admission window</text></g><!--link CLASSIC to MODERN--><!--SRC=[bLR1RkCs4BthAwOwD1jqOw4z1i42Xc8tnafn8gVeOR48Q6fa4P58BKbjwXO5zjHx5_k5-P8EPLcHl0hYwaHHRnvdviqCzOEGlAXJh7K1kRMLEGy2pHud6s7pUbqRr5n9Yz9Ek2g3IglFgCuu2qHAUy9k0usP2N9agGbA9cGBcOYwB3oF40L2o7YEOAnc5ZS23LoSlGDMR9IcGqhZUMzEWMdDjlTapD4O8JTkBsScRvUL5WwzTMjJY9Isxn-5JDMZvqbb4QogG6NVqS0v-8MG3vW-VVct4CQ-XKyrrlWMKgI5Fp1kpuFkEM-soDAoDSKHGCcgWSNUhRu5iegG122xz_HQLAZDm6eOG6ELYJymXNQZSGr-WapZ9tSaPIWu0GYduTKCajbDD0rdyUpw3cwMqI9Sp5O0Pwy-S19uNgPPYU271QFiy5QOLIUC3yn064rNgqK8Vta0t05XlfWlkvSe-QrRnxtrD0cVCVFd_OHHJ6M2LS4uUd_lNOXLYbgEUn0lBsV9TS-1C5g6xuTlzpTQTJjtZ-hs-V15idh-8kIsxyslbwivEU6vaA0ljAz94L9iNMSPwbsH-1u52qFOPHIHCbTK5Z7f_4OZHyctfxuNlmOjbR5qG6DXoO0ITc3mYqkk8PjDJbWmQ0svC3_aTOomhla3VITmAIJHkhBplK6o6t0jHQPq2Rhv0fy5jwBqlIQ70rQ3rEYkItZE91cxVBGub-iELzQ55GvMAFu0kR81LqNgUqw3eP_Jdmac9Fm8qxA9Z88XROOWOndHh2YE9kLmIqmxpNgWC2OcG_7od81jbn2ZxpazXuISKXSOyISE4kCQgEk4TX9juUcVhv2HzoHuYXLAccdSpITukOLEdhvyWzl6rG2IGSsicS6qNraNam_XCbecz_5qSVsnhYRVJxcU3iUYTseSWTxv6j7GewIv4cmSx6eMb8PykzOYFUtN-H74O-XfTDU0zpCx_b-CyH6ClG8xWd4CVSZOwy0Z6CVGXuoz-ZucZoFeGyQTY7FjhWGdMW1Nk9UoFnjUTcaC4uPqVJImxcBjTTtB4enXHhXwNVaYroXcX6kNWDrWQyAcwnmF1jqhsTkxpGgZW7vf330m9IiA-BqP9TJ2xbRRmoucH34vlALfjB2q5AISakq8eh6olopFFkGYfV7naRPbCopUjTVOVm00]--></g></svg>