<svg xmlns="http://www.w3.org/2000/svg" xmlns:xlink="http://www.w3.org/1999/xlink" contentStyleType="text/css" data-diagram-type="CLASS" height="561px" preserveAspectRatio="none" style="width:1201px;height:561px;background:#FAFAFA;" version="1.1" viewBox="0 0 1201 561" width="1201px" zoomAndPan="magnify"><title>Array Based Algorithms</title><defs/><g><rect fill="#FAFAFA" height="561" style="stroke:none;stroke-width:1;" width="1201" x="0" y="0"/><g class="title" data-source-line="4"><text fill="#000000" font-family="Padauk" font-size="14" font-weight="bold" lengthAdjust="spacing" textLength="187.4893" x="500.1501" y="22.9951">Array Based Algorithms</text></g><!--cluster Data Types--><g class="cluster" data-entity="Data Types" data-source-line="8" data-uid="ent0002" id="cluster_Data Types"><rect fill="#FAFAFA" height="99" rx="2.5" ry="2.5" style="stroke:#005F7F;stroke-width:1;" width="615" x="227.52" y="44.2969"/><path d="M326.1274,44.2969 L326.1274,53.5938 L316.1274,63.5938 L227.52,63.5938" fill="none" style="stroke:#005F7F;stroke-width:1;"/><text fill="#000000" font-family="Padauk" font-size="14" font-weight="bold" lengthAdjust="spacing" textLength="88.6074" x="230.52" y="58.292">Data Types</text></g><!--cluster Array Based Algorithms--><g class="cluster" data-entity="Array Based Algorithms" data-source-line="18" data-uid="ent0009" id="cluster_Array Based Algorithms"><rect fill="#FAFAFA" height="379" rx="2.5" ry="2.5" style="stroke:#005F7F;stroke-width:1;" width="611" x="298.52" y="176.2969"/><path d="M496.0093,176.2969 L496.0093,185.5938 L486.0093,195.5938 L298.52,195.5938" fill="none" style="stroke:#005F7F;stroke-width:1;"/><text fill="#000000" font-family="Padauk" font-size="14" font-weight="bold" lengthAdjust="spacing" textLength="187.4893" x="301.52" y="190.292">Array Based Algorithms</text></g><!--class Array--><g class="entity" data-entity="Array" data-source-line="9" data-uid="ent0003" id="entity_Array"><rect fill="#FAFAFA" height="48" rx="2.5" ry="2.5" style="stroke:#181818;stroke-width:0.5;" width="69.9531" x="445.55" y="79.2969"/><ellipse cx="460.55" cy="95.2969" fill="#FAFAFA" rx="11" ry="11" style="stroke:#181818;stroke-width:1;"/><path d="M463.5188,100.9375 Q462.9406,101.2344 462.3,101.375 Q461.6594,101.5313 460.9563,101.5313 Q458.4563,101.5313 457.1281,99.8906 Q455.8156,98.2344 455.8156,95.1094 Q455.8156,91.9844 457.1281,90.3281 Q458.4563,88.6719 460.9563,88.6719 Q461.6594,88.6719 462.3,88.8281 Q462.9563,88.9844 463.5188,89.2813 L463.5188,92 Q462.8938,91.4219 462.3,91.1563 Q461.7063,90.875 461.0813,90.875 Q459.7375,90.875 459.05,91.9531 Q458.3625,93.0156 458.3625,95.1094 Q458.3625,97.2031 459.05,98.2813 Q459.7375,99.3438 461.0813,99.3438 Q461.7063,99.3438 462.3,99.0781 Q462.8938,98.7969 463.5188,98.2188 L463.5188,100.9375 Z " fill="#000000"/><text fill="#000000" font-family="Padauk" font-size="14" lengthAdjust="spacing" textLength="37.9531" x="474.55" y="100.1436">Array</text><line style="stroke:#181818;stroke-width:0.5;" x1="446.55" x2="514.5031" y1="111.2969" y2="111.2969"/><line style="stroke:#181818;stroke-width:0.5;" x1="446.55" x2="514.5031" y1="119.2969" y2="119.2969"/></g><!--class String--><g class="entity" data-entity="String" data-source-line="10" data-uid="ent0004" id="entity_String"><rect fill="#FAFAFA" height="48" rx="2.5" ry="2.5" style="stroke:#181818;stroke-width:0.5;" width="73.7813" x="550.63" y="79.2969"/><ellipse cx="565.63" cy="95.2969" fill="#FAFAFA" rx="11" ry="11" style="stroke:#181818;stroke-width:1;"/><path d="M568.5988,100.9375 Q568.0206,101.2344 567.38,101.375 Q566.7394,101.5313 566.0363,101.5313 Q563.5363,101.5313 562.2081,99.8906 Q560.8956,98.2344 560.8956,95.1094 Q560.8956,91.9844 562.2081,90.3281 Q563.5363,88.6719 566.0363,88.6719 Q566.7394,88.6719 567.38,88.8281 Q568.0363,88.9844 568.5988,89.2813 L568.5988,92 Q567.9738,91.4219 567.38,91.1563 Q566.7863,90.875 566.1613,90.875 Q564.8175,90.875 564.13,91.9531 Q563.4425,93.0156 563.4425,95.1094 Q563.4425,97.2031 564.13,98.2813 Q564.8175,99.3438 566.1613,99.3438 Q566.7863,99.3438 567.38,99.0781 Q567.9738,98.7969 568.5988,98.2188 L568.5988,100.9375 Z " fill="#000000"/><text fill="#000000" font-family="Padauk" font-size="14" lengthAdjust="spacing" textLength="41.7813" x="579.63" y="100.1436">String</text><line style="stroke:#181818;stroke-width:0.5;" x1="551.63" x2="623.4113" y1="111.2969" y2="111.2969"/><line style="stroke:#181818;stroke-width:0.5;" x1="551.63" x2="623.4113" y1="119.2969" y2="119.2969"/></g><!--class Stack--><g class="entity" data-entity="Stack" data-source-line="11" data-uid="ent0005" id="entity_Stack"><rect fill="#FAFAFA" height="48" rx="2.5" ry="2.5" style="stroke:#181818;stroke-width:0.5;" width="70.7598" x="340.14" y="79.2969"/><ellipse cx="355.14" cy="95.2969" fill="#FAFAFA" rx="11" ry="11" style="stroke:#181818;stroke-width:1;"/><path d="M358.1088,100.9375 Q357.5306,101.2344 356.89,101.375 Q356.2494,101.5313 355.5463,101.5313 Q353.0463,101.5313 351.7181,99.8906 Q350.4056,98.2344 350.4056,95.1094 Q350.4056,91.9844 351.7181,90.3281 Q353.0463,88.6719 355.5463,88.6719 Q356.2494,88.6719 356.89,88.8281 Q357.5463,88.9844 358.1088,89.2813 L358.1088,92 Q357.4838,91.4219 356.89,91.1563 Q356.2963,90.875 355.6713,90.875 Q354.3275,90.875 353.64,91.9531 Q352.9525,93.0156 352.9525,95.1094 Q352.9525,97.2031 353.64,98.2813 Q354.3275,99.3438 355.6713,99.3438 Q356.2963,99.3438 356.89,99.0781 Q357.4838,98.7969 358.1088,98.2188 L358.1088,100.9375 Z " fill="#000000"/><text fill="#000000" font-family="Padauk" font-size="14" lengthAdjust="spacing" textLength="38.7598" x="369.14" y="100.1436">Stack</text><line style="stroke:#181818;stroke-width:0.5;" x1="341.14" x2="409.8998" y1="111.2969" y2="111.2969"/><line style="stroke:#181818;stroke-width:0.5;" x1="341.14" x2="409.8998" y1="119.2969" y2="119.2969"/></g><!--class Deque--><g class="entity" data-entity="Deque" data-source-line="12" data-uid="ent0006" id="entity_Deque"><rect fill="#FAFAFA" height="48" rx="2.5" ry="2.5" style="stroke:#181818;stroke-width:0.5;" width="77.7666" x="659.64" y="79.2969"/><ellipse cx="674.64" cy="95.2969" fill="#FAFAFA" rx="11" ry="11" style="stroke:#181818;stroke-width:1;"/><path d="M677.6088,100.9375 Q677.0306,101.2344 676.39,101.375 Q675.7494,101.5313 675.0463,101.5313 Q672.5463,101.5313 671.2181,99.8906 Q669.9056,98.2344 669.9056,95.1094 Q669.9056,91.9844 671.2181,90.3281 Q672.5463,88.6719 675.0463,88.6719 Q675.7494,88.6719 676.39,88.8281 Q677.0463,88.9844 677.6088,89.2813 L677.6088,92 Q676.9838,91.4219 676.39,91.1563 Q675.7963,90.875 675.1713,90.875 Q673.8275,90.875 673.14,91.9531 Q672.4525,93.0156 672.4525,95.1094 Q672.4525,97.2031 673.14,98.2813 Q673.8275,99.3438 675.1713,99.3438 Q675.7963,99.3438 676.39,99.0781 Q676.9838,98.7969 677.6088,98.2188 L677.6088,100.9375 Z " fill="#000000"/><text fill="#000000" font-family="Padauk" font-size="14" lengthAdjust="spacing" textLength="45.7666" x="688.64" y="100.1436">Deque</text><line style="stroke:#181818;stroke-width:0.5;" x1="660.64" x2="736.4066" y1="111.2969" y2="111.2969"/><line style="stroke:#181818;stroke-width:0.5;" x1="660.64" x2="736.4066" y1="119.2969" y2="119.2969"/></g><!--class Map--><g class="entity" data-entity="Map" data-source-line="13" data-uid="ent0007" id="entity_Map"><rect fill="#FAFAFA" height="48" rx="2.5" ry="2.5" style="stroke:#181818;stroke-width:0.5;" width="61.5449" x="243.75" y="79.2969"/><ellipse cx="258.75" cy="95.2969" fill="#FAFAFA" rx="11" ry="11" style="stroke:#181818;stroke-width:1;"/><path d="M261.7188,100.9375 Q261.1406,101.2344 260.5,101.375 Q259.8594,101.5313 259.1563,101.5313 Q256.6563,101.5313 255.3281,99.8906 Q254.0156,98.2344 254.0156,95.1094 Q254.0156,91.9844 255.3281,90.3281 Q256.6563,88.6719 259.1563,88.6719 Q259.8594,88.6719 260.5,88.8281 Q261.1563,88.9844 261.7188,89.2813 L261.7188,92 Q261.0938,91.4219 260.5,91.1563 Q259.9063,90.875 259.2813,90.875 Q257.9375,90.875 257.25,91.9531 Q256.5625,93.0156 256.5625,95.1094 Q256.5625,97.2031 257.25,98.2813 Q257.9375,99.3438 259.2813,99.3438 Q259.9063,99.3438 260.5,99.0781 Q261.0938,98.7969 261.7188,98.2188 L261.7188,100.9375 Z " fill="#000000"/><text fill="#000000" font-family="Padauk" font-size="14" lengthAdjust="spacing" textLength="29.5449" x="272.75" y="100.1436">Map</text><line style="stroke:#181818;stroke-width:0.5;" x1="244.75" x2="304.2949" y1="111.2969" y2="111.2969"/><line style="stroke:#181818;stroke-width:0.5;" x1="244.75" x2="304.2949" y1="119.2969" y2="119.2969"/></g><!--class Set--><g class="entity" data-entity="Set" data-source-line="14" data-uid="ent0008" id="entity_Set"><rect fill="#FAFAFA" height="48" rx="2.5" ry="2.5" style="stroke:#181818;stroke-width:0.5;" width="54.9893" x="772.03" y="79.2969"/><ellipse cx="787.03" cy="95.2969" fill="#FAFAFA" rx="11" ry="11" style="stroke:#181818;stroke-width:1;"/><path d="M789.9988,100.9375 Q789.4206,101.2344 788.78,101.375 Q788.1394,101.5313 787.4363,101.5313 Q784.9363,101.5313 783.6081,99.8906 Q782.2956,98.2344 782.2956,95.1094 Q782.2956,91.9844 783.6081,90.3281 Q784.9363,88.6719 787.4363,88.6719 Q788.1394,88.6719 788.78,88.8281 Q789.4363,88.9844 789.9988,89.2813 L789.9988,92 Q789.3738,91.4219 788.78,91.1563 Q788.1863,90.875 787.5613,90.875 Q786.2175,90.875 785.53,91.9531 Q784.8425,93.0156 784.8425,95.1094 Q784.8425,97.2031 785.53,98.2813 Q786.2175,99.3438 787.5613,99.3438 Q788.1863,99.3438 788.78,99.0781 Q789.3738,98.7969 789.9988,98.2188 L789.9988,100.9375 Z " fill="#000000"/><text fill="#000000" font-family="Padauk" font-size="14" lengthAdjust="spacing" textLength="22.9893" x="801.03" y="100.1436">Set</text><line style="stroke:#181818;stroke-width:0.5;" x1="773.03" x2="826.0193" y1="111.2969" y2="111.2969"/><line style="stroke:#181818;stroke-width:0.5;" x1="773.03" x2="826.0193" y1="119.2969" y2="119.2969"/></g><!--entity array_processing--><g class="entity" data-entity="array_processing" data-source-line="19" data-uid="ent0010" id="entity_array_processing"><ellipse cx="658.52" cy="240.2969" fill="#FAFAFA" rx="8" ry="8" style="stroke:#181818;stroke-width:0.5;"/><text fill="#000000" font-family="Padauk" font-size="14" lengthAdjust="spacing" textLength="141.1758" x="587.9321" y="270.292">&lt;Array Processing&gt;</text></g><!--entity backtracking--><g class="entity" data-entity="backtracking" data-source-line="20" data-uid="ent0011" id="entity_backtracking"><ellipse cx="480.52" cy="240.2969" fill="#FAFAFA" rx="8" ry="8" style="stroke:#181818;stroke-width:0.5;"/><text fill="#000000" font-family="Padauk" font-size="14" lengthAdjust="spacing" textLength="114.7275" x="423.1562" y="270.292">&lt;Backtracking&gt;</text></g><!--entity sliding_window--><g class="entity" data-entity="sliding_window" data-source-line="21" data-uid="ent0012" id="entity_sliding_window"><ellipse cx="684.52" cy="510.2969" fill="#FAFAFA" rx="8" ry="8" style="stroke:#181818;stroke-width:0.5;"/><text fill="#000000" font-family="Padauk" font-size="14" lengthAdjust="spacing" textLength="130.6211" x="619.2095" y="540.292">&lt;Sliding Window&gt;</text></g><!--entity string_processing--><g class="entity" data-entity="string_processing" data-source-line="22" data-uid="ent0013" id="entity_string_processing"><ellipse cx="394.52" cy="375.2969" fill="#FAFAFA" rx="8" ry="8" style="stroke:#181818;stroke-width:0.5;"/><text fill="#000000" font-family="Padauk" font-size="14" lengthAdjust="spacing" textLength="145.0039" x="322.018" y="405.292">&lt;String Processing&gt;</text></g><!--entity two_pointer--><g class="entity" data-entity="two_pointer" data-source-line="23" data-uid="ent0014" id="entity_two_pointer"><ellipse cx="832.52" cy="240.2969" fill="#FAFAFA" rx="8" ry="8" style="stroke:#181818;stroke-width:0.5;"/><text fill="#000000" font-family="Padauk" font-size="14" lengthAdjust="spacing" textLength="106.1074" x="779.4663" y="270.292">&lt;Two Pointer&gt;</text></g><!--entity two_pointer_greedy--><g class="entity" data-entity="two_pointer_greedy" data-source-line="24" data-uid="ent0015" id="entity_two_pointer_greedy"><ellipse cx="597.52" cy="375.2969" fill="#FAFAFA" rx="8" ry="8" style="stroke:#181818;stroke-width:0.5;"/><text fill="#000000" font-family="Padauk" font-size="14" lengthAdjust="spacing" textLength="161.5605" x="516.7397" y="405.292">&lt;Two Pointer Greedy&gt;</text></g><!--link Array to array_processing--><g class="link" data-entity-1="Array" data-entity-2="array_processing" data-source-line="28" data-uid="lnk17" id="link_Array_array_processing"><path codeLine="28" d="M504.7,127.6569 C513.45,135.5869 523.62,144.2169 533.52,151.2969 C545.99,160.2069 550.69,159.9169 563.52,168.2969 C596.45,189.8069 628.4475,214.9829 644.9575,228.2829" fill="none" id="Array-to-array_processing" style="stroke:#444444;stroke-width:1;"/><polygon fill="#444444" points="649.63,232.0469,645.1306,223.2858,645.7363,228.9102,640.1119,229.5158,649.63,232.0469" style="stroke:#444444;stroke-width:1;"/></g><!--link Array to backtracking--><g class="link" data-entity-1="Array" data-entity-2="backtracking" data-source-line="29" data-uid="lnk19" id="link_Array_backtracking"><path codeLine="29" d="M480.52,127.5069 C480.52,158.4169 480.52,205.5069 480.52,225.4369" fill="none" id="Array-to-backtracking" style="stroke:#444444;stroke-width:1;"/><polygon fill="#444444" points="480.52,231.4369,484.52,222.4369,480.52,226.4369,476.52,222.4369,480.52,231.4369" style="stroke:#444444;stroke-width:1;"/></g><!--link Array to two_pointer--><g class="link" data-entity-1="Array" data-entity-2="two_pointer" data-source-line="30" data-uid="lnk21" id="link_Array_two_pointer"><path codeLine="30" d="M500.42,127.5669 C509.53,136.5969 521.07,146.0169 533.52,151.2969 C556.2,160.9169 731.91,158.5369 754.52,168.2969 C787.14,182.3769 811.4921,211.1103 823.1321,226.5103" fill="none" id="Array-to-two_pointer" style="stroke:#444444;stroke-width:1;"/><polygon fill="#444444" points="826.75,231.2969,824.5142,221.7051,823.7351,227.3081,818.1322,226.529,826.75,231.2969" style="stroke:#444444;stroke-width:1;"/></g><!--link Array to string_processing--><g class="link" data-entity-1="Array" data-entity-2="string_processing" data-source-line="31" data-uid="lnk23" id="link_Array_string_processing"><path codeLine="31" d="M456.86,127.6869 C448.28,135.6169 438.29,144.2469 428.52,151.2969 C416.1,160.2669 406.37,155.1269 398.52,168.2969 C358.61,235.2869 382.104,331.8028 390.454,360.6928" fill="none" id="Array-to-string_processing" style="stroke:#444444;stroke-width:1;"/><polygon fill="#444444" points="392.12,366.4569,393.4638,356.7001,390.7317,361.6535,385.7783,358.9214,392.12,366.4569" style="stroke:#444444;stroke-width:1;"/></g><!--link Map to string_processing--><g class="link" data-entity-1="Map" data-entity-2="string_processing" data-source-line="32" data-uid="lnk25" id="link_Map_string_processing"><path codeLine="32" d="M243.48,114.7669 C219.88,124.5569 189.07,141.7169 174.52,168.2969 C152.97,207.6769 158.03,227.5469 174.52,269.2969 C209.04,356.6769 343.1427,371.076 379.7527,373.466" fill="none" id="Map-to-string_processing" style="stroke:#444444;stroke-width:1;stroke-dasharray:7,7;"/><polygon fill="#444444" points="385.74,373.8569,377.0197,369.2791,380.7506,373.5312,376.4985,377.2621,385.74,373.8569" style="stroke:#444444;stroke-width:1;"/></g><!--link Stack to string_processing--><g class="link" data-entity-1="Stack" data-entity-2="string_processing" data-source-line="33" data-uid="lnk27" id="link_Stack_string_processing"><path codeLine="33" d="M354.95,127.6669 C345.89,136.4869 334.58,145.7269 322.52,151.2969 C298.08,162.5969 220.18,147.9569 202.52,168.2969 C173.09,202.1869 179.63,230.6869 202.52,269.2969 C244.76,340.5369 348.4013,365.4367 379.9913,371.6067" fill="none" id="Stack-to-string_processing" style="stroke:#444444;stroke-width:1;stroke-dasharray:7,7;"/><polygon fill="#444444" points="385.88,372.7569,377.8137,367.1058,380.9727,371.7984,376.2801,374.9575,385.88,372.7569" style="stroke:#444444;stroke-width:1;"/><text fill="#000000" font-family="Padauk" font-size="13" lengthAdjust="spacing" textLength="132.4121" x="203.52" y="244.8638">parentheses decode</text></g><!--link Set to sliding_window--><g class="link" data-entity-1="Set" data-entity-2="sliding_window" data-source-line="34" data-uid="lnk29" id="link_Set_sliding_window"><path codeLine="34" d="M827.25,111.7569 C903.65,133.8769 1108.35,204.6369 1059.52,316.2969 C1024.11,397.2669 991.2,409.1469 913.52,451.2969 C835.3,493.7469 731.1281,505.3947 699.3781,508.1147" fill="none" id="Set-to-sliding_window" style="stroke:#444444;stroke-width:1;stroke-dasharray:7,7;"/><polygon fill="#444444" points="693.4,508.6269,702.7086,511.8441,698.3818,508.2001,702.0257,503.8733,693.4,508.6269" style="stroke:#444444;stroke-width:1;"/><text fill="#000000" font-family="Padauk" font-size="13" lengthAdjust="spacing" textLength="128.0195" x="1065.77" y="312.3638">unique&#8209;char variant</text></g><!--link Stack to backtracking--><g class="link" data-entity-1="Stack" data-entity-2="backtracking" data-source-line="35" data-uid="lnk31" id="link_Stack_backtracking"><path codeLine="35" d="M393.57,127.5069 C417.61,158.4169 455.2265,206.7706 470.7265,226.7006" fill="none" id="Stack-to-backtracking" style="stroke:#444444;stroke-width:2;"/><polygon fill="#444444" points="474.41,231.4369,472.0423,221.8769,471.3404,227.49,465.7273,226.7882,474.41,231.4369" style="stroke:#444444;stroke-width:2;"/></g><!--link Deque to sliding_window--><g class="link" data-entity-1="Deque" data-entity-2="sliding_window" data-source-line="36" data-uid="lnk33" id="link_Deque_sliding_window"><path codeLine="36" d="M720.12,127.6269 C729.75,136.5469 741.8,145.8669 754.52,151.2969 C786.8,165.0569 887.15,143.0569 911.52,168.2969 C948.01,206.0769 953.27,360.3369 924.52,404.2969 C869.26,488.7969 735.3395,505.2112 699.1495,508.2112" fill="none" id="Deque-to-sliding_window" style="stroke:#444444;stroke-width:1;stroke-dasharray:7,7;"/><polygon fill="#444444" points="693.17,508.7069,702.4697,511.9497,698.1529,508.2938,701.8088,503.977,693.17,508.7069" style="stroke:#444444;stroke-width:1;"/><text fill="#000000" font-family="Padauk" font-size="13" lengthAdjust="spacing" textLength="110.6714" x="943.96" y="312.3638">window max/min</text></g><!--link Map to sliding_window--><g class="link" data-entity-1="Map" data-entity-2="sliding_window" data-source-line="37" data-uid="lnk35" id="link_Map_sliding_window"><path codeLine="37" d="M243.43,116.8069 C171.85,147.4369 6,230.0569 65.52,316.2969 C141.14,425.8469 599.3935,496.836 669.6735,507.146" fill="none" id="Map-to-sliding_window" style="stroke:#444444;stroke-width:1;stroke-dasharray:7,7;"/><polygon fill="#444444" points="675.61,508.0169,667.2859,502.7529,670.6629,507.2911,666.1247,510.6682,675.61,508.0169" style="stroke:#444444;stroke-width:1;"/><text fill="#000000" font-family="Padauk" font-size="13" lengthAdjust="spacing" textLength="117.5903" x="66.52" y="312.3638">freq-count variant</text></g><!--link String to two_pointer--><g class="link" data-entity-1="String" data-entity-2="two_pointer" data-source-line="38" data-uid="lnk37" id="link_String_two_pointer"><path codeLine="38" d="M609.04,127.6269 C618.46,136.4369 630.18,145.6769 642.52,151.2969 C664.6,161.3469 672.53,155.6569 696.52,159.2969 C722.31,163.2069 730.99,157.0369 754.52,168.2969 C786.57,183.6269 811.1314,211.7803 822.9414,226.8003" fill="none" id="String-to-two_pointer" style="stroke:#444444;stroke-width:2;"/><polygon fill="#444444" points="826.65,231.5169,824.2315,221.9696,823.5595,227.5864,817.9427,226.9144,826.65,231.5169" style="stroke:#444444;stroke-width:2;"/></g><!--reverse link two_pointer to sliding_window--><g class="link" data-entity-1="two_pointer" data-entity-2="sliding_window" data-source-line="41" data-uid="lnk39" id="link_two_pointer_sliding_window"><path codeLine="41" d="M819.748,265.1738 C810.528,282.4838 796.98,309.0269 782.52,346.2969 C764.88,391.7769 776.96,410.2969 750.52,451.2969 C735.14,475.1369 707.27,494.9569 693.18,504.0069" fill="none" id="two_pointer-backto-sliding_window" style="stroke:#444444;stroke-width:1;stroke-dasharray:7,7;"/><polygon fill="none" points="828.21,249.2869,814.4523,262.3531,825.0436,267.9945,828.21,249.2869" style="stroke:#444444;stroke-width:1;"/><text fill="#000000" font-family="Padauk" font-size="13" lengthAdjust="spacing" textLength="136.8047" x="783.52" y="379.8638">builds on pointer ops</text></g><!--reverse link two_pointer to two_pointer_greedy--><g class="link" data-entity-1="two_pointer" data-entity-2="two_pointer_greedy" data-source-line="42" data-uid="lnk41" id="link_two_pointer_two_pointer_greedy"><path codeLine="42" d="M807.1023,250.9867 C792.8023,256.4167 780,261.0969 754.52,269.2969 C708.32,284.1669 688.98,271.0369 649.52,299.2969 C624.53,317.1969 607.55,351.0369 600.8,366.3769" fill="none" id="two_pointer-backto-two_pointer_greedy" style="stroke:#444444;stroke-width:1;stroke-dasharray:7,7;"/><polygon fill="none" points="823.93,244.5969,804.9724,245.3775,809.2323,256.5959,823.93,244.5969" style="stroke:#444444;stroke-width:1;"/><text fill="#000000" font-family="Padauk" font-size="13" lengthAdjust="spacing" textLength="95.5894" x="650.52" y="312.3638">greedy variant</text></g><!--reverse link two_pointer_greedy to sliding_window--><g class="link" data-entity-1="two_pointer_greedy" data-entity-2="sliding_window" data-source-line="43" data-uid="lnk43" id="link_two_pointer_greedy_sliding_window"><path codeLine="43" d="M596.9378,389.9344 C596.5278,404.2144 597.5,429.5169 610.52,451.2969 C626.52,478.0569 659.84,497.1669 675.73,505.1569" fill="none" id="two_pointer_greedy-backto-sliding_window" style="stroke:#444444;stroke-width:1;stroke-dasharray:7,7;"/><polygon fill="#444444" points="597.11,383.9369,592.8534,392.8184,596.9665,388.9348,600.8501,393.048,597.11,383.9369" style="stroke:#444444;stroke-width:1;"/><text fill="#000000" font-family="Padauk" font-size="13" lengthAdjust="spacing" textLength="134.6528" x="611.52" y="447.3638">shrink/grow strategy</text></g><!--link string_processing to sliding_window--><g class="link" data-entity-1="string_processing" data-entity-2="sliding_window" data-source-line="44" data-uid="lnk44" id="link_string_processing_sliding_window"><path codeLine="44" d="M401.47,384.1269 C415.37,399.3069 448.21,432.8769 482.52,451.2969 C551.32,488.2269 640.3096,503.1035 669.6096,507.2635" fill="none" id="string_processing-to-sliding_window" style="stroke:#444444;stroke-width:1;stroke-dasharray:7,7;"/><polygon fill="#444444" points="675.55,508.1069,667.2016,502.8815,670.5996,507.404,666.0771,510.802,675.55,508.1069" style="stroke:#444444;stroke-width:1;"/><text fill="#000000" font-family="Padauk" font-size="13" lengthAdjust="spacing" textLength="111.8521" x="483.52" y="447.3638">anagram window</text></g><!--SRC=[dLJ1Qjj04BthAwQwf3rOkejWS19eBsuCCVHGYXclnj9YQLVPNKKrRI6_KEWNvaiwbcH7iUI4I1Z3ldqQpRnvCn-a4baPKsaoI9qhR1I61giWaIujrwKb8xHof5mWT1uMHZ-GdWWCPSoOTBlGqCQ6AM5imnobQYc1BFFCyvYH4O0_CmPtS8MMOfXbYJOSFRU-vuKNyFJlyRq_W8qkLOnEQeKPx3FaJvEnC2hQHUXv6uCvWN-33c6vAyZwyCi3VaI6ra9TGETyvunKoGi0nRPplg7xaZhdEHPTDZdlp_ZgyI0XR32NcQHnXP-Aq6fmfbcj7Xy_WN_PK1P62xAMXPZwW1PmZwwA8_hCls9ndE6_8tVTGPvvTvcC6O1lKiMwQfYsmLPLZNMuTGjwITWQ7inYMMbOQCbsDWtNLNfLDC0W2puRedZN8w-I6X_JmaxpB4ocm2R6fyU_Rc-vTpPntx9JoVTLmENa-sAs_BAwlftFRx_-A8j9wz-kw71uph8x1SFRx9xk8zX1MGJrfFIlcxjwoY220WsldvGiYnQJq35vBsrooBPvYno_Koh98ybQYnGDFA2HgDmvIVQPDYFzIjnwnk7aYQ1bvlWppALwBG2N2j0Fi35qFn6yuTmnpJEzQDAiLz489_BU55IuabTe9jMMXv9SHQJ0aKXhjSPOSh3UWElzFOMXCY9ObpABBMW5XpjTMAy_Rs_5QLa7pSucCeN1s17uDcKjjs5YcCyUH4V9pXysQn1CeV-5251XmdkqTO7t7m00]--></g></svg>