<svg xmlns="http://www.w3.org/2000/svg" xmlns:xlink="http://www.w3.org/1999/xlink" contentStyleType="text/css" data-diagram-type="CLASS" height="605px" preserveAspectRatio="none" style="width:1040px;height:605px;background:#FAFAFA;" version="1.1" viewBox="0 0 1040 605" width="1040px" zoomAndPan="magnify"><title>Array Based Algorithms</title><defs/><g><rect fill="#FAFAFA" height="605" style="stroke:none;stroke-width:1;" width="1040" x="0" y="0"/><text fill="#000000" font-family="Padauk" font-size="14" font-weight="bold" lengthAdjust="spacing" textLength="143.9922" x="441.0398" y="23.8086">Array Based Algorithms</text><!--cluster Data Types--><g class="cluster" data-entity="Data Types" data-source-line="8" data-uid="ent0002" id="cluster_Data Types"><rect fill="#FAFAFA" height="103" rx="2.5" ry="2.5" style="stroke:#005F7F;stroke-width:1;" width="575" x="174.13" y="48.6445"/><path d="M252.7628,48.6445 L252.7628,62.2891 L242.7628,72.2891 L174.13,72.2891" fill="none" style="stroke:#005F7F;stroke-width:1;"/><text fill="#000000" font-family="Padauk" font-size="14" font-weight="bold" lengthAdjust="spacing" textLength="68.6328" x="177.13" y="63.4531">Data Types</text></g><!--cluster Array Based Algorithms--><g class="cluster" data-entity="Array Based Algorithms" data-source-line="18" data-uid="ent0009" id="cluster_Array Based Algorithms"><rect fill="#FAFAFA" height="415" rx="2.5" ry="2.5" style="stroke:#005F7F;stroke-width:1;" width="549" x="252.13" y="184.6445"/><path d="M406.1222,184.6445 L406.1222,198.2891 L396.1222,208.2891 L252.13,208.2891" fill="none" style="stroke:#005F7F;stroke-width:1;"/><text fill="#000000" font-family="Padauk" font-size="14" font-weight="bold" lengthAdjust="spacing" textLength="143.9922" x="255.13" y="199.4531">Array Based Algorithms</text></g><!--class Array--><g class="entity" data-entity="Array" data-source-line="9" data-uid="ent0003" id="entity_Array"><rect fill="#FAFAFA" height="48" rx="2.5" ry="2.5" style="stroke:#181818;stroke-width:0.5;" width="63.1719" x="379.54" y="87.6445"/><ellipse cx="394.54" cy="103.6445" fill="#FAFAFA" rx="11" ry="11" style="stroke:#181818;stroke-width:1;"/><path d="M394.6494,99.1758 Q393.7275,99.1758 392.9931,99.4883 Q392.2744,99.8008 391.7744,100.3945 Q391.2744,100.9727 390.9931,101.8477 Q390.7275,102.7227 390.7275,103.8164 Q390.7275,105.2539 391.165,106.3008 Q391.6181,107.3477 392.4619,107.8945 Q393.3213,108.4414 394.6338,108.4414 Q395.415,108.4414 396.1025,108.3164 Q396.8056,108.1758 397.8056,107.8633 L397.8056,109.7383 Q396.9463,110.0664 396.1806,110.1914 Q395.4306,110.3164 394.415,110.3164 Q392.4931,110.3164 391.1806,109.5195 Q389.8838,108.707 389.2275,107.2383 Q388.5713,105.7539 388.5713,103.7852 Q388.5713,102.3633 388.9619,101.1914 Q389.3681,100.0039 390.1494,99.1289 Q390.9306,98.2539 392.0713,97.7852 Q393.2119,97.3008 394.6806,97.3008 Q395.6338,97.3008 396.5244,97.5039 Q397.4306,97.6914 398.3681,98.1602 L397.54,99.9414 Q396.7588,99.5664 396.1025,99.3789 Q395.4463,99.1758 394.6494,99.1758 Z " fill="#000000"/><text fill="#000000" font-family="Padauk" font-size="14" lengthAdjust="spacing" textLength="31.1719" x="408.54" y="107.1309">Array</text><line style="stroke:#181818;stroke-width:0.5;" x1="380.54" x2="441.7119" y1="119.6445" y2="119.6445"/><line style="stroke:#181818;stroke-width:0.5;" x1="380.54" x2="441.7119" y1="127.6445" y2="127.6445"/></g><!--class String--><g class="entity" data-entity="String" data-source-line="10" data-uid="ent0004" id="entity_String"><rect fill="#FAFAFA" height="48" rx="2.5" ry="2.5" style="stroke:#181818;stroke-width:0.5;" width="65.6738" x="477.29" y="87.6445"/><ellipse cx="492.29" cy="103.6445" fill="#FAFAFA" rx="11" ry="11" style="stroke:#181818;stroke-width:1;"/><path d="M492.3994,99.1758 Q491.4775,99.1758 490.7431,99.4883 Q490.0244,99.8008 489.5244,100.3945 Q489.0244,100.9727 488.7431,101.8477 Q488.4775,102.7227 488.4775,103.8164 Q488.4775,105.2539 488.915,106.3008 Q489.3681,107.3477 490.2119,107.8945 Q491.0713,108.4414 492.3838,108.4414 Q493.165,108.4414 493.8525,108.3164 Q494.5556,108.1758 495.5556,107.8633 L495.5556,109.7383 Q494.6963,110.0664 493.9306,110.1914 Q493.1806,110.3164 492.165,110.3164 Q490.2431,110.3164 488.9306,109.5195 Q487.6338,108.707 486.9775,107.2383 Q486.3213,105.7539 486.3213,103.7852 Q486.3213,102.3633 486.7119,101.1914 Q487.1181,100.0039 487.8994,99.1289 Q488.6806,98.2539 489.8213,97.7852 Q490.9619,97.3008 492.4306,97.3008 Q493.3838,97.3008 494.2744,97.5039 Q495.1806,97.6914 496.1181,98.1602 L495.29,99.9414 Q494.5088,99.5664 493.8525,99.3789 Q493.1963,99.1758 492.3994,99.1758 Z " fill="#000000"/><text fill="#000000" font-family="Padauk" font-size="14" lengthAdjust="spacing" textLength="33.6738" x="506.29" y="107.1309">String</text><line style="stroke:#181818;stroke-width:0.5;" x1="478.29" x2="541.9638" y1="119.6445" y2="119.6445"/><line style="stroke:#181818;stroke-width:0.5;" x1="478.29" x2="541.9638" y1="127.6445" y2="127.6445"/></g><!--class Stack--><g class="entity" data-entity="Stack" data-source-line="11" data-uid="ent0005" id="entity_Stack"><rect fill="#FAFAFA" height="48" rx="2.5" ry="2.5" style="stroke:#181818;stroke-width:0.5;" width="63.4453" x="281.41" y="87.6445"/><ellipse cx="296.41" cy="103.6445" fill="#FAFAFA" rx="11" ry="11" style="stroke:#181818;stroke-width:1;"/><path d="M296.5194,99.1758 Q295.5975,99.1758 294.8631,99.4883 Q294.1444,99.8008 293.6444,100.3945 Q293.1444,100.9727 292.8631,101.8477 Q292.5975,102.7227 292.5975,103.8164 Q292.5975,105.2539 293.035,106.3008 Q293.4881,107.3477 294.3319,107.8945 Q295.1913,108.4414 296.5038,108.4414 Q297.285,108.4414 297.9725,108.3164 Q298.6756,108.1758 299.6756,107.8633 L299.6756,109.7383 Q298.8163,110.0664 298.0506,110.1914 Q297.3006,110.3164 296.285,110.3164 Q294.3631,110.3164 293.0506,109.5195 Q291.7538,108.707 291.0975,107.2383 Q290.4413,105.7539 290.4413,103.7852 Q290.4413,102.3633 290.8319,101.1914 Q291.2381,100.0039 292.0194,99.1289 Q292.8006,98.2539 293.9413,97.7852 Q295.0819,97.3008 296.5506,97.3008 Q297.5038,97.3008 298.3944,97.5039 Q299.3006,97.6914 300.2381,98.1602 L299.41,99.9414 Q298.6288,99.5664 297.9725,99.3789 Q297.3163,99.1758 296.5194,99.1758 Z " fill="#000000"/><text fill="#000000" font-family="Padauk" font-size="14" lengthAdjust="spacing" textLength="31.4453" x="310.41" y="107.1309">Stack</text><line style="stroke:#181818;stroke-width:0.5;" x1="282.41" x2="343.8553" y1="119.6445" y2="119.6445"/><line style="stroke:#181818;stroke-width:0.5;" x1="282.41" x2="343.8553" y1="127.6445" y2="127.6445"/></g><!--class Deque--><g class="entity" data-entity="Deque" data-source-line="12" data-uid="ent0006" id="entity_Deque"><rect fill="#FAFAFA" height="48" rx="2.5" ry="2.5" style="stroke:#181818;stroke-width:0.5;" width="68.5859" x="577.84" y="87.6445"/><ellipse cx="592.84" cy="103.6445" fill="#FAFAFA" rx="11" ry="11" style="stroke:#181818;stroke-width:1;"/><path d="M592.9494,99.1758 Q592.0275,99.1758 591.2931,99.4883 Q590.5744,99.8008 590.0744,100.3945 Q589.5744,100.9727 589.2931,101.8477 Q589.0275,102.7227 589.0275,103.8164 Q589.0275,105.2539 589.465,106.3008 Q589.9181,107.3477 590.7619,107.8945 Q591.6213,108.4414 592.9338,108.4414 Q593.715,108.4414 594.4025,108.3164 Q595.1056,108.1758 596.1056,107.8633 L596.1056,109.7383 Q595.2463,110.0664 594.4806,110.1914 Q593.7306,110.3164 592.715,110.3164 Q590.7931,110.3164 589.4806,109.5195 Q588.1838,108.707 587.5275,107.2383 Q586.8713,105.7539 586.8713,103.7852 Q586.8713,102.3633 587.2619,101.1914 Q587.6681,100.0039 588.4494,99.1289 Q589.2306,98.2539 590.3713,97.7852 Q591.5119,97.3008 592.9806,97.3008 Q593.9338,97.3008 594.8244,97.5039 Q595.7306,97.6914 596.6681,98.1602 L595.84,99.9414 Q595.0588,99.5664 594.4025,99.3789 Q593.7463,99.1758 592.9494,99.1758 Z " fill="#000000"/><text fill="#000000" font-family="Padauk" font-size="14" lengthAdjust="spacing" textLength="36.5859" x="606.84" y="107.1309">Deque</text><line style="stroke:#181818;stroke-width:0.5;" x1="578.84" x2="645.4259" y1="119.6445" y2="119.6445"/><line style="stroke:#181818;stroke-width:0.5;" x1="578.84" x2="645.4259" y1="127.6445" y2="127.6445"/></g><!--class Map--><g class="entity" data-entity="Map" data-source-line="13" data-uid="ent0007" id="entity_Map"><rect fill="#FAFAFA" height="48" rx="2.5" ry="2.5" style="stroke:#181818;stroke-width:0.5;" width="56.9512" x="189.65" y="87.6445"/><ellipse cx="204.65" cy="103.6445" fill="#FAFAFA" rx="11" ry="11" style="stroke:#181818;stroke-width:1;"/><path d="M204.7594,99.1758 Q203.8375,99.1758 203.1031,99.4883 Q202.3844,99.8008 201.8844,100.3945 Q201.3844,100.9727 201.1031,101.8477 Q200.8375,102.7227 200.8375,103.8164 Q200.8375,105.2539 201.275,106.3008 Q201.7281,107.3477 202.5719,107.8945 Q203.4312,108.4414 204.7437,108.4414 Q205.525,108.4414 206.2125,108.3164 Q206.9156,108.1758 207.9156,107.8633 L207.9156,109.7383 Q207.0562,110.0664 206.2906,110.1914 Q205.5406,110.3164 204.525,110.3164 Q202.6031,110.3164 201.2906,109.5195 Q199.9937,108.707 199.3375,107.2383 Q198.6812,105.7539 198.6812,103.7852 Q198.6812,102.3633 199.0719,101.1914 Q199.4781,100.0039 200.2594,99.1289 Q201.0406,98.2539 202.1812,97.7852 Q203.3219,97.3008 204.7906,97.3008 Q205.7437,97.3008 206.6344,97.5039 Q207.5406,97.6914 208.4781,98.1602 L207.65,99.9414 Q206.8687,99.5664 206.2125,99.3789 Q205.5562,99.1758 204.7594,99.1758 Z " fill="#000000"/><text fill="#000000" font-family="Padauk" font-size="14" lengthAdjust="spacing" textLength="24.9512" x="218.65" y="107.1309">Map</text><line style="stroke:#181818;stroke-width:0.5;" x1="190.65" x2="245.6012" y1="119.6445" y2="119.6445"/><line style="stroke:#181818;stroke-width:0.5;" x1="190.65" x2="245.6012" y1="127.6445" y2="127.6445"/></g><!--class Set--><g class="entity" data-entity="Set" data-source-line="14" data-uid="ent0008" id="entity_Set"><rect fill="#FAFAFA" height="48" rx="2.5" ry="2.5" style="stroke:#181818;stroke-width:0.5;" width="51.0996" x="681.58" y="87.6445"/><ellipse cx="696.58" cy="103.6445" fill="#FAFAFA" rx="11" ry="11" style="stroke:#181818;stroke-width:1;"/><path d="M696.6894,99.1758 Q695.7675,99.1758 695.0331,99.4883 Q694.3144,99.8008 693.8144,100.3945 Q693.3144,100.9727 693.0331,101.8477 Q692.7675,102.7227 692.7675,103.8164 Q692.7675,105.2539 693.205,106.3008 Q693.6581,107.3477 694.5019,107.8945 Q695.3613,108.4414 696.6738,108.4414 Q697.455,108.4414 698.1425,108.3164 Q698.8456,108.1758 699.8456,107.8633 L699.8456,109.7383 Q698.9863,110.0664 698.2206,110.1914 Q697.4706,110.3164 696.455,110.3164 Q694.5331,110.3164 693.2206,109.5195 Q691.9238,108.707 691.2675,107.2383 Q690.6113,105.7539 690.6113,103.7852 Q690.6113,102.3633 691.0019,101.1914 Q691.4081,100.0039 692.1894,99.1289 Q692.9706,98.2539 694.1113,97.7852 Q695.2519,97.3008 696.7206,97.3008 Q697.6738,97.3008 698.5644,97.5039 Q699.4706,97.6914 700.4081,98.1602 L699.58,99.9414 Q698.7988,99.5664 698.1425,99.3789 Q697.4863,99.1758 696.6894,99.1758 Z " fill="#000000"/><text fill="#000000" font-family="Padauk" font-size="14" lengthAdjust="spacing" textLength="19.0996" x="710.58" y="107.1309">Set</text><line style="stroke:#181818;stroke-width:0.5;" x1="682.58" x2="731.6796" y1="119.6445" y2="119.6445"/><line style="stroke:#181818;stroke-width:0.5;" x1="682.58" x2="731.6796" y1="127.6445" y2="127.6445"/></g><!--entity array_processing--><g class="entity" data-entity="array_processing" data-source-line="19" data-uid="ent0010" id="entity_array_processing"><ellipse cx="571.13" cy="256.6445" fill="#FAFAFA" rx="8" ry="8" style="stroke:#181818;stroke-width:0.5;"/><text fill="#000000" font-family="Padauk" font-size="14" lengthAdjust="spacing" textLength="122.1992" x="510.0304" y="287.4531">&lt;Array Processing&gt;</text></g><!--entity backtracking--><g class="entity" data-entity="backtracking" data-source-line="20" data-uid="ent0011" id="entity_backtracking"><ellipse cx="411.13" cy="256.6445" fill="#FAFAFA" rx="8" ry="8" style="stroke:#181818;stroke-width:0.5;"/><text fill="#000000" font-family="Padauk" font-size="14" lengthAdjust="spacing" textLength="96.4414" x="362.9093" y="287.4531">&lt;Backtracking&gt;</text></g><!--entity sliding_window--><g class="entity" data-entity="sliding_window" data-source-line="21" data-uid="ent0012" id="entity_sliding_window"><ellipse cx="609.13" cy="550.6445" fill="#FAFAFA" rx="8" ry="8" style="stroke:#181818;stroke-width:0.5;"/><text fill="#000000" font-family="Padauk" font-size="14" lengthAdjust="spacing" textLength="113.1895" x="552.5353" y="581.4531">&lt;Sliding Window&gt;</text></g><!--entity string_processing--><g class="entity" data-entity="string_processing" data-source-line="22" data-uid="ent0013" id="entity_string_processing"><ellipse cx="338.13" cy="403.6445" fill="#FAFAFA" rx="8" ry="8" style="stroke:#181818;stroke-width:0.5;"/><text fill="#000000" font-family="Padauk" font-size="14" lengthAdjust="spacing" textLength="124.7012" x="275.7794" y="434.4531">&lt;String Processing&gt;</text></g><!--entity two_pointer--><g class="entity" data-entity="two_pointer" data-source-line="23" data-uid="ent0014" id="entity_two_pointer"><ellipse cx="730.13" cy="256.6445" fill="#FAFAFA" rx="8" ry="8" style="stroke:#181818;stroke-width:0.5;"/><text fill="#000000" font-family="Padauk" font-size="14" lengthAdjust="spacing" textLength="94.0898" x="683.0851" y="287.4531">&lt;Two Pointer&gt;</text></g><!--entity two_pointer_greedy--><g class="entity" data-entity="two_pointer_greedy" data-source-line="24" data-uid="ent0015" id="entity_two_pointer_greedy"><ellipse cx="521.13" cy="403.6445" fill="#FAFAFA" rx="8" ry="8" style="stroke:#181818;stroke-width:0.5;"/><text fill="#000000" font-family="Padauk" font-size="14" lengthAdjust="spacing" textLength="140.2051" x="451.0275" y="434.4531">&lt;Two Pointer Greedy&gt;</text></g><!--link Array to array_processing--><g class="link" data-entity-1="Array" data-entity-2="array_processing" data-source-line="28" data-uid="lnk17" id="link_Array_array_processing"><path codeLine="28" d="M433.83,135.9445 C441.87,143.7845 451.15,152.3745 460.13,159.6445 C470.57,168.1045 474.6,168.3045 485.13,176.6445 C515.64,200.8245 544.5188,228.9304 559.1688,243.5904" fill="none" id="Array-to-array_processing" style="stroke:#444444;stroke-width:1;"/><polygon fill="#444444" points="563.41,247.8345,559.8776,238.6409,559.8757,244.2978,554.2188,244.2959,563.41,247.8345" style="stroke:#444444;stroke-width:1;"/></g><!--link Array to backtracking--><g class="link" data-entity-1="Array" data-entity-2="backtracking" data-source-line="29" data-uid="lnk19" id="link_Array_backtracking"><path codeLine="29" d="M411.13,135.9345 C411.13,168.7045 411.13,220.7445 411.13,241.7645" fill="none" id="Array-to-backtracking" style="stroke:#444444;stroke-width:1;"/><polygon fill="#444444" points="411.13,247.7645,415.13,238.7645,411.13,242.7645,407.13,238.7645,411.13,247.7645" style="stroke:#444444;stroke-width:1;"/></g><!--link Array to two_pointer--><g class="link" data-entity-1="Array" data-entity-2="two_pointer" data-source-line="30" data-uid="lnk21" id="link_Array_two_pointer"><path codeLine="30" d="M429.24,135.8545 C437.61,144.8645 448.32,154.2945 460.13,159.6445 C480.24,168.7545 638.33,166.8645 658.13,176.6445 C691.07,192.9145 713.1054,226.0927 722.7654,242.6427" fill="none" id="Array-to-two_pointer" style="stroke:#444444;stroke-width:1;"/><polygon fill="#444444" points="725.79,247.8245,724.7077,238.0353,723.2695,243.5063,717.7985,242.0681,725.79,247.8245" style="stroke:#444444;stroke-width:1;"/></g><!--link Array to string_processing--><g class="link" data-entity-1="Array" data-entity-2="string_processing" data-source-line="31" data-uid="lnk23" id="link_Array_string_processing"><path codeLine="31" d="M388.35,135.8445 C380.3,143.6745 371.03,152.2845 362.13,159.6445 C352.05,167.9645 344.13,165.0345 338.13,176.6445 C298.48,253.3145 325.2875,359.3582 334.0875,389.2882" fill="none" id="Array-to-string_processing" style="stroke:#444444;stroke-width:1;"/><polygon fill="#444444" points="335.78,395.0445,337.0788,385.2817,334.3696,390.2476,329.4037,387.5383,335.78,395.0445" style="stroke:#444444;stroke-width:1;"/></g><!--link Map to string_processing--><g class="link" data-entity-1="Map" data-entity-2="string_processing" data-source-line="32" data-uid="lnk25" id="link_Map_string_processing"><path codeLine="32" d="M189.18,127.0345 C170.85,137.8945 148.68,154.6845 138.13,176.6445 C116.37,221.9145 120.63,242.5745 138.13,289.6445 C168.7,371.8845 288.4965,395.3335 323.2565,400.5535" fill="none" id="Map-to-string_processing" style="stroke:#444444;stroke-width:1;stroke-dasharray:7.0,7.0;"/><polygon fill="#444444" points="329.19,401.4445,320.8838,396.1523,324.2454,400.702,319.6958,404.0636,329.19,401.4445" style="stroke:#444444;stroke-width:1;"/></g><!--link Stack to string_processing--><g class="link" data-entity-1="Stack" data-entity-2="string_processing" data-source-line="33" data-uid="lnk27" id="link_Stack_string_processing"><path codeLine="33" d="M294.32,135.8345 C285.98,144.6245 275.48,153.8945 264.13,159.6445 C225.09,179.4245 195.28,143.1345 167.13,176.6445 C134.83,215.1045 143.34,245.4145 167.13,289.6445 C203.36,357.0245 293.613,389.1775 323.423,398.3075" fill="none" id="Stack-to-string_processing" style="stroke:#444444;stroke-width:1;stroke-dasharray:7.0,7.0;"/><polygon fill="#444444" points="329.16,400.0645,321.7259,393.6043,324.3792,398.6003,319.3832,401.2536,329.16,400.0645" style="stroke:#444444;stroke-width:1;"/><text fill="#000000" font-family="Padauk" font-size="13" lengthAdjust="spacing" textLength="107.6055" x="168.13" y="259.9668">parentheses decode</text></g><!--link Set to sliding_window--><g class="link" data-entity-1="Set" data-entity-2="sliding_window" data-source-line="34" data-uid="lnk29" id="link_Set_sliding_window"><path codeLine="34" d="M733.01,120.4645 C761.39,130.0545 807.03,148.5745 838.13,176.6445 C899.69,232.2145 955.12,262.5845 927.13,340.6445 C898.56,420.2945 876.28,440.3145 806.13,487.6445 C742.22,530.7545 652.6662,544.4606 623.7062,547.9806" fill="none" id="Set-to-sliding_window" style="stroke:#444444;stroke-width:1;stroke-dasharray:7.0,7.0;"/><polygon fill="#444444" points="617.75,548.7045,627.1669,551.5894,622.7135,548.1012,626.2016,543.6478,617.75,548.7045" style="stroke:#444444;stroke-width:1;"/><text fill="#000000" font-family="Padauk" font-size="13" lengthAdjust="spacing" textLength="98.2617" x="933.81" y="333.4668">unique&#8209;char variant</text></g><!--link Stack to backtracking--><g class="link" data-entity-1="Stack" data-entity-2="backtracking" data-source-line="35" data-uid="lnk31" id="link_Stack_backtracking"><path codeLine="35" d="M329.09,135.9345 C351.55,168.7045 387.9274,221.7958 402.3374,242.8158" fill="none" id="Stack-to-backtracking" style="stroke:#444444;stroke-width:2;"/><polygon fill="#444444" points="405.73,247.7645,403.9403,238.0796,402.9029,243.6405,397.3419,242.6031,405.73,247.7645" style="stroke:#444444;stroke-width:2;"/></g><!--link Deque to sliding_window--><g class="link" data-entity-1="Deque" data-entity-2="sliding_window" data-source-line="36" data-uid="lnk33" id="link_Deque_sliding_window"><path codeLine="36" d="M632.18,136.1345 C641.05,144.9645 652.17,154.1845 664.13,159.6445 C692.44,172.5645 781.73,154.0445 803.13,176.6445 C823.01,197.6545 830.89,411.7645 816.13,436.6445 C770.37,513.7545 657.3017,540.4996 623.8717,546.9396" fill="none" id="Deque-to-sliding_window" style="stroke:#444444;stroke-width:1;stroke-dasharray:7.0,7.0;"/><polygon fill="#444444" points="617.98,548.0745,627.5742,550.2998,622.8897,547.1287,626.0609,542.4443,617.98,548.0745" style="stroke:#444444;stroke-width:1;"/><text fill="#000000" font-family="Padauk" font-size="13" lengthAdjust="spacing" textLength="93.666" x="824.66" y="333.4668">window max/min</text></g><!--link Map to sliding_window--><g class="link" data-entity-1="Map" data-entity-2="sliding_window" data-source-line="37" data-uid="lnk35" id="link_Map_sliding_window"><path codeLine="37" d="M189.19,124.9945 C166.6,135.8445 135.69,153.5145 115.13,176.6445 C62.83,235.5045 6,274.1245 48.13,340.6445 C178.25,546.1145 533.2105,550.6582 594.2905,549.9082" fill="none" id="Map-to-sliding_window" style="stroke:#444444;stroke-width:1;stroke-dasharray:7.0,7.0;"/><polygon fill="#444444" points="600.29,549.8345,591.2416,545.9453,595.2904,549.8959,591.3398,553.9447,600.29,549.8345" style="stroke:#444444;stroke-width:1;"/><text fill="#000000" font-family="Padauk" font-size="13" lengthAdjust="spacing" textLength="97.1318" x="49.13" y="333.4668">freq-count variant</text></g><!--link String to two_pointer--><g class="link" data-entity-1="String" data-entity-2="two_pointer" data-source-line="38" data-uid="lnk37" id="link_String_two_pointer"><path codeLine="38" d="M529.34,135.9545 C537.86,144.7645 548.56,154.0045 560.13,159.6445 C581.15,169.8945 589.09,163.6245 612.13,167.6445 C632.65,171.2245 639.97,166.4345 658.13,176.6445 C690.15,194.6645 712.548,226.9653 722.488,242.9953" fill="none" id="String-to-two_pointer" style="stroke:#444444;stroke-width:2;"/><polygon fill="#444444" points="725.65,248.0945,724.3065,238.3377,723.015,243.8452,717.5076,242.5537,725.65,248.0945" style="stroke:#444444;stroke-width:2;"/></g><!--reverse link two_pointer to sliding_window--><g class="link" data-entity-1="two_pointer" data-entity-2="sliding_window" data-source-line="41" data-uid="lnk39" id="link_two_pointer_sliding_window"><path codeLine="41" d="M722.3436,282.7684 C716.6436,301.1684 707.49,331.0645 696.13,370.6445 C681.25,422.4645 689.8,440.2345 664.13,487.6445 C651.93,510.1645 630.11,531.3445 617.94,542.1545" fill="none" id="two_pointer-backto-sliding_window" style="stroke:#444444;stroke-width:1;stroke-dasharray:7.0,7.0;"/><polygon fill="none" points="727.67,265.5745,716.6123,280.993,728.0749,284.5439,727.67,265.5745" style="stroke:#444444;stroke-width:1;"/><text fill="#000000" font-family="Padauk" font-size="13" lengthAdjust="spacing" textLength="114.2705" x="697.13" y="406.9668">builds on pointer ops</text></g><!--reverse link two_pointer to two_pointer_greedy--><g class="link" data-entity-1="two_pointer" data-entity-2="two_pointer_greedy" data-source-line="42" data-uid="lnk41" id="link_two_pointer_two_pointer_greedy"><path codeLine="42" d="M704.9484,269.2076 C691.4284,275.4076 681.09,280.0145 658.13,289.6445 C624.64,303.6845 610.89,297.4845 582.13,319.6445 C554.08,341.2545 532.93,379.0845 524.78,395.1245" fill="none" id="two_pointer-backto-two_pointer_greedy" style="stroke:#444444;stroke-width:1;stroke-dasharray:7.0,7.0;"/><polygon fill="none" points="721.31,261.7045,702.4473,263.7538,707.4494,274.6615,721.31,261.7045" style="stroke:#444444;stroke-width:1;"/><text fill="#000000" font-family="Padauk" font-size="13" lengthAdjust="spacing" textLength="76.5527" x="583.13" y="333.4668">greedy variant</text></g><!--reverse link two_pointer_greedy to sliding_window--><g class="link" data-entity-1="two_pointer_greedy" data-entity-2="sliding_window" data-source-line="43" data-uid="lnk43" id="link_two_pointer_greedy_sliding_window"><path codeLine="43" d="M523.2764,418.4029 C525.8364,433.7629 531.95,462.5845 547.13,487.6445 C561.48,511.3445 586.76,532.6845 600.18,543.0345" fill="none" id="two_pointer_greedy-backto-sliding_window" style="stroke:#444444;stroke-width:1;stroke-dasharray:7.0,7.0;"/><polygon fill="#444444" points="522.29,412.4845,519.824,422.0197,523.112,417.4165,527.7152,420.7045,522.29,412.4845" style="stroke:#444444;stroke-width:1;"/><text fill="#000000" font-family="Padauk" font-size="13" lengthAdjust="spacing" textLength="111.6299" x="548.13" y="480.4668">shrink/grow strategy</text></g><!--link string_processing to sliding_window--><g class="link" data-entity-1="string_processing" data-entity-2="sliding_window" data-source-line="44" data-uid="lnk44" id="link_string_processing_sliding_window"><path codeLine="44" d="M345.61,412.5745 C361.23,428.7245 399.02,465.7345 437.13,487.6445 C495.19,521.0345 568.5511,540.1233 594.5911,546.2833" fill="none" id="string_processing-to-sliding_window" style="stroke:#444444;stroke-width:1;stroke-dasharray:7.0,7.0;"/><polygon fill="#444444" points="600.43,547.6645,592.5925,541.7001,595.5643,546.5135,590.7509,549.4852,600.43,547.6645" style="stroke:#444444;stroke-width:1;"/><text fill="#000000" font-family="Padauk" font-size="13" lengthAdjust="spacing" textLength="91.7236" x="438.13" y="480.4668">anagram window</text></g><!--SRC=[dLJ1Qjj04BthAwQwf3rOkejWS19eBsuCCVHGYXclnj9YQLVPNKKrRI6_KEWNvaiwbcH7iUI4I1Z3ldqQpRnvCn-a4baPKsaoI9qhR1I61giWaIujrwKb8xHof5mWT1uMHZ-GdWWCPSoOTBlGqCQ6AM5imnobQYc1BFFCyvYH4O0_CmPtS8MMOfXbYJOSFRU-vuKNyFJlyRq_W8qkLOnEQeKPx3FaJvEnC2hQHUXv6uCvWN-33c6vAyZwyCi3VaI6ra9TGETyvunKoGi0nRPplg7xaZhdEHPTDZdlp_ZgyI0XR32NcQHnXP-Aq6fmfbcj7Xy_WN_PK1P62xAMXPZwW1PmZwwA8_hCls9ndE6_8tVTGPvvTvcC6O1lKiMwQfYsmLPLZNMuTGjwITWQ7inYMMbOQCbsDWtNLNfLDC0W2puRedZN8w-I6X_JmaxpB4ocm2R6fyU_Rc-vTpPntx9JoVTLmENa-sAs_BAwlftFRx_-A8j9wz-kw71uph8x1SFRx9xk8zX1MGJrfFIlcxjwoY220WsldvGiYnQJq35vBsrooBPvYno_Koh98ybQYnGDFA2HgDmvIVQPDYFzIjnwnk7aYQ1bvlWppALwBG2N2j0Fi35qFn6yuTmnpJEzQDAiLz489_BU55IuabTe9jMMXv9SHQJ0aKXhjSPOSh3UWElzFOMXCY9ObpABBMW5XpjTMAy_Rs_5QLa7pSucCeN1s17uDcKjjs5YcCyUH4V9pXysQn1CeV-5251XmdkqTO7t7m00]--></g></svg>