<svg xmlns="http://www.w3.org/2000/svg" xmlns:xlink="http://www.w3.org/1999/xlink" contentStyleType="text/css" data-diagram-type="CLASS" height="378px" preserveAspectRatio="none" style="width:1046px;height:378px;background:#FAFAFA;" version="1.1" viewBox="0 0 1046 378" width="1046px" zoomAndPan="magnify"><title>Algorithms&lt;-&gt; Data-Types "Primitives Based Algorithms""</title><defs/><g><rect fill="#FAFAFA" height="378" style="stroke:none;stroke-width:1;" width="1046" x="0" y="0"/><g class="title" data-source-line="4"><text fill="#000000" font-family="Padauk" font-size="14" font-weight="bold" lengthAdjust="spacing" textLength="461.0703" x="285.4648" y="22.9951">Algorithms&lt;-&gt; Data-Types "Primitives Based Algorithms""</text></g><!--cluster Data Types--><g class="cluster" data-entity="Data Types" data-source-line="7" data-uid="ent0002" id="cluster_Data Types"><rect fill="#FAFAFA" height="99" rx="2.5" ry="2.5" style="stroke:#005F7F;stroke-width:1;" width="645" x="191" y="115.4269"/><path d="M289.6074,115.4269 L289.6074,124.7238 L279.6074,134.7238 L191,134.7238" fill="none" style="stroke:#005F7F;stroke-width:1;"/><text fill="#000000" font-family="Padauk" font-size="14" font-weight="bold" lengthAdjust="spacing" textLength="88.6074" x="194" y="129.422">Data Types</text></g><!--cluster Primitives Based Algorithms--><g class="cluster" data-entity="Primitives Based Algorithms" data-source-line="19" data-uid="ent0015" id="cluster_Primitives Based Algorithms"><rect fill="#FAFAFA" height="109" rx="2.5" ry="2.5" style="stroke:#005F7F;stroke-width:1;" width="1033" x="7" y="263.4269"/><path d="M241.0684,263.4269 L241.0684,272.7238 L231.0684,282.7238 L7,282.7238" fill="none" style="stroke:#005F7F;stroke-width:1;"/><text fill="#000000" font-family="Padauk" font-size="14" font-weight="bold" lengthAdjust="spacing" textLength="224.0684" x="10" y="277.422">Primitives Based Algorithms</text></g><!--class Array--><g class="entity" data-entity="Array" data-source-line="8" data-uid="ent0003" id="entity_Array"><rect fill="#FAFAFA" height="48" rx="2.5" ry="2.5" style="stroke:#181818;stroke-width:0.5;" width="69.9531" x="564.02" y="150.4269"/><ellipse cx="579.02" cy="166.4269" fill="#FAFAFA" rx="11" ry="11" style="stroke:#181818;stroke-width:1;"/><path d="M581.9888,172.0675 Q581.4106,172.3644 580.77,172.505 Q580.1294,172.6613 579.4263,172.6613 Q576.9263,172.6613 575.5981,171.0206 Q574.2856,169.3644 574.2856,166.2394 Q574.2856,163.1144 575.5981,161.4581 Q576.9263,159.8019 579.4263,159.8019 Q580.1294,159.8019 580.77,159.9581 Q581.4263,160.1144 581.9888,160.4113 L581.9888,163.13 Q581.3638,162.5519 580.77,162.2863 Q580.1763,162.005 579.5513,162.005 Q578.2075,162.005 577.52,163.0831 Q576.8325,164.1456 576.8325,166.2394 Q576.8325,168.3331 577.52,169.4113 Q578.2075,170.4738 579.5513,170.4738 Q580.1763,170.4738 580.77,170.2081 Q581.3638,169.9269 581.9888,169.3488 L581.9888,172.0675 Z " fill="#000000"/><text fill="#000000" font-family="Padauk" font-size="14" lengthAdjust="spacing" textLength="37.9531" x="593.02" y="171.2736">Array</text><line style="stroke:#181818;stroke-width:0.5;" x1="565.02" x2="632.9731" y1="182.4269" y2="182.4269"/><line style="stroke:#181818;stroke-width:0.5;" x1="565.02" x2="632.9731" y1="190.4269" y2="190.4269"/></g><!--class String--><g class="entity" data-entity="String" data-source-line="9" data-uid="ent0004" id="entity_String"><rect fill="#FAFAFA" height="48" rx="2.5" ry="2.5" style="stroke:#181818;stroke-width:0.5;" width="73.7813" x="312.11" y="150.4269"/><ellipse cx="327.11" cy="166.4269" fill="#FAFAFA" rx="11" ry="11" style="stroke:#181818;stroke-width:1;"/><path d="M330.0788,172.0675 Q329.5006,172.3644 328.86,172.505 Q328.2194,172.6613 327.5163,172.6613 Q325.0163,172.6613 323.6881,171.0206 Q322.3756,169.3644 322.3756,166.2394 Q322.3756,163.1144 323.6881,161.4581 Q325.0163,159.8019 327.5163,159.8019 Q328.2194,159.8019 328.86,159.9581 Q329.5163,160.1144 330.0788,160.4113 L330.0788,163.13 Q329.4538,162.5519 328.86,162.2863 Q328.2663,162.005 327.6413,162.005 Q326.2975,162.005 325.61,163.0831 Q324.9225,164.1456 324.9225,166.2394 Q324.9225,168.3331 325.61,169.4113 Q326.2975,170.4738 327.6413,170.4738 Q328.2663,170.4738 328.86,170.2081 Q329.4538,169.9269 330.0788,169.3488 L330.0788,172.0675 Z " fill="#000000"/><text fill="#000000" font-family="Padauk" font-size="14" lengthAdjust="spacing" textLength="41.7813" x="341.11" y="171.2736">String</text><line style="stroke:#181818;stroke-width:0.5;" x1="313.11" x2="384.8913" y1="182.4269" y2="182.4269"/><line style="stroke:#181818;stroke-width:0.5;" x1="313.11" x2="384.8913" y1="190.4269" y2="190.4269"/></g><!--class Stack--><g class="entity" data-entity="Stack" data-source-line="10" data-uid="ent0005" id="entity_Stack"><rect fill="#FAFAFA" height="48" rx="2.5" ry="2.5" style="stroke:#181818;stroke-width:0.5;" width="70.7598" x="206.62" y="150.4269"/><ellipse cx="221.62" cy="166.4269" fill="#FAFAFA" rx="11" ry="11" style="stroke:#181818;stroke-width:1;"/><path d="M224.5888,172.0675 Q224.0106,172.3644 223.37,172.505 Q222.7294,172.6613 222.0263,172.6613 Q219.5263,172.6613 218.1981,171.0206 Q216.8856,169.3644 216.8856,166.2394 Q216.8856,163.1144 218.1981,161.4581 Q219.5263,159.8019 222.0263,159.8019 Q222.7294,159.8019 223.37,159.9581 Q224.0263,160.1144 224.5888,160.4113 L224.5888,163.13 Q223.9638,162.5519 223.37,162.2863 Q222.7763,162.005 222.1513,162.005 Q220.8075,162.005 220.12,163.0831 Q219.4325,164.1456 219.4325,166.2394 Q219.4325,168.3331 220.12,169.4113 Q220.8075,170.4738 222.1513,170.4738 Q222.7763,170.4738 223.37,170.2081 Q223.9638,169.9269 224.5888,169.3488 L224.5888,172.0675 Z " fill="#000000"/><text fill="#000000" font-family="Padauk" font-size="14" lengthAdjust="spacing" textLength="38.7598" x="235.62" y="171.2736">Stack</text><line style="stroke:#181818;stroke-width:0.5;" x1="207.62" x2="276.3798" y1="182.4269" y2="182.4269"/><line style="stroke:#181818;stroke-width:0.5;" x1="207.62" x2="276.3798" y1="190.4269" y2="190.4269"/></g><!--class Map--><g class="entity" data-entity="Map" data-source-line="11" data-uid="ent0006" id="entity_Map"><rect fill="#FAFAFA" height="48" rx="2.5" ry="2.5" style="stroke:#181818;stroke-width:0.5;" width="61.5449" x="758.23" y="150.4269"/><ellipse cx="773.23" cy="166.4269" fill="#FAFAFA" rx="11" ry="11" style="stroke:#181818;stroke-width:1;"/><path d="M776.1988,172.0675 Q775.6206,172.3644 774.98,172.505 Q774.3394,172.6613 773.6363,172.6613 Q771.1363,172.6613 769.8081,171.0206 Q768.4956,169.3644 768.4956,166.2394 Q768.4956,163.1144 769.8081,161.4581 Q771.1363,159.8019 773.6363,159.8019 Q774.3394,159.8019 774.98,159.9581 Q775.6363,160.1144 776.1988,160.4113 L776.1988,163.13 Q775.5738,162.5519 774.98,162.2863 Q774.3863,162.005 773.7613,162.005 Q772.4175,162.005 771.73,163.0831 Q771.0425,164.1456 771.0425,166.2394 Q771.0425,168.3331 771.73,169.4113 Q772.4175,170.4738 773.7613,170.4738 Q774.3863,170.4738 774.98,170.2081 Q775.5738,169.9269 776.1988,169.3488 L776.1988,172.0675 Z " fill="#000000"/><text fill="#000000" font-family="Padauk" font-size="14" lengthAdjust="spacing" textLength="29.5449" x="787.23" y="171.2736">Map</text><line style="stroke:#181818;stroke-width:0.5;" x1="759.23" x2="818.7749" y1="182.4269" y2="182.4269"/><line style="stroke:#181818;stroke-width:0.5;" x1="759.23" x2="818.7749" y1="190.4269" y2="190.4269"/></g><!--class Set--><g class="entity" data-entity="Set" data-source-line="12" data-uid="ent0007" id="entity_Set"><rect fill="#FAFAFA" height="48" rx="2.5" ry="2.5" style="stroke:#181818;stroke-width:0.5;" width="54.9893" x="668.51" y="150.4269"/><ellipse cx="683.51" cy="166.4269" fill="#FAFAFA" rx="11" ry="11" style="stroke:#181818;stroke-width:1;"/><path d="M686.4788,172.0675 Q685.9006,172.3644 685.26,172.505 Q684.6194,172.6613 683.9163,172.6613 Q681.4163,172.6613 680.0881,171.0206 Q678.7756,169.3644 678.7756,166.2394 Q678.7756,163.1144 680.0881,161.4581 Q681.4163,159.8019 683.9163,159.8019 Q684.6194,159.8019 685.26,159.9581 Q685.9163,160.1144 686.4788,160.4113 L686.4788,163.13 Q685.8538,162.5519 685.26,162.2863 Q684.6663,162.005 684.0413,162.005 Q682.6975,162.005 682.01,163.0831 Q681.3225,164.1456 681.3225,166.2394 Q681.3225,168.3331 682.01,169.4113 Q682.6975,170.4738 684.0413,170.4738 Q684.6663,170.4738 685.26,170.2081 Q685.8538,169.9269 686.4788,169.3488 L686.4788,172.0675 Z " fill="#000000"/><text fill="#000000" font-family="Padauk" font-size="14" lengthAdjust="spacing" textLength="22.9893" x="697.51" y="171.2736">Set</text><line style="stroke:#181818;stroke-width:0.5;" x1="669.51" x2="722.4993" y1="182.4269" y2="182.4269"/><line style="stroke:#181818;stroke-width:0.5;" x1="669.51" x2="722.4993" y1="190.4269" y2="190.4269"/></g><!--class IntegerBits--><g class="entity" data-entity="IntegerBits" data-source-line="13" data-uid="ent0008" id="entity_IntegerBits"><rect fill="#FAFAFA" height="48" rx="2.5" ry="2.5" style="stroke:#181818;stroke-width:0.5;" width="108.6377" x="420.68" y="150.4269"/><ellipse cx="435.68" cy="166.4269" fill="#FAFAFA" rx="11" ry="11" style="stroke:#181818;stroke-width:1;"/><path d="M438.6488,172.0675 Q438.0706,172.3644 437.43,172.505 Q436.7894,172.6613 436.0863,172.6613 Q433.5863,172.6613 432.2581,171.0206 Q430.9456,169.3644 430.9456,166.2394 Q430.9456,163.1144 432.2581,161.4581 Q433.5863,159.8019 436.0863,159.8019 Q436.7894,159.8019 437.43,159.9581 Q438.0863,160.1144 438.6488,160.4113 L438.6488,163.13 Q438.0238,162.5519 437.43,162.2863 Q436.8363,162.005 436.2113,162.005 Q434.8675,162.005 434.18,163.0831 Q433.4925,164.1456 433.4925,166.2394 Q433.4925,168.3331 434.18,169.4113 Q434.8675,170.4738 436.2113,170.4738 Q436.8363,170.4738 437.43,170.2081 Q438.0238,169.9269 438.6488,169.3488 L438.6488,172.0675 Z " fill="#000000"/><text fill="#000000" font-family="Padauk" font-size="14" lengthAdjust="spacing" textLength="76.6377" x="449.68" y="171.2736">IntegerBits</text><line style="stroke:#181818;stroke-width:0.5;" x1="421.68" x2="528.3177" y1="182.4269" y2="182.4269"/><line style="stroke:#181818;stroke-width:0.5;" x1="421.68" x2="528.3177" y1="190.4269" y2="190.4269"/></g><!--entity bit_manipulation--><g class="entity" data-entity="bit_manipulation" data-source-line="20" data-uid="ent0016" id="entity_bit_manipulation"><ellipse cx="216" cy="327.4269" fill="#FAFAFA" rx="8" ry="8" style="stroke:#181818;stroke-width:0.5;"/><text fill="#000000" font-family="Padauk" font-size="14" lengthAdjust="spacing" textLength="137.3613" x="147.3193" y="357.422">&lt;Bit Manipulation&gt;</text></g><!--entity buffers--><g class="entity" data-entity="buffers" data-source-line="21" data-uid="ent0017" id="entity_buffers"><ellipse cx="371" cy="327.4269" fill="#FAFAFA" rx="8" ry="8" style="stroke:#181818;stroke-width:0.5;"/><text fill="#000000" font-family="Padauk" font-size="14" lengthAdjust="spacing" textLength="73.459" x="334.2705" y="357.422">&lt;Buffers&gt;</text></g><!--entity hashing--><g class="entity" data-entity="hashing" data-source-line="22" data-uid="ent0018" id="entity_hashing"><ellipse cx="976" cy="327.4269" fill="#FAFAFA" rx="8" ry="8" style="stroke:#181818;stroke-width:0.5;"/><text fill="#000000" font-family="Padauk" font-size="14" lengthAdjust="spacing" textLength="80.3838" x="935.8081" y="357.422">&lt;Hashing&gt;</text></g><!--entity math_geometry--><g class="entity" data-entity="math_geometry" data-source-line="23" data-uid="ent0019" id="entity_math_geometry"><ellipse cx="785" cy="327.4269" fill="#FAFAFA" rx="8" ry="8" style="stroke:#181818;stroke-width:0.5;"/><text fill="#000000" font-family="Padauk" font-size="14" lengthAdjust="spacing" textLength="200.6348" x="684.6826" y="357.422">&lt;Math: Geometry (Simple)&gt;</text></g><!--entity math_number_theory--><g class="entity" data-entity="math_number_theory" data-source-line="24" data-uid="ent0020" id="entity_math_number_theory"><ellipse cx="546" cy="327.4269" fill="#FAFAFA" rx="8" ry="8" style="stroke:#181818;stroke-width:0.5;"/><text fill="#000000" font-family="Padauk" font-size="14" lengthAdjust="spacing" textLength="176.9824" x="457.5088" y="357.422">&lt;Math: Number Theory&gt;</text></g><!--entity regex--><g class="entity" data-entity="regex" data-source-line="25" data-uid="ent0021" id="entity_regex"><ellipse cx="64" cy="327.4269" fill="#FAFAFA" rx="8" ry="8" style="stroke:#181818;stroke-width:0.5;"/><text fill="#000000" font-family="Padauk" font-size="14" lengthAdjust="spacing" textLength="67.5869" x="30.2065" y="357.422">&lt;Regex&gt;</text></g><g class="entity" data-entity="GMN9" data-source-line="16" data-uid="ent0010" id="entity_GMN9"><path d="M719.73,43.2969 L719.73,68.4297 A0,0 0 0 0 719.73,68.4297 L785,68.4297 L789,150.0269 L793,68.4297 L858.2759,68.4297 A0,0 0 0 0 858.2759,68.4297 L858.2759,53.2969 L848.2759,43.2969 L719.73,43.2969 A0,0 0 0 0 719.73,43.2969" fill="#585858" style="stroke:#181818;stroke-width:0.5;"/><path d="M848.2759,43.2969 L848.2759,53.2969 L858.2759,53.2969 L848.2759,43.2969" fill="#585858" style="stroke:#181818;stroke-width:0.5;"/><text fill="#FAFAFA" font-family="Padauk" font-size="13" lengthAdjust="spacing" textLength="117.5459" x="725.73" y="60.3638">"hash&#8209;table / dict"</text></g><g class="entity" data-entity="GMN12" data-source-line="17" data-uid="ent0013" id="entity_GMN12"><path d="M388,43.2969 L388,68.4297 A0,0 0 0 0 388,68.4297 L471,68.4297 L475,150.0269 L479,68.4297 L561.9976,68.4297 A0,0 0 0 0 561.9976,68.4297 L561.9976,53.2969 L551.9976,43.2969 L388,43.2969 A0,0 0 0 0 388,43.2969" fill="#585858" style="stroke:#181818;stroke-width:0.5;"/><path d="M551.9976,43.2969 L551.9976,53.2969 L561.9976,53.2969 L551.9976,43.2969" fill="#585858" style="stroke:#181818;stroke-width:0.5;"/><text fill="#FAFAFA" font-family="Padauk" font-size="13" lengthAdjust="spacing" textLength="152.9976" x="394" y="60.3638">"bit vectors / word ops"</text></g><!--link IntegerBits to bit_manipulation--><g class="link" data-entity-1="IntegerBits" data-entity-2="bit_manipulation" data-source-line="29" data-uid="lnk23" id="link_IntegerBits_bit_manipulation"><path codeLine="29" d="M442.64,198.8969 C430.57,207.0069 416.51,215.7369 403,222.4269 C363.69,241.8869 348.62,234.6369 310,255.4269 C275.61,273.9469 244.6619,300.3344 228.9019,314.5744" fill="none" id="IntegerBits-to-bit_manipulation" style="stroke:#444444;stroke-width:2;"/><polygon fill="#444444" points="224.45,318.5969,233.8095,315.531,228.1599,315.2448,228.4462,309.5952,224.45,318.5969" style="stroke:#444444;stroke-width:2;"/></g><!--link Array to buffers--><g class="link" data-entity-1="Array" data-entity-2="buffers" data-source-line="30" data-uid="lnk25" id="link_Array_buffers"><path codeLine="30" d="M577.97,198.4569 C569.12,207.0069 558.27,216.1469 547,222.4269 C500.92,248.0969 477.48,227.0769 433,255.4269 C406.5,272.3169 388.0547,298.7156 378.8947,313.4056" fill="none" id="Array-to-buffers" style="stroke:#444444;stroke-width:1;"/><polygon fill="#444444" points="375.72,318.4969,383.8762,312.9764,378.3656,314.2541,377.0878,308.7435,375.72,318.4969" style="stroke:#444444;stroke-width:1;"/></g><!--link String to buffers--><g class="link" data-entity-1="String" data-entity-2="buffers" data-source-line="31" data-uid="lnk27" id="link_String_buffers"><path codeLine="31" d="M352.39,198.6869 C357.43,233.2669 365.7734,290.5898 368.9934,312.6498" fill="none" id="String-to-buffers" style="stroke:#444444;stroke-width:2;"/><polygon fill="#444444" points="369.86,318.5869,372.5181,309.1035,369.1378,313.6393,364.602,310.259,369.86,318.5869" style="stroke:#444444;stroke-width:2;"/></g><!--link Map to hashing--><g class="link" data-entity-1="Map" data-entity-2="hashing" data-source-line="32" data-uid="lnk29" id="link_Map_hashing"><path codeLine="32" d="M820.06,192.8569 C845.64,207.8869 882.26,230.9769 911,255.4269 C935.18,276.0069 955.5445,300.4436 966.3645,314.1036" fill="none" id="Map-to-hashing" style="stroke:#444444;stroke-width:2;"/><polygon fill="#444444" points="970.09,318.8069,967.6374,309.2683,966.9855,314.8875,961.3663,314.2356,970.09,318.8069" style="stroke:#444444;stroke-width:2;"/></g><!--link Set to hashing--><g class="link" data-entity-1="Set" data-entity-2="hashing" data-source-line="33" data-uid="lnk31" id="link_Set_hashing"><path codeLine="33" d="M712.99,198.5269 C720.61,207.3069 730.29,216.5869 741,222.4269 C743.11,223.5769 908.9,254.2469 911,255.4269 C939.29,271.2669 958.8322,298.8 968.1922,313.66" fill="none" id="Set-to-hashing" style="stroke:#444444;stroke-width:2;"/><polygon fill="#444444" points="971.39,318.7369,969.9779,308.9898,968.7252,314.5062,963.2088,313.2535,971.39,318.7369" style="stroke:#444444;stroke-width:2;"/></g><!--link Array to math_geometry--><g class="link" data-entity-1="Array" data-entity-2="math_geometry" data-source-line="34" data-uid="lnk33" id="link_Array_math_geometry"><path codeLine="34" d="M624.05,198.7669 C632.5,206.4369 642.05,214.9269 651,222.4269 C696.82,260.8269 749.4049,300.1506 771.2149,316.2706" fill="none" id="Array-to-math_geometry" style="stroke:#444444;stroke-width:1;"/><polygon fill="#444444" points="776.04,319.8369,771.1799,311.2707,772.0191,316.865,766.4248,317.7042,776.04,319.8369" style="stroke:#444444;stroke-width:1;"/></g><!--link Array to math_number_theory--><g class="link" data-entity-1="Array" data-entity-2="math_number_theory" data-source-line="35" data-uid="lnk35" id="link_Array_math_number_theory"><path codeLine="35" d="M590.83,198.6869 C578.7,233.2669 558.4764,290.8652 550.7364,312.9252" fill="none" id="Array-to-math_number_theory" style="stroke:#444444;stroke-width:1;"/><polygon fill="#444444" points="548.75,318.5869,555.5041,311.4187,550.4054,313.8689,547.9553,308.7701,548.75,318.5869" style="stroke:#444444;stroke-width:1;"/></g><!--link IntegerBits to math_number_theory--><g class="link" data-entity-1="IntegerBits" data-entity-2="math_number_theory" data-source-line="36" data-uid="lnk37" id="link_IntegerBits_math_number_theory"><path codeLine="36" d="M485.94,198.6869 C502.2,233.2669 529.3875,291.0969 539.7575,313.1569" fill="none" id="IntegerBits-to-math_number_theory" style="stroke:#444444;stroke-width:2;"/><polygon fill="#444444" points="542.31,318.5869,542.1012,308.7402,540.1829,314.0619,534.8612,312.1436,542.31,318.5869" style="stroke:#444444;stroke-width:2;"/></g><!--link String to regex--><g class="link" data-entity-1="String" data-entity-2="regex" data-source-line="37" data-uid="lnk39" id="link_String_regex"><path codeLine="37" d="M326.8,198.7369 C317.64,207.2269 306.49,216.2469 295,222.4269 C258.44,242.0969 245.81,239.8269 205,247.4269 C187,250.7769 139.18,246.8569 123,255.4269 C95.53,269.9869 78.5794,297.9343 70.6394,313.1943" fill="none" id="String-to-regex" style="stroke:#444444;stroke-width:2;"/><polygon fill="#444444" points="67.87,318.5169,75.5726,312.3792,70.1779,314.0814,68.4757,308.6867,67.87,318.5169" style="stroke:#444444;stroke-width:2;"/></g><!--link Stack to regex--><g class="link" data-entity-1="Stack" data-entity-2="regex" data-source-line="38" data-uid="lnk41" id="link_Stack_regex"><path codeLine="38" d="M206.45,176.4669 C167.71,179.6769 106.99,191.1369 75,230.4269 C53.71,256.5769 57.9801,294.9467 61.2701,312.7567" fill="none" id="Stack-to-regex" style="stroke:#444444;stroke-width:1;stroke-dasharray:7,7;"/><polygon fill="#444444" points="62.36,318.6569,64.6586,309.08,61.4517,313.7401,56.7917,310.5332,62.36,318.6569" style="stroke:#444444;stroke-width:1;"/><text fill="#000000" font-family="Padauk" font-size="13" lengthAdjust="spacing" textLength="120.231" x="80.1323" y="243.4938">balanced-brackets</text></g><!--SRC=[dPFDRjim3CVlUWhEbxO7s_SWA91sGBj3scBDRHW2sQPjOPObI7GwOnZGLnYm9-oJZFv8O6TTratmGIH_f4NghtUgJgicmyPLK19PluXZ9v-YGb7P98r7bvgQiAOeDJgspkpGXAcCLSO-HMtiCFTnYJBpiPQg7f58DReIWeaA0LPLOHmNr7uPNi9xIJBSj1Oz10zEQKLgn_ihwJ6Re44WXCYTr0X1bm9zIW3V1F1AA-azh9oJxSH-9AVgOkQGwPU9lPPs6aMQM1-upmBTbI8llWjH6q8WOy7aNTe2WbBwykNv1yc4cueXKoa5CsnIWV544Umm9UCyqq_6PM2i3mvDdUgzx_By0e8b5-FVryesbIHbwii0f0UklTKJxu5kyXoT7w71sCTk-VWydI5M3iO-jfPKBk06ZKPoBPm_Acqhl1XOpS5jCSRc6NUDJj31faJZsWbTz_ujzVvzoaSUpjS1Sjssct9y1Yy_dz_-0SZ3b835bB4okZlfvVIFfSvYSJp7JWsm31iRpkGmJX9cQnb-UbXjRhVNz-lr_TtdBcVGun_e3XW5Eax_DQ9Jw8bm9zdPVVprDB_Vnt_GnmFfxm_WH8kl4r5Ze-5H7eVumK0YArcdc8M9OmA97yil]--></g></svg>