<svg xmlns="http://www.w3.org/2000/svg" xmlns:xlink="http://www.w3.org/1999/xlink" contentStyleType="text/css" data-diagram-type="CLASS" height="406px" preserveAspectRatio="none" style="width:942px;height:406px;background:#FAFAFA;" version="1.1" viewBox="0 0 942 406" width="942px" zoomAndPan="magnify"><title>Algorithms&lt;-&gt; Data-Types "Primitives Based Algorithms""</title><defs/><g><rect fill="#FAFAFA" height="406" style="stroke:none;stroke-width:1;" width="942" x="0" y="0"/><text fill="#000000" font-family="Padauk" font-size="14" font-weight="bold" lengthAdjust="spacing" textLength="365.2168" x="281.3916" y="23.8086">Algorithms&lt;-&gt; Data-Types "Primitives Based Algorithms""</text><!--cluster Data Types--><g class="cluster" data-entity="Data Types" data-source-line="7" data-uid="ent0002" id="cluster_Data Types"><rect fill="#FAFAFA" height="103" rx="2.5" ry="2.5" style="stroke:#005F7F;stroke-width:1;" width="600" x="142" y="123.8145"/><path d="M220.6328,123.8145 L220.6328,137.4591 L210.6328,147.4591 L142,147.4591" fill="none" style="stroke:#005F7F;stroke-width:1;"/><text fill="#000000" font-family="Padauk" font-size="14" font-weight="bold" lengthAdjust="spacing" textLength="68.6328" x="145" y="138.6231">Data Types</text></g><!--cluster Primitives Based Algorithms--><g class="cluster" data-entity="Primitives Based Algorithms" data-source-line="19" data-uid="ent0015" id="cluster_Primitives Based Algorithms"><rect fill="#FAFAFA" height="121" rx="2.5" ry="2.5" style="stroke:#005F7F;stroke-width:1;" width="929" x="7" y="279.8145"/><path d="M186.832,279.8145 L186.832,293.4591 L176.832,303.4591 L7,303.4591" fill="none" style="stroke:#005F7F;stroke-width:1;"/><text fill="#000000" font-family="Padauk" font-size="14" font-weight="bold" lengthAdjust="spacing" textLength="169.832" x="10" y="294.6231">Primitives Based Algorithms</text></g><!--class Array--><g class="entity" data-entity="Array" data-source-line="8" data-uid="ent0003" id="entity_Array"><rect fill="#FAFAFA" height="48" rx="2.5" ry="2.5" style="stroke:#181818;stroke-width:0.5;" width="63.1719" x="485.41" y="162.8145"/><ellipse cx="500.41" cy="178.8145" fill="#FAFAFA" rx="11" ry="11" style="stroke:#181818;stroke-width:1;"/><path d="M500.5194,174.3458 Q499.5975,174.3458 498.8631,174.6583 Q498.1444,174.9708 497.6444,175.5645 Q497.1444,176.1427 496.8631,177.0177 Q496.5975,177.8927 496.5975,178.9864 Q496.5975,180.4239 497.035,181.4708 Q497.4881,182.5177 498.3319,183.0645 Q499.1913,183.6114 500.5038,183.6114 Q501.285,183.6114 501.9725,183.4864 Q502.6756,183.3458 503.6756,183.0333 L503.6756,184.9083 Q502.8163,185.2364 502.0506,185.3614 Q501.3006,185.4864 500.285,185.4864 Q498.3631,185.4864 497.0506,184.6895 Q495.7538,183.877 495.0975,182.4083 Q494.4413,180.9239 494.4413,178.9552 Q494.4413,177.5333 494.8319,176.3614 Q495.2381,175.1739 496.0194,174.2989 Q496.8006,173.4239 497.9413,172.9552 Q499.0819,172.4708 500.5506,172.4708 Q501.5038,172.4708 502.3944,172.6739 Q503.3006,172.8614 504.2381,173.3302 L503.41,175.1114 Q502.6288,174.7364 501.9725,174.5489 Q501.3163,174.3458 500.5194,174.3458 Z " fill="#000000"/><text fill="#000000" font-family="Padauk" font-size="14" lengthAdjust="spacing" textLength="31.1719" x="514.41" y="182.3009">Array</text><line style="stroke:#181818;stroke-width:0.5;" x1="486.41" x2="547.5819" y1="194.8145" y2="194.8145"/><line style="stroke:#181818;stroke-width:0.5;" x1="486.41" x2="547.5819" y1="202.8145" y2="202.8145"/></g><!--class String--><g class="entity" data-entity="String" data-source-line="9" data-uid="ent0004" id="entity_String"><rect fill="#FAFAFA" height="48" rx="2.5" ry="2.5" style="stroke:#181818;stroke-width:0.5;" width="65.6738" x="257.16" y="162.8145"/><ellipse cx="272.16" cy="178.8145" fill="#FAFAFA" rx="11" ry="11" style="stroke:#181818;stroke-width:1;"/><path d="M272.2694,174.3458 Q271.3475,174.3458 270.6131,174.6583 Q269.8944,174.9708 269.3944,175.5645 Q268.8944,176.1427 268.6131,177.0177 Q268.3475,177.8927 268.3475,178.9864 Q268.3475,180.4239 268.785,181.4708 Q269.2381,182.5177 270.0819,183.0645 Q270.9413,183.6114 272.2538,183.6114 Q273.035,183.6114 273.7225,183.4864 Q274.4256,183.3458 275.4256,183.0333 L275.4256,184.9083 Q274.5663,185.2364 273.8006,185.3614 Q273.0506,185.4864 272.035,185.4864 Q270.1131,185.4864 268.8006,184.6895 Q267.5038,183.877 266.8475,182.4083 Q266.1913,180.9239 266.1913,178.9552 Q266.1913,177.5333 266.5819,176.3614 Q266.9881,175.1739 267.7694,174.2989 Q268.5506,173.4239 269.6913,172.9552 Q270.8319,172.4708 272.3006,172.4708 Q273.2538,172.4708 274.1444,172.6739 Q275.0506,172.8614 275.9881,173.3302 L275.16,175.1114 Q274.3788,174.7364 273.7225,174.5489 Q273.0663,174.3458 272.2694,174.3458 Z " fill="#000000"/><text fill="#000000" font-family="Padauk" font-size="14" lengthAdjust="spacing" textLength="33.6738" x="286.16" y="182.3009">String</text><line style="stroke:#181818;stroke-width:0.5;" x1="258.16" x2="321.8338" y1="194.8145" y2="194.8145"/><line style="stroke:#181818;stroke-width:0.5;" x1="258.16" x2="321.8338" y1="202.8145" y2="202.8145"/></g><!--class Stack--><g class="entity" data-entity="Stack" data-source-line="10" data-uid="ent0005" id="entity_Stack"><rect fill="#FAFAFA" height="48" rx="2.5" ry="2.5" style="stroke:#181818;stroke-width:0.5;" width="63.4453" x="158.28" y="162.8145"/><ellipse cx="173.28" cy="178.8145" fill="#FAFAFA" rx="11" ry="11" style="stroke:#181818;stroke-width:1;"/><path d="M173.3894,174.3458 Q172.4675,174.3458 171.7331,174.6583 Q171.0144,174.9708 170.5144,175.5645 Q170.0144,176.1427 169.7331,177.0177 Q169.4675,177.8927 169.4675,178.9864 Q169.4675,180.4239 169.905,181.4708 Q170.3581,182.5177 171.2019,183.0645 Q172.0613,183.6114 173.3738,183.6114 Q174.155,183.6114 174.8425,183.4864 Q175.5456,183.3458 176.5456,183.0333 L176.5456,184.9083 Q175.6863,185.2364 174.9206,185.3614 Q174.1706,185.4864 173.155,185.4864 Q171.2331,185.4864 169.9206,184.6895 Q168.6238,183.877 167.9675,182.4083 Q167.3113,180.9239 167.3113,178.9552 Q167.3113,177.5333 167.7019,176.3614 Q168.1081,175.1739 168.8894,174.2989 Q169.6706,173.4239 170.8113,172.9552 Q171.9519,172.4708 173.4206,172.4708 Q174.3738,172.4708 175.2644,172.6739 Q176.1706,172.8614 177.1081,173.3302 L176.28,175.1114 Q175.4988,174.7364 174.8425,174.5489 Q174.1863,174.3458 173.3894,174.3458 Z " fill="#000000"/><text fill="#000000" font-family="Padauk" font-size="14" lengthAdjust="spacing" textLength="31.4453" x="187.28" y="182.3009">Stack</text><line style="stroke:#181818;stroke-width:0.5;" x1="159.28" x2="220.7253" y1="194.8145" y2="194.8145"/><line style="stroke:#181818;stroke-width:0.5;" x1="159.28" x2="220.7253" y1="202.8145" y2="202.8145"/></g><!--class Map--><g class="entity" data-entity="Map" data-source-line="11" data-uid="ent0006" id="entity_Map"><rect fill="#FAFAFA" height="48" rx="2.5" ry="2.5" style="stroke:#181818;stroke-width:0.5;" width="56.9512" x="669.52" y="162.8145"/><ellipse cx="684.52" cy="178.8145" fill="#FAFAFA" rx="11" ry="11" style="stroke:#181818;stroke-width:1;"/><path d="M684.6294,174.3458 Q683.7075,174.3458 682.9731,174.6583 Q682.2544,174.9708 681.7544,175.5645 Q681.2544,176.1427 680.9731,177.0177 Q680.7075,177.8927 680.7075,178.9864 Q680.7075,180.4239 681.145,181.4708 Q681.5981,182.5177 682.4419,183.0645 Q683.3013,183.6114 684.6138,183.6114 Q685.395,183.6114 686.0825,183.4864 Q686.7856,183.3458 687.7856,183.0333 L687.7856,184.9083 Q686.9263,185.2364 686.1606,185.3614 Q685.4106,185.4864 684.395,185.4864 Q682.4731,185.4864 681.1606,184.6895 Q679.8638,183.877 679.2075,182.4083 Q678.5513,180.9239 678.5513,178.9552 Q678.5513,177.5333 678.9419,176.3614 Q679.3481,175.1739 680.1294,174.2989 Q680.9106,173.4239 682.0513,172.9552 Q683.1919,172.4708 684.6606,172.4708 Q685.6138,172.4708 686.5044,172.6739 Q687.4106,172.8614 688.3481,173.3302 L687.52,175.1114 Q686.7388,174.7364 686.0825,174.5489 Q685.4263,174.3458 684.6294,174.3458 Z " fill="#000000"/><text fill="#000000" font-family="Padauk" font-size="14" lengthAdjust="spacing" textLength="24.9512" x="698.52" y="182.3009">Map</text><line style="stroke:#181818;stroke-width:0.5;" x1="670.52" x2="725.4712" y1="194.8145" y2="194.8145"/><line style="stroke:#181818;stroke-width:0.5;" x1="670.52" x2="725.4712" y1="202.8145" y2="202.8145"/></g><!--class Set--><g class="entity" data-entity="Set" data-source-line="12" data-uid="ent0007" id="entity_Set"><rect fill="#FAFAFA" height="48" rx="2.5" ry="2.5" style="stroke:#181818;stroke-width:0.5;" width="51.0996" x="583.45" y="162.8145"/><ellipse cx="598.45" cy="178.8145" fill="#FAFAFA" rx="11" ry="11" style="stroke:#181818;stroke-width:1;"/><path d="M598.5594,174.3458 Q597.6375,174.3458 596.9031,174.6583 Q596.1844,174.9708 595.6844,175.5645 Q595.1844,176.1427 594.9031,177.0177 Q594.6375,177.8927 594.6375,178.9864 Q594.6375,180.4239 595.075,181.4708 Q595.5281,182.5177 596.3719,183.0645 Q597.2313,183.6114 598.5438,183.6114 Q599.325,183.6114 600.0125,183.4864 Q600.7156,183.3458 601.7156,183.0333 L601.7156,184.9083 Q600.8563,185.2364 600.0906,185.3614 Q599.3406,185.4864 598.325,185.4864 Q596.4031,185.4864 595.0906,184.6895 Q593.7938,183.877 593.1375,182.4083 Q592.4813,180.9239 592.4813,178.9552 Q592.4813,177.5333 592.8719,176.3614 Q593.2781,175.1739 594.0594,174.2989 Q594.8406,173.4239 595.9813,172.9552 Q597.1219,172.4708 598.5906,172.4708 Q599.5438,172.4708 600.4344,172.6739 Q601.3406,172.8614 602.2781,173.3302 L601.45,175.1114 Q600.6688,174.7364 600.0125,174.5489 Q599.3563,174.3458 598.5594,174.3458 Z " fill="#000000"/><text fill="#000000" font-family="Padauk" font-size="14" lengthAdjust="spacing" textLength="19.0996" x="612.45" y="182.3009">Set</text><line style="stroke:#181818;stroke-width:0.5;" x1="584.45" x2="633.5496" y1="194.8145" y2="194.8145"/><line style="stroke:#181818;stroke-width:0.5;" x1="584.45" x2="633.5496" y1="202.8145" y2="202.8145"/></g><!--class IntegerBits--><g class="entity" data-entity="IntegerBits" data-source-line="13" data-uid="ent0008" id="entity_IntegerBits"><rect fill="#FAFAFA" height="48" rx="2.5" ry="2.5" style="stroke:#181818;stroke-width:0.5;" width="92.9492" x="357.53" y="162.8145"/><ellipse cx="372.53" cy="178.8145" fill="#FAFAFA" rx="11" ry="11" style="stroke:#181818;stroke-width:1;"/><path d="M372.6394,174.3458 Q371.7175,174.3458 370.9831,174.6583 Q370.2644,174.9708 369.7644,175.5645 Q369.2644,176.1427 368.9831,177.0177 Q368.7175,177.8927 368.7175,178.9864 Q368.7175,180.4239 369.155,181.4708 Q369.6081,182.5177 370.4519,183.0645 Q371.3113,183.6114 372.6238,183.6114 Q373.405,183.6114 374.0925,183.4864 Q374.7956,183.3458 375.7956,183.0333 L375.7956,184.9083 Q374.9363,185.2364 374.1706,185.3614 Q373.4206,185.4864 372.405,185.4864 Q370.4831,185.4864 369.1706,184.6895 Q367.8738,183.877 367.2175,182.4083 Q366.5613,180.9239 366.5613,178.9552 Q366.5613,177.5333 366.9519,176.3614 Q367.3581,175.1739 368.1394,174.2989 Q368.9206,173.4239 370.0613,172.9552 Q371.2019,172.4708 372.6706,172.4708 Q373.6238,172.4708 374.5144,172.6739 Q375.4206,172.8614 376.3581,173.3302 L375.53,175.1114 Q374.7488,174.7364 374.0925,174.5489 Q373.4363,174.3458 372.6394,174.3458 Z " fill="#000000"/><text fill="#000000" font-family="Padauk" font-size="14" lengthAdjust="spacing" textLength="60.9492" x="386.53" y="182.3009">IntegerBits</text><line style="stroke:#181818;stroke-width:0.5;" x1="358.53" x2="449.4792" y1="194.8145" y2="194.8145"/><line style="stroke:#181818;stroke-width:0.5;" x1="358.53" x2="449.4792" y1="202.8145" y2="202.8145"/></g><!--entity bit_manipulation--><g class="entity" data-entity="bit_manipulation" data-source-line="20" data-uid="ent0016" id="entity_bit_manipulation"><ellipse cx="198" cy="351.8145" fill="#FAFAFA" rx="8" ry="8" style="stroke:#181818;stroke-width:0.5;"/><text fill="#000000" font-family="Padauk" font-size="14" lengthAdjust="spacing" textLength="117.2363" x="139.3818" y="382.6231">&lt;Bit Manipulation&gt;</text></g><!--entity buffers--><g class="entity" data-entity="buffers" data-source-line="21" data-uid="ent0017" id="entity_buffers"><ellipse cx="339" cy="351.8145" fill="#FAFAFA" rx="8" ry="8" style="stroke:#181818;stroke-width:0.5;"/><text fill="#000000" font-family="Padauk" font-size="14" lengthAdjust="spacing" textLength="64.8867" x="306.5566" y="382.6231">&lt;Buffers&gt;</text></g><!--entity hashing--><g class="entity" data-entity="hashing" data-source-line="22" data-uid="ent0018" id="entity_hashing"><ellipse cx="878" cy="351.8145" fill="#FAFAFA" rx="8" ry="8" style="stroke:#181818;stroke-width:0.5;"/><text fill="#000000" font-family="Padauk" font-size="14" lengthAdjust="spacing" textLength="69.7676" x="843.1162" y="382.6231">&lt;Hashing&gt;</text></g><!--entity math_geometry--><g class="entity" data-entity="math_geometry" data-source-line="23" data-uid="ent0019" id="entity_math_geometry"><ellipse cx="708" cy="351.8145" fill="#FAFAFA" rx="8" ry="8" style="stroke:#181818;stroke-width:0.5;"/><text fill="#000000" font-family="Padauk" font-size="14" lengthAdjust="spacing" textLength="171.8828" x="622.0586" y="382.6231">&lt;Math: Geometry (Simple)&gt;</text></g><!--entity math_number_theory--><g class="entity" data-entity="math_number_theory" data-source-line="24" data-uid="ent0020" id="entity_math_number_theory"><ellipse cx="497" cy="351.8145" fill="#FAFAFA" rx="8" ry="8" style="stroke:#181818;stroke-width:0.5;"/><text fill="#000000" font-family="Padauk" font-size="14" lengthAdjust="spacing" textLength="150.6777" x="421.6611" y="382.6231">&lt;Math: Number Theory&gt;</text></g><!--entity regex--><g class="entity" data-entity="regex" data-source-line="25" data-uid="ent0021" id="entity_regex"><ellipse cx="60" cy="351.8145" fill="#FAFAFA" rx="8" ry="8" style="stroke:#181818;stroke-width:0.5;"/><text fill="#000000" font-family="Padauk" font-size="14" lengthAdjust="spacing" textLength="59.4316" x="30.2842" y="382.6231">&lt;Regex&gt;</text></g><g class="entity" data-entity="GMN9" data-source-line="16" data-uid="ent0010" id="entity_GMN9"><path d="M639.57,47.6445 L639.57,76.8145 A0,0 0 0 0 639.57,76.8145 L694,76.8145 L698,162.7445 L702,76.8145 L756.4323,76.8145 A0,0 0 0 0 756.4323,76.8145 L756.4323,57.6445 L746.4323,47.6445 L639.57,47.6445 A0,0 0 0 0 639.57,47.6445" fill="#585858" style="stroke:#181818;stroke-width:0.5;"/><path d="M746.4323,47.6445 L746.4323,57.6445 L756.4323,57.6445 L746.4323,47.6445" fill="#585858" style="stroke:#181818;stroke-width:0.5;"/><text fill="#FAFAFA" font-family="Padauk" font-size="13" lengthAdjust="spacing" textLength="95.8623" x="645.57" y="65.4668">"hash&#8209;table / dict"</text></g><g class="entity" data-entity="GMN12" data-source-line="17" data-uid="ent0013" id="entity_GMN12"><path d="M326.82,47.6445 L326.82,76.8145 A0,0 0 0 0 326.82,76.8145 L400,76.8145 L404,162.7445 L408,76.8145 L481.1716,76.8145 A0,0 0 0 0 481.1716,76.8145 L481.1716,57.6445 L471.1716,47.6445 L326.82,47.6445 A0,0 0 0 0 326.82,47.6445" fill="#585858" style="stroke:#181818;stroke-width:0.5;"/><path d="M471.1716,47.6445 L471.1716,57.6445 L481.1716,57.6445 L471.1716,47.6445" fill="#585858" style="stroke:#181818;stroke-width:0.5;"/><text fill="#FAFAFA" font-family="Padauk" font-size="13" lengthAdjust="spacing" textLength="133.3516" x="332.82" y="65.4668">"bit vectors / word ops"</text></g><!--link IntegerBits to bit_manipulation--><g class="link" data-entity-1="IntegerBits" data-entity-2="bit_manipulation" data-source-line="29" data-uid="lnk23" id="link_IntegerBits_bit_manipulation"><path codeLine="29" d="M373.04,211.1745 C362.65,218.8545 350.92,227.3345 340,234.8145 C314.78,252.0945 306.13,253.0345 282,271.8145 C251.67,295.4245 223.719,323.7107 209.579,338.5507" fill="none" id="IntegerBits-to-bit_manipulation" style="stroke:#444444;stroke-width:2;"/><polygon fill="#444444" points="205.44,342.8945,214.5443,339.1381,208.8891,339.2747,208.7525,333.6194,205.44,342.8945" style="stroke:#444444;stroke-width:2;"/></g><!--link Array to buffers--><g class="link" data-entity-1="Array" data-entity-2="buffers" data-source-line="30" data-uid="lnk25" id="link_Array_buffers"><path codeLine="30" d="M495.26,211.2445 C487.15,219.2645 477.58,227.9445 468,234.8145 C439.09,255.5645 424.01,248.6445 397,271.8145 C371.94,293.3045 354.4444,322.3333 346.0344,337.6733" fill="none" id="Array-to-buffers" style="stroke:#444444;stroke-width:1;"/><polygon fill="#444444" points="343.15,342.9345,350.9841,336.9657,345.5537,338.5502,343.9691,333.1198,343.15,342.9345" style="stroke:#444444;stroke-width:1;"/></g><!--link String to buffers--><g class="link" data-entity-1="String" data-entity-2="buffers" data-source-line="31" data-uid="lnk27" id="link_String_buffers"><path codeLine="31" d="M297.02,211.1645 C308.19,248.3145 327.7319,313.3488 334.8719,337.0888" fill="none" id="String-to-buffers" style="stroke:#444444;stroke-width:2;"/><polygon fill="#444444" points="336.6,342.8345,337.8384,333.0638,335.1599,338.0464,330.1774,335.368,336.6,342.8345" style="stroke:#444444;stroke-width:2;"/></g><!--link Map to hashing--><g class="link" data-entity-1="Map" data-entity-2="hashing" data-source-line="32" data-uid="lnk29" id="link_Map_hashing"><path codeLine="32" d="M726.83,204.1645 C752.64,219.6145 790.67,244.4545 819,271.8145 C842.89,294.8845 861.3291,323.2301 870.3791,338.0901" fill="none" id="Map-to-hashing" style="stroke:#444444;stroke-width:2;"/><polygon fill="#444444" points="873.5,343.2145,872.235,333.4473,870.8993,338.9441,865.4024,337.6084,873.5,343.2145" style="stroke:#444444;stroke-width:2;"/></g><!--link Set to hashing--><g class="link" data-entity-1="Set" data-entity-2="hashing" data-source-line="33" data-uid="lnk31" id="link_Set_hashing"><path codeLine="33" d="M625.56,211.2245 C632.77,219.8245 641.88,228.8945 652,234.8145 C701.24,263.5945 721.2,252.0345 777,263.8145 C795.59,267.7445 802.89,261.7445 819,271.8145 C847.74,289.7845 864.8093,321.7651 872.1993,337.8051" fill="none" id="Set-to-hashing" style="stroke:#444444;stroke-width:2;"/><polygon fill="#444444" points="874.71,343.2545,874.5769,333.4066,872.6178,338.7133,867.311,336.7542,874.71,343.2545" style="stroke:#444444;stroke-width:2;"/></g><!--link Array to math_geometry--><g class="link" data-entity-1="Array" data-entity-2="math_geometry" data-source-line="34" data-uid="lnk33" id="link_Array_math_geometry"><path codeLine="34" d="M540.57,211.1545 C548.52,218.8245 557.53,227.3145 566,234.8145 C614.86,278.0745 671.7779,322.7586 694.4179,340.3086" fill="none" id="Array-to-math_geometry" style="stroke:#444444;stroke-width:1;"/><polygon fill="#444444" points="699.16,343.9845,694.4975,335.3092,695.2083,340.9212,689.5962,341.632,699.16,343.9845" style="stroke:#444444;stroke-width:1;"/></g><!--link Array to math_number_theory--><g class="link" data-entity-1="Array" data-entity-2="math_number_theory" data-source-line="35" data-uid="lnk35" id="link_Array_math_number_theory"><path codeLine="35" d="M514.13,211.1645 C509.58,248.3145 501.62,313.1391 498.71,336.8791" fill="none" id="Array-to-math_number_theory" style="stroke:#444444;stroke-width:1;"/><polygon fill="#444444" points="497.98,342.8345,503.0453,334.3881,498.5883,337.8717,495.1047,333.4147,497.98,342.8345" style="stroke:#444444;stroke-width:1;"/></g><!--link IntegerBits to math_number_theory--><g class="link" data-entity-1="IntegerBits" data-entity-2="math_number_theory" data-source-line="36" data-uid="lnk37" id="link_IntegerBits_math_number_theory"><path codeLine="36" d="M417.32,211.1645 C438.52,248.3145 475.9274,313.8826 489.4674,337.6226" fill="none" id="IntegerBits-to-math_number_theory" style="stroke:#444444;stroke-width:2;"/><polygon fill="#444444" points="492.44,342.8345,491.4557,333.035,489.9629,338.4913,484.5065,336.9984,492.44,342.8345" style="stroke:#444444;stroke-width:2;"/></g><!--link String to regex--><g class="link" data-entity-1="String" data-entity-2="regex" data-source-line="37" data-uid="lnk39" id="link_String_regex"><path codeLine="37" d="M266.44,211.2745 C258.08,219.1245 248.4,227.6845 239,234.8145 C219.44,249.6445 215.24,255.9045 192,263.8145 C159.43,274.9045 144.63,254.3345 115,271.8145 C86.65,288.5445 71.5451,320.7166 65.0851,337.2366" fill="none" id="String-to-regex" style="stroke:#444444;stroke-width:2;"/><polygon fill="#444444" points="62.9,342.8245,69.903,335.8993,64.7209,338.1679,62.4524,332.9859,62.9,342.8245" style="stroke:#444444;stroke-width:2;"/></g><!--link Stack to regex--><g class="link" data-entity-1="Stack" data-entity-2="regex" data-source-line="38" data-uid="lnk41" id="link_Stack_regex"><path codeLine="38" d="M157.83,196.4245 C133.9,204.5045 102.32,218.9845 84,242.8145 C60.24,273.7245 58.9052,317.5268 59.4352,336.8168" fill="none" id="Stack-to-regex" style="stroke:#444444;stroke-width:1;stroke-dasharray:7.0,7.0;"/><polygon fill="#444444" points="59.6,342.8145,63.3513,333.7081,59.4627,337.8164,55.3543,333.9278,59.6,342.8145" style="stroke:#444444;stroke-width:1;"/><text fill="#000000" font-family="Padauk" font-size="13" lengthAdjust="spacing" textLength="97.8301" x="89.7988" y="256.6368">balanced-brackets</text></g><!--SRC=[dPFDRjim3CVlUWhEbxO7s_SWA91sGBj3scBDRHW2sQPjOPObI7GwOnZGLnYm9-oJZFv8O6TTratmGIH_f4NghtUgJgicmyPLK19PluXZ9v-YGb7P98r7bvgQiAOeDJgspkpGXAcCLSO-HMtiCFTnYJBpiPQg7f58DReIWeaA0LPLOHmNr7uPNi9xIJBSj1Oz10zEQKLgn_ihwJ6Re44WXCYTr0X1bm9zIW3V1F1AA-azh9oJxSH-9AVgOkQGwPU9lPPs6aMQM1-upmBTbI8llWjH6q8WOy7aNTe2WbBwykNv1yc4cueXKoa5CsnIWV544Umm9UCyqq_6PM2i3mvDdUgzx_By0e8b5-FVryesbIHbwii0f0UklTKJxu5kyXoT7w71sCTk-VWydI5M3iO-jfPKBk06ZKPoBPm_Acqhl1XOpS5jCSRc6NUDJj31faJZsWbTz_ujzVvzoaSUpjS1Sjssct9y1Yy_dz_-0SZ3b835bB4okZlfvVIFfSvYSJp7JWsm31iRpkGmJX9cQnb-UbXjRhVNz-lr_TtdBcVGun_e3XW5Eax_DQ9Jw8bm9zdPVVprDB_Vnt_GnmFfxm_WH8kl4r5Ze-5H7eVumK0YArcdc8M9OmA97yil]--></g></svg>