<svg xmlns="http://www.w3.org/2000/svg" xmlns:xlink="http://www.w3.org/1999/xlink" contentStyleType="text/css" data-diagram-type="CLASS" height="1223px" preserveAspectRatio="none" style="width:2042px;height:1223px;background:#FAFAFA;" version="1.1" viewBox="0 0 2042 1223" width="2042px" zoomAndPan="magnify"><title>Tree/Graph Based Algorithms</title><defs/><g><rect fill="#FAFAFA" height="1223" style="stroke:none;stroke-width:1;" width="2042" x="0" y="0"/><text fill="#000000" font-family="Padauk" font-size="14" font-weight="bold" lengthAdjust="spacing" textLength="181.0566" x="923.4717" y="23.8086">Tree/Graph Based Algorithms</text><!--cluster Linear Data Types--><g class="cluster" data-entity="Linear Data Types" data-source-line="6" data-uid="ent0002" id="cluster_Linear Data Types"><rect fill="#FAFAFA" height="117.99" rx="2.5" ry="2.5" style="stroke:#005F7F;stroke-width:1;" width="326" x="245" y="48.6445"/><path d="M365.6328,48.6445 L365.6328,62.2891 L355.6328,72.2891 L245,72.2891" fill="none" style="stroke:#005F7F;stroke-width:1;"/><text fill="#000000" font-family="Padauk" font-size="14" font-weight="bold" lengthAdjust="spacing" textLength="110.6328" x="248" y="63.4531">Linear Data Types</text></g><!--cluster Non-Linear Data Types--><g class="cluster" data-entity="Non-Linear Data Types" data-source-line="12" data-uid="ent0006" id="cluster_Non-Linear Data Types"><rect fill="#FAFAFA" height="103" rx="2.5" ry="2.5" style="stroke:#005F7F;stroke-width:1;" width="423" x="1491" y="56.1445"/><path d="M1642.1484,56.1445 L1642.1484,69.7891 L1632.1484,79.7891 L1491,79.7891" fill="none" style="stroke:#005F7F;stroke-width:1;"/><text fill="#000000" font-family="Padauk" font-size="14" font-weight="bold" lengthAdjust="spacing" textLength="141.1484" x="1494" y="70.9531">Non-Linear Data Types</text></g><!--cluster CORE--><g class="cluster" data-entity="CORE" data-source-line="19" data-uid="ent0011" id="cluster_CORE"><rect fill="#FAFAFA" height="325" rx="2.5" ry="2.5" style="stroke:#005F7F;stroke-width:1;" width="471" x="401" y="309.6345"/><path d="M506.2793,309.6345 L506.2793,323.2791 L496.2793,333.2791 L401,333.2791" fill="none" style="stroke:#005F7F;stroke-width:1;"/><text fill="#000000" font-family="Padauk" font-size="14" font-weight="bold" lengthAdjust="spacing" textLength="95.2793" x="404" y="324.4431">Core Paradigms</text></g><!--cluster TGA--><g class="cluster" data-entity="TGA" data-source-line="26" data-uid="ent0016" id="cluster_TGA"><rect fill="#FAFAFA" height="577" rx="2.5" ry="2.5" style="stroke:#005F7F;stroke-width:1;" width="298" x="1117" y="497.6345"/><path d="M1308.0566,497.6345 L1308.0566,511.2791 L1298.0566,521.2791 L1117,521.2791" fill="none" style="stroke:#005F7F;stroke-width:1;"/><text fill="#000000" font-family="Padauk" font-size="14" font-weight="bold" lengthAdjust="spacing" textLength="181.0566" x="1120" y="512.4431">Tree/Graph Based Algorithms</text></g><!--cluster Specialised Algorithms--><g class="cluster" data-entity="Specialised Algorithms" data-source-line="35" data-uid="ent0023" id="cluster_Specialised Algorithms"><rect fill="#FAFAFA" height="248" rx="2.5" ry="2.5" style="stroke:#005F7F;stroke-width:1;" width="568" x="7" y="969.6345"/><path d="M152.4473,969.6345 L152.4473,983.2791 L142.4473,993.2791 L7,993.2791" fill="none" style="stroke:#005F7F;stroke-width:1;"/><text fill="#000000" font-family="Padauk" font-size="14" font-weight="bold" lengthAdjust="spacing" textLength="135.4473" x="10" y="984.4431">Specialised Algorithms</text></g><!--class Array--><g class="entity" data-entity="Array" data-source-line="7" data-uid="ent0003" id="entity_Array"><rect fill="#FAFAFA" height="48" rx="2.5" ry="2.5" style="stroke:#181818;stroke-width:0.5;" width="63.1719" x="261.41" y="95.1445"/><ellipse cx="276.41" cy="111.1445" fill="#FAFAFA" rx="11" ry="11" style="stroke:#181818;stroke-width:1;"/><path d="M276.5194,106.6758 Q275.5975,106.6758 274.8631,106.9883 Q274.1444,107.3008 273.6444,107.8945 Q273.1444,108.4727 272.8631,109.3477 Q272.5975,110.2227 272.5975,111.3164 Q272.5975,112.7539 273.035,113.8008 Q273.4881,114.8477 274.3319,115.3945 Q275.1913,115.9414 276.5038,115.9414 Q277.285,115.9414 277.9725,115.8164 Q278.6756,115.6758 279.6756,115.3633 L279.6756,117.2383 Q278.8163,117.5664 278.0506,117.6914 Q277.3006,117.8164 276.285,117.8164 Q274.3631,117.8164 273.0506,117.0195 Q271.7538,116.207 271.0975,114.7383 Q270.4413,113.2539 270.4413,111.2852 Q270.4413,109.8633 270.8319,108.6914 Q271.2381,107.5039 272.0194,106.6289 Q272.8006,105.7539 273.9413,105.2852 Q275.0819,104.8008 276.5506,104.8008 Q277.5038,104.8008 278.3944,105.0039 Q279.3006,105.1914 280.2381,105.6602 L279.41,107.4414 Q278.6288,107.0664 277.9725,106.8789 Q277.3163,106.6758 276.5194,106.6758 Z " fill="#000000"/><text fill="#000000" font-family="Padauk" font-size="14" lengthAdjust="spacing" textLength="31.1719" x="290.41" y="114.6309">Array</text><line style="stroke:#181818;stroke-width:0.5;" x1="262.41" x2="323.5819" y1="127.1445" y2="127.1445"/><line style="stroke:#181818;stroke-width:0.5;" x1="262.41" x2="323.5819" y1="135.1445" y2="135.1445"/></g><!--class Map--><g class="entity" data-entity="Map" data-source-line="8" data-uid="ent0004" id="entity_Map"><rect fill="#FAFAFA" height="62.9886" rx="2.5" ry="2.5" style="stroke:#181818;stroke-width:0.5;" width="95.9325" x="360.03" y="87.6445"/><ellipse cx="375.03" cy="111.1389" fill="#FAFAFA" rx="11" ry="11" style="stroke:#181818;stroke-width:1;"/><path d="M375.1394,106.6701 Q374.2175,106.6701 373.4831,106.9826 Q372.7644,107.2951 372.2644,107.8889 Q371.7644,108.467 371.4831,109.342 Q371.2175,110.217 371.2175,111.3107 Q371.2175,112.7482 371.655,113.7951 Q372.1081,114.842 372.9519,115.3889 Q373.8113,115.9357 375.1238,115.9357 Q375.905,115.9357 376.5925,115.8107 Q377.2956,115.6701 378.2956,115.3576 L378.2956,117.2326 Q377.4363,117.5607 376.6706,117.6857 Q375.9206,117.8107 374.905,117.8107 Q372.9831,117.8107 371.6706,117.0139 Q370.3738,116.2014 369.7175,114.7326 Q369.0613,113.2482 369.0613,111.2795 Q369.0613,109.8576 369.4519,108.6857 Q369.8581,107.4982 370.6394,106.6232 Q371.4206,105.7482 372.5613,105.2795 Q373.7019,104.7951 375.1706,104.7951 Q376.1238,104.7951 377.0144,104.9982 Q377.9206,105.1857 378.8581,105.6545 L378.03,107.4357 Q377.2488,107.0607 376.5925,106.8732 Q375.9363,106.6701 375.1394,106.6701 Z " fill="#000000"/><text fill="#000000" font-family="sans-serif" font-size="12" font-style="italic" lengthAdjust="spacing" textLength="67.9325" x="387.03" y="105.4726">&#171;hash-table&#187;</text><text fill="#000000" font-family="Padauk" font-size="14" lengthAdjust="spacing" textLength="24.9512" x="408.5207" y="122.7972">Map</text><line style="stroke:#181818;stroke-width:0.5;" x1="361.03" x2="454.9625" y1="134.6332" y2="134.6332"/><line style="stroke:#181818;stroke-width:0.5;" x1="361.03" x2="454.9625" y1="142.6332" y2="142.6332"/></g><!--class Stack--><g class="entity" data-entity="Stack" data-source-line="9" data-uid="ent0005" id="entity_Stack"><rect fill="#FAFAFA" height="48" rx="2.5" ry="2.5" style="stroke:#181818;stroke-width:0.5;" width="63.4453" x="491.28" y="95.1445"/><ellipse cx="506.28" cy="111.1445" fill="#FAFAFA" rx="11" ry="11" style="stroke:#181818;stroke-width:1;"/><path d="M506.3894,106.6758 Q505.4675,106.6758 504.7331,106.9883 Q504.0144,107.3008 503.5144,107.8945 Q503.0144,108.4727 502.7331,109.3477 Q502.4675,110.2227 502.4675,111.3164 Q502.4675,112.7539 502.905,113.8008 Q503.3581,114.8477 504.2019,115.3945 Q505.0613,115.9414 506.3738,115.9414 Q507.155,115.9414 507.8425,115.8164 Q508.5456,115.6758 509.5456,115.3633 L509.5456,117.2383 Q508.6863,117.5664 507.9206,117.6914 Q507.1706,117.8164 506.155,117.8164 Q504.2331,117.8164 502.9206,117.0195 Q501.6238,116.207 500.9675,114.7383 Q500.3113,113.2539 500.3113,111.2852 Q500.3113,109.8633 500.7019,108.6914 Q501.1081,107.5039 501.8894,106.6289 Q502.6706,105.7539 503.8113,105.2852 Q504.9519,104.8008 506.4206,104.8008 Q507.3738,104.8008 508.2644,105.0039 Q509.1706,105.1914 510.1081,105.6602 L509.28,107.4414 Q508.4988,107.0664 507.8425,106.8789 Q507.1863,106.6758 506.3894,106.6758 Z " fill="#000000"/><text fill="#000000" font-family="Padauk" font-size="14" lengthAdjust="spacing" textLength="31.4453" x="520.28" y="114.6309">Stack</text><line style="stroke:#181818;stroke-width:0.5;" x1="492.28" x2="553.7253" y1="127.1445" y2="127.1445"/><line style="stroke:#181818;stroke-width:0.5;" x1="492.28" x2="553.7253" y1="135.1445" y2="135.1445"/></g><!--class Graph--><g class="entity" data-entity="Graph" data-source-line="13" data-uid="ent0007" id="entity_Graph"><rect fill="#FAFAFA" height="48" rx="2.5" ry="2.5" style="stroke:#181818;stroke-width:0.5;" width="66.6719" x="1831.66" y="95.1445"/><ellipse cx="1846.66" cy="111.1445" fill="#FAFAFA" rx="11" ry="11" style="stroke:#181818;stroke-width:1;"/><path d="M1846.7694,106.6758 Q1845.8475,106.6758 1845.1131,106.9883 Q1844.3944,107.3008 1843.8944,107.8945 Q1843.3944,108.4727 1843.1131,109.3477 Q1842.8475,110.2227 1842.8475,111.3164 Q1842.8475,112.7539 1843.285,113.8008 Q1843.7381,114.8477 1844.5819,115.3945 Q1845.4413,115.9414 1846.7538,115.9414 Q1847.535,115.9414 1848.2225,115.8164 Q1848.9256,115.6758 1849.9256,115.3633 L1849.9256,117.2383 Q1849.0663,117.5664 1848.3006,117.6914 Q1847.5506,117.8164 1846.535,117.8164 Q1844.6131,117.8164 1843.3006,117.0195 Q1842.0038,116.207 1841.3475,114.7383 Q1840.6913,113.2539 1840.6913,111.2852 Q1840.6913,109.8633 1841.0819,108.6914 Q1841.4881,107.5039 1842.2694,106.6289 Q1843.0506,105.7539 1844.1913,105.2852 Q1845.3319,104.8008 1846.8006,104.8008 Q1847.7538,104.8008 1848.6444,105.0039 Q1849.5506,105.1914 1850.4881,105.6602 L1849.66,107.4414 Q1848.8788,107.0664 1848.2225,106.8789 Q1847.5663,106.6758 1846.7694,106.6758 Z " fill="#000000"/><text fill="#000000" font-family="Padauk" font-size="14" lengthAdjust="spacing" textLength="34.6719" x="1860.66" y="114.6309">Graph</text><line style="stroke:#181818;stroke-width:0.5;" x1="1832.66" x2="1897.3319" y1="127.1445" y2="127.1445"/><line style="stroke:#181818;stroke-width:0.5;" x1="1832.66" x2="1897.3319" y1="135.1445" y2="135.1445"/></g><!--class Heap--><g class="entity" data-entity="Heap" data-source-line="14" data-uid="ent0008" id="entity_Heap"><rect fill="#FAFAFA" height="48" rx="2.5" ry="2.5" style="stroke:#181818;stroke-width:0.5;" width="61.4355" x="1735.28" y="95.1445"/><ellipse cx="1750.28" cy="111.1445" fill="#FAFAFA" rx="11" ry="11" style="stroke:#181818;stroke-width:1;"/><path d="M1753.6238,116.3945 L1752.155,112.6445 L1747.7175,112.6445 L1746.28,116.3945 L1744.155,116.3945 L1749.1081,103.6758 L1750.8581,103.6758 L1755.78,116.3945 L1753.6238,116.3945 Z M1750.28,107.4414 Q1750.2331,107.2852 1750.1081,106.9258 Q1749.9831,106.5664 1749.8738,106.1914 Q1749.7644,105.8008 1749.9675,105.7383 Q1750.1238,105.9258 1750.03,106.2852 Q1749.9363,106.6289 1749.8425,106.9258 Q1749.7488,107.207 1749.6706,107.4414 L1748.4363,110.7539 L1751.5144,110.7539 L1750.28,107.4414 Z " fill="#000000"/><text fill="#000000" font-family="Padauk" font-size="14" font-style="italic" lengthAdjust="spacing" textLength="29.4355" x="1764.28" y="114.6309">Heap</text><line style="stroke:#181818;stroke-width:0.5;" x1="1736.28" x2="1795.7155" y1="127.1445" y2="127.1445"/><line style="stroke:#181818;stroke-width:0.5;" x1="1736.28" x2="1795.7155" y1="135.1445" y2="135.1445"/></g><!--class UnionFind--><g class="entity" data-entity="UnionFind" data-source-line="15" data-uid="ent0009" id="entity_UnionFind"><rect fill="#FAFAFA" height="48" rx="2.5" ry="2.5" style="stroke:#181818;stroke-width:0.5;" width="88.8066" x="1611.6" y="95.1445"/><ellipse cx="1626.6" cy="111.1445" fill="#FAFAFA" rx="11" ry="11" style="stroke:#181818;stroke-width:1;"/><path d="M1626.7094,106.6758 Q1625.7875,106.6758 1625.0531,106.9883 Q1624.3344,107.3008 1623.8344,107.8945 Q1623.3344,108.4727 1623.0531,109.3477 Q1622.7875,110.2227 1622.7875,111.3164 Q1622.7875,112.7539 1623.225,113.8008 Q1623.6781,114.8477 1624.5219,115.3945 Q1625.3813,115.9414 1626.6938,115.9414 Q1627.475,115.9414 1628.1625,115.8164 Q1628.8656,115.6758 1629.8656,115.3633 L1629.8656,117.2383 Q1629.0063,117.5664 1628.2406,117.6914 Q1627.4906,117.8164 1626.475,117.8164 Q1624.5531,117.8164 1623.2406,117.0195 Q1621.9438,116.207 1621.2875,114.7383 Q1620.6313,113.2539 1620.6313,111.2852 Q1620.6313,109.8633 1621.0219,108.6914 Q1621.4281,107.5039 1622.2094,106.6289 Q1622.9906,105.7539 1624.1313,105.2852 Q1625.2719,104.8008 1626.7406,104.8008 Q1627.6938,104.8008 1628.5844,105.0039 Q1629.4906,105.1914 1630.4281,105.6602 L1629.6,107.4414 Q1628.8188,107.0664 1628.1625,106.8789 Q1627.5063,106.6758 1626.7094,106.6758 Z " fill="#000000"/><text fill="#000000" font-family="Padauk" font-size="14" lengthAdjust="spacing" textLength="56.8066" x="1640.6" y="114.6309">UnionFind</text><line style="stroke:#181818;stroke-width:0.5;" x1="1612.6" x2="1699.4066" y1="127.1445" y2="127.1445"/><line style="stroke:#181818;stroke-width:0.5;" x1="1612.6" x2="1699.4066" y1="135.1445" y2="135.1445"/></g><!--class Queue--><g class="entity" data-entity="Queue" data-source-line="16" data-uid="ent0010" id="entity_Queue"><rect fill="#FAFAFA" height="48" rx="2.5" ry="2.5" style="stroke:#181818;stroke-width:0.5;" width="69.0645" x="1507.47" y="95.1445"/><ellipse cx="1522.47" cy="111.1445" fill="#FAFAFA" rx="11" ry="11" style="stroke:#181818;stroke-width:1;"/><path d="M1522.5794,106.6758 Q1521.6575,106.6758 1520.9231,106.9883 Q1520.2044,107.3008 1519.7044,107.8945 Q1519.2044,108.4727 1518.9231,109.3477 Q1518.6575,110.2227 1518.6575,111.3164 Q1518.6575,112.7539 1519.095,113.8008 Q1519.5481,114.8477 1520.3919,115.3945 Q1521.2513,115.9414 1522.5638,115.9414 Q1523.345,115.9414 1524.0325,115.8164 Q1524.7356,115.6758 1525.7356,115.3633 L1525.7356,117.2383 Q1524.8763,117.5664 1524.1106,117.6914 Q1523.3606,117.8164 1522.345,117.8164 Q1520.4231,117.8164 1519.1106,117.0195 Q1517.8138,116.207 1517.1575,114.7383 Q1516.5013,113.2539 1516.5013,111.2852 Q1516.5013,109.8633 1516.8919,108.6914 Q1517.2981,107.5039 1518.0794,106.6289 Q1518.8606,105.7539 1520.0013,105.2852 Q1521.1419,104.8008 1522.6106,104.8008 Q1523.5638,104.8008 1524.4544,105.0039 Q1525.3606,105.1914 1526.2981,105.6602 L1525.47,107.4414 Q1524.6888,107.0664 1524.0325,106.8789 Q1523.3763,106.6758 1522.5794,106.6758 Z " fill="#000000"/><text fill="#000000" font-family="Padauk" font-size="14" lengthAdjust="spacing" textLength="37.0645" x="1536.47" y="114.6309">Queue</text><line style="stroke:#181818;stroke-width:0.5;" x1="1508.47" x2="1575.5345" y1="127.1445" y2="127.1445"/><line style="stroke:#181818;stroke-width:0.5;" x1="1508.47" x2="1575.5345" y1="135.1445" y2="135.1445"/></g><!--entity binary_search--><g class="entity" data-entity="binary_search" data-source-line="20" data-uid="ent0012" id="entity_binary_search"><ellipse cx="690" cy="577.6345" fill="#FAFAFA" rx="8" ry="8" style="stroke:#181818;stroke-width:0.5;"/><text fill="#000000" font-family="Padauk" font-size="14" lengthAdjust="spacing" textLength="104.4258" x="637.7871" y="608.4431">&lt;Binary Search&gt;</text></g><!--entity divide_and_conquer--><g class="entity" data-entity="divide_and_conquer" data-source-line="21" data-uid="ent0013" id="entity_divide_and_conquer"><ellipse cx="709" cy="389.6345" fill="#FAFAFA" rx="8" ry="8" style="stroke:#181818;stroke-width:0.5;"/><text fill="#000000" font-family="Padauk" font-size="14" lengthAdjust="spacing" textLength="126.7656" x="645.6172" y="420.4431">&lt;Divide &amp; Conquer&gt;</text></g><!--entity dynamic_programming--><g class="entity" data-entity="dynamic_programming" data-source-line="22" data-uid="ent0014" id="entity_dynamic_programming"><ellipse cx="510" cy="577.6345" fill="#FAFAFA" rx="8" ry="8" style="stroke:#181818;stroke-width:0.5;"/><text fill="#000000" font-family="Padauk" font-size="14" lengthAdjust="spacing" textLength="154.8066" x="432.5967" y="608.4431">&lt;Dynamic Programming&gt;</text></g><!--entity jump_search--><g class="entity" data-entity="jump_search" data-source-line="23" data-uid="ent0015" id="entity_jump_search"><ellipse cx="544" cy="389.6345" fill="#FAFAFA" rx="8" ry="8" style="stroke:#181818;stroke-width:0.5;"/><text fill="#000000" font-family="Padauk" font-size="14" lengthAdjust="spacing" textLength="100.9121" x="493.5439" y="420.4431">&lt;Jump Search&gt;</text></g><!--entity dijkstra--><g class="entity" data-entity="dijkstra" data-source-line="27" data-uid="ent0017" id="entity_dijkstra"><ellipse cx="1275" cy="1041.6345" fill="#FAFAFA" rx="8" ry="8" style="stroke:#181818;stroke-width:0.5;"/><text fill="#000000" font-family="Padauk" font-size="14" lengthAdjust="spacing" textLength="66.9922" x="1241.5039" y="1072.4431">&lt;Dijkstra&gt;</text></g><!--entity graphing--><g class="entity" data-entity="graphing" data-source-line="28" data-uid="ent0018" id="entity_graphing"><ellipse cx="1194" cy="869.6345" fill="#FAFAFA" rx="8" ry="8" style="stroke:#181818;stroke-width:0.5;"/><text fill="#000000" font-family="Padauk" font-size="14" lengthAdjust="spacing" textLength="75.9883" x="1156.0059" y="900.4431">&lt;Graphing&gt;</text></g><!--entity priority--><g class="entity" data-entity="priority" data-source-line="29" data-uid="ent0019" id="entity_priority"><ellipse cx="1351" cy="869.6345" fill="#FAFAFA" rx="8" ry="8" style="stroke:#181818;stroke-width:0.5;"/><text fill="#000000" font-family="Padauk" font-size="14" lengthAdjust="spacing" textLength="64.3125" x="1318.8438" y="900.4431">&lt;Priority&gt;</text></g><!--entity pathing--><g class="entity" data-entity="pathing" data-source-line="30" data-uid="ent0020" id="entity_pathing"><ellipse cx="1346" cy="722.6345" fill="#FAFAFA" rx="8" ry="8" style="stroke:#181818;stroke-width:0.5;"/><text fill="#000000" font-family="Padauk" font-size="14" lengthAdjust="spacing" textLength="66.8691" x="1312.5654" y="753.4431">&lt;Pathing&gt;</text></g><!--entity sorting--><g class="entity" data-entity="sorting" data-source-line="31" data-uid="ent0021" id="entity_sorting"><ellipse cx="1200" cy="577.6345" fill="#FAFAFA" rx="8" ry="8" style="stroke:#181818;stroke-width:0.5;"/><text fill="#000000" font-family="Padauk" font-size="14" lengthAdjust="spacing" textLength="65.2285" x="1167.3857" y="608.4431">&lt;Sorting&gt;</text></g><!--entity topo_sort--><g class="entity" data-entity="topo_sort" data-source-line="32" data-uid="ent0022" id="entity_topo_sort"><ellipse cx="1216" cy="722.6345" fill="#FAFAFA" rx="8" ry="8" style="stroke:#181818;stroke-width:0.5;"/><text fill="#000000" font-family="Padauk" font-size="14" lengthAdjust="spacing" textLength="118.3848" x="1156.8076" y="753.4431">&lt;Topological Sort&gt;</text></g><!--entity combinatorics--><g class="entity" data-entity="combinatorics" data-source-line="36" data-uid="ent0024" id="entity_combinatorics"><ellipse cx="102" cy="1041.6345" fill="#FAFAFA" rx="8" ry="8" style="stroke:#181818;stroke-width:0.5;"/><text fill="#000000" font-family="Padauk" font-size="14" lengthAdjust="spacing" textLength="142.3105" x="30.8447" y="1072.4431">&lt;Math: Combinatorics&gt;</text></g><!--entity math_geometry--><g class="entity" data-entity="math_geometry" data-source-line="37" data-uid="ent0025" id="entity_math_geometry"><ellipse cx="460" cy="1041.6345" fill="#FAFAFA" rx="8" ry="8" style="stroke:#181818;stroke-width:0.5;"/><text fill="#000000" font-family="Padauk" font-size="14" lengthAdjust="spacing" textLength="183.1758" x="368.4121" y="1072.4431">&lt;Math: Geometry (Complex)&gt;</text></g><!--entity simulation_design--><g class="entity" data-entity="simulation_design" data-source-line="38" data-uid="ent0026" id="entity_simulation_design"><ellipse cx="377" cy="1168.6345" fill="#FAFAFA" rx="8" ry="8" style="stroke:#181818;stroke-width:0.5;"/><text fill="#000000" font-family="Padauk" font-size="14" lengthAdjust="spacing" textLength="139.5488" x="307.2256" y="1199.4431">&lt;Simulation / Design&gt;</text></g><!--entity constructive_algos--><g class="entity" data-entity="constructive_algos" data-source-line="39" data-uid="ent0027" id="entity_constructive_algos"><ellipse cx="271" cy="1041.6345" fill="#FAFAFA" rx="8" ry="8" style="stroke:#181818;stroke-width:0.5;"/><text fill="#000000" font-family="Padauk" font-size="14" lengthAdjust="spacing" textLength="95.2793" x="223.3604" y="1072.4431">&lt;Constructive&gt;</text></g><!--link Array to combinatorics--><g class="link" data-entity-1="Array" data-entity-2="combinatorics" data-source-line="43" data-uid="lnk29" id="link_Array_combinatorics"><path codeLine="43" d="M261.03,122.9245 C206.66,129.6045 102,151.7445 102,223.1345 C102,223.1345 102,223.1345 102,870.6345 C102,933.2045 102,1002.7245 102,1026.8445" fill="none" id="Array-to-combinatorics" style="stroke:#005F7F;stroke-width:1;"/><polygon fill="#005F7F" points="102,1032.8445,106,1023.8445,102,1027.8445,98,1023.8445,102,1032.8445" style="stroke:#005F7F;stroke-width:1;"/></g><!--link Array to constructive_algos--><g class="link" data-entity-1="Array" data-entity-2="constructive_algos" data-source-line="44" data-uid="lnk31" id="link_Array_constructive_algos"><path codeLine="44" d="M261.16,131.5345 C225.61,146.5345 173,176.5945 173,223.1345 C173,223.1345 173,223.1345 173,870.6345 C173,941.8345 233.959,1005.9636 257.939,1028.6236" fill="none" id="Array-to-constructive_algos" style="stroke:#005F7F;stroke-width:1;"/><polygon fill="#005F7F" points="262.3,1032.7445,258.5058,1023.6558,258.6659,1029.3104,253.0113,1029.4705,262.3,1032.7445" style="stroke:#005F7F;stroke-width:1;"/></g><!--link Stack to divide_and_conquer--><g class="link" data-entity-1="Stack" data-entity-2="divide_and_conquer" data-source-line="45" data-uid="lnk33" id="link_Stack_divide_and_conquer"><path codeLine="45" d="M539.18,143.4945 C578.78,200.6545 675.6834,340.5423 700.1434,375.8523" fill="none" id="Stack-to-divide_and_conquer" style="stroke:#005F7F;stroke-width:1;stroke-dasharray:7.0,7.0;"/><polygon fill="#005F7F" points="703.56,380.7845,701.7232,371.1085,700.7128,376.6744,695.1469,375.664,703.56,380.7845" style="stroke:#005F7F;stroke-width:1;"/><text fill="#000000" font-family="Padauk" font-size="13" lengthAdjust="spacing" textLength="80.4756" x="603.1" y="227.4568">recursion stack</text></g><!--link UnionFind to divide_and_conquer--><g class="link" data-entity-1="UnionFind" data-entity-2="divide_and_conquer" data-source-line="46" data-uid="lnk35" id="link_UnionFind_divide_and_conquer"><path codeLine="46" d="M1635.59,143.5445 C1624.45,154.7745 1609.74,167.3545 1594,174.6345 C1588.84,177.0245 788.92,290.7845 784,293.6345 C747.07,314.9845 724.1565,356.8102 715.1665,375.4502" fill="none" id="UnionFind-to-divide_and_conquer" style="stroke:#CBDB2A;stroke-width:1;stroke-dasharray:7.0,7.0;"/><polygon fill="#CBDB2A" points="712.56,380.8545,720.0726,374.4857,714.7321,376.351,712.8668,371.0105,712.56,380.8545" style="stroke:#CBDB2A;stroke-width:1;"/><text fill="#000000" font-family="Padauk" font-size="13" lengthAdjust="spacing" textLength="161.2939" x="1321.89" y="227.4568">DSU-on-tree / offline queries</text></g><!--link Map to dynamic_programming--><g class="link" data-entity-1="Map" data-entity-2="dynamic_programming" data-source-line="47" data-uid="lnk37" id="link_Map_dynamic_programming"><path codeLine="47" d="M413.06,151.1345 C423.41,212.9345 448.6,355.7445 479,473.6345 C488.23,509.4345 499.8615,545.7729 505.5015,562.9829" fill="none" id="Map-to-dynamic_programming" style="stroke:#005F7F;stroke-width:2;"/><polygon fill="#005F7F" points="507.37,568.6845,508.3683,558.8864,505.8129,563.9332,500.7661,561.3778,507.37,568.6845" style="stroke:#005F7F;stroke-width:2;"/></g><!--link Graph to graphing--><g class="link" data-entity-1="Graph" data-entity-2="graphing" data-source-line="48" data-uid="lnk39" id="link_Graph_graphing"><path codeLine="48" d="M1898.59,125.0845 C1948.13,134.4845 2035,159.9845 2035,223.1345 C2035,223.1345 2035,223.1345 2035,659.6345 C2035,828.9345 1457.07,791.1345 1294,836.6345 C1259.94,846.1345 1225.7421,857.6583 1208.4321,863.6283" fill="none" id="Graph-to-graphing" style="stroke:#00BAC6;stroke-width:2;"/><polygon fill="#00BAC6" points="1202.76,865.5845,1212.5724,866.4316,1207.4868,863.9543,1209.964,858.8687,1202.76,865.5845" style="stroke:#00BAC6;stroke-width:2;"/></g><!--link UnionFind to graphing--><g class="link" data-entity-1="UnionFind" data-entity-2="graphing" data-source-line="49" data-uid="lnk41" id="link_UnionFind_graphing"><path codeLine="49" d="M1654.67,143.4945 C1652.26,176.0945 1645.76,236.7545 1629,285.6345 C1551.87,510.6445 1533.26,579.8545 1373,755.6345 C1320.26,813.4845 1236.9143,851.001 1208.5343,862.741" fill="none" id="UnionFind-to-graphing" style="stroke:#CBDB2A;stroke-width:2;"/><polygon fill="#CBDB2A" points="1202.99,865.0345,1212.8355,865.2905,1207.6103,863.1233,1209.7775,857.898,1202.99,865.0345" style="stroke:#CBDB2A;stroke-width:2;"/><text fill="#000000" font-family="Padauk" font-size="13" lengthAdjust="spacing" textLength="124.5029" x="1570.98" y="466.4568">connected components</text></g><!--link Array to jump_search--><g class="link" data-entity-1="Array" data-entity-2="jump_search" data-source-line="50" data-uid="lnk43" id="link_Array_jump_search"><path codeLine="50" d="M285.49,143.3145 C279.05,167.7045 273.07,206.4045 289,234.6345 C345.68,335.0745 491.279,375.9704 529.379,385.2104" fill="none" id="Array-to-jump_search" style="stroke:#005F7F;stroke-width:1;"/><polygon fill="#005F7F" points="535.21,386.6245,527.4063,380.616,530.3509,385.4461,525.5208,388.3907,535.21,386.6245" style="stroke:#005F7F;stroke-width:1;"/></g><!--link Graph to pathing--><g class="link" data-entity-1="Graph" data-entity-2="pathing" data-source-line="51" data-uid="lnk45" id="link_Graph_pathing"><path codeLine="51" d="M1898.79,137.4645 C1927.47,154.8545 1964,184.5645 1964,223.1345 C1964,223.1345 1964,223.1345 1964,464.1345 C1964,602.1645 1437.9896,704.6216 1361.1196,718.8616" fill="none" id="Graph-to-pathing" style="stroke:#00BAC6;stroke-width:2;"/><polygon fill="#00BAC6" points="1355.22,719.9545,1364.798,722.2483,1360.1364,719.0438,1363.3408,714.3821,1355.22,719.9545" style="stroke:#00BAC6;stroke-width:2;"/></g><!--link Queue to pathing--><g class="link" data-entity-1="Queue" data-entity-2="pathing" data-source-line="52" data-uid="lnk47" id="link_Queue_pathing"><path codeLine="52" d="M1507.41,121.1045 C1450.28,124.7745 1337.49,141.3445 1287,213.6345 C1281.66,221.2845 1286.4,225.3245 1287,234.6345 C1290.56,289.8645 1312.35,426.6845 1319,481.6345 C1329.98,572.3745 1341.203,676.6484 1344.483,707.3684" fill="none" id="Queue-to-pathing" style="stroke:#00BAC6;stroke-width:1;stroke-dasharray:7.0,7.0;"/><polygon fill="#00BAC6" points="1345.12,713.3345,1348.1419,703.9607,1344.5892,708.3628,1340.1871,704.8101,1345.12,713.3345" style="stroke:#00BAC6;stroke-width:1;"/><text fill="#000000" font-family="Padauk" font-size="13" lengthAdjust="spacing" textLength="108.5068" x="1316.7388" y="392.9568">BFS / shortest path</text></g><!--link Heap to priority--><g class="link" data-entity-1="Heap" data-entity-2="priority" data-source-line="53" data-uid="lnk49" id="link_Heap_priority"><path codeLine="53" d="M1784,143.5645 C1792.47,153.7645 1803.1,165.4645 1814,174.6345 C1845.52,201.1645 1893,181.9345 1893,223.1345 C1893,223.1345 1893,223.1345 1893,464.1345 C1893,652.8545 1807.83,716.5445 1642,806.6345 C1541.46,861.2545 1403.0487,867.6516 1365.9487,868.4116" fill="none" id="Heap-to-priority" style="stroke:#00BAC6;stroke-width:2;"/><polygon fill="#00BAC6" points="1359.95,868.5345,1369.03,872.3494,1364.949,868.4321,1368.8662,864.351,1359.95,868.5345" style="stroke:#00BAC6;stroke-width:2;"/></g><!--link UnionFind to priority--><g class="link" data-entity-1="UnionFind" data-entity-2="priority" data-source-line="54" data-uid="lnk51" id="link_UnionFind_priority"><path codeLine="54" d="M1663.77,143.3745 C1695.03,241.5945 1800.72,626.0245 1606,806.6345 C1568.51,841.4145 1406.6296,862.1797 1365.8896,866.9297" fill="none" id="UnionFind-to-priority" style="stroke:#CBDB2A;stroke-width:1;stroke-dasharray:7.0,7.0;"/><polygon fill="#CBDB2A" points="1359.93,867.6245,1369.3327,870.5553,1364.8964,867.0455,1368.4062,862.6092,1359.93,867.6245" style="stroke:#CBDB2A;stroke-width:1;"/><text fill="#000000" font-family="Padauk" font-size="13" lengthAdjust="spacing" textLength="76.2354" x="1726.2688" y="466.4568">Kruskal&#8217;s MST</text></g><!--link Map to simulation_design--><g class="link" data-entity-1="Map" data-entity-2="simulation_design" data-source-line="55" data-uid="lnk53" id="link_Map_simulation_design"><path codeLine="55" d="M400.56,151.0445 C386.85,210.7745 359,346.3745 359,462.1345 C359,462.1345 359,462.1345 359,797.1345 C359,949.9445 590.89,805.0545 675,932.6345 C759.5,1060.8045 449.1244,1148.815 391.6344,1163.865" fill="none" id="Map-to-simulation_design" style="stroke:#005F7F;stroke-width:2;"/><polygon fill="#005F7F" points="385.83,1165.3845,395.5496,1166.9749,390.667,1164.1183,393.5236,1159.2357,385.83,1165.3845" style="stroke:#005F7F;stroke-width:2;"/></g><!--link Array to sorting--><g class="link" data-entity-1="Array" data-entity-2="sorting" data-source-line="56" data-uid="lnk55" id="link_Array_sorting"><path codeLine="56" d="M309.36,143.5245 C318.15,154.4745 329.88,166.8045 343,174.6345 C552.9,299.9345 668.47,171.1045 880,293.6345 C945.7,331.6945 928.28,381.3445 992,422.6345 C1057,464.7645 1100.84,427.2445 1156,481.6345 C1181.89,507.1545 1192.8258,544.9393 1196.9658,562.8093" fill="none" id="Array-to-sorting" style="stroke:#005F7F;stroke-width:1;"/><polygon fill="#005F7F" points="1198.32,568.6545,1200.1855,558.984,1197.1915,563.7835,1192.3919,560.7895,1198.32,568.6545" style="stroke:#005F7F;stroke-width:1;"/></g><!--link Heap to sorting--><g class="link" data-entity-1="Heap" data-entity-2="sorting" data-source-line="57" data-uid="lnk57" id="link_Heap_sorting"><path codeLine="57" d="M1770.11,143.3945 C1779.74,206.2045 1796.68,380.7545 1707,473.6345 C1634.01,549.2345 1276.8406,572.3486 1214.9606,575.8186" fill="none" id="Heap-to-sorting" style="stroke:#00BAC6;stroke-width:1;stroke-dasharray:7.0,7.0;"/><polygon fill="#00BAC6" points="1208.97,576.1545,1218.1798,579.6444,1213.9622,575.8746,1217.7319,571.6569,1208.97,576.1545" style="stroke:#00BAC6;stroke-width:1;"/><text fill="#000000" font-family="Padauk" font-size="13" lengthAdjust="spacing" textLength="86.8486" x="1778.66" y="278.4568">heapsort branch</text></g><!--link UnionFind to sorting--><g class="link" data-entity-1="UnionFind" data-entity-2="sorting" data-source-line="58" data-uid="lnk59" id="link_UnionFind_sorting"><path codeLine="58" d="M1629.45,143.6045 C1583.76,184.0145 1495.02,262.6445 1494,264.6345 C1461.71,327.4445 1516.02,363.7645 1477,422.6345 C1409.06,525.1445 1254.4796,564.7544 1214.8296,573.4844" fill="none" id="UnionFind-to-sorting" style="stroke:#CBDB2A;stroke-width:1;stroke-dasharray:7.0,7.0;"/><polygon fill="#CBDB2A" points="1208.97,574.7745,1218.6196,576.7457,1213.853,573.6994,1216.8994,568.9329,1208.97,574.7745" style="stroke:#CBDB2A;stroke-width:1;"/><text fill="#000000" font-family="Padauk" font-size="13" lengthAdjust="spacing" textLength="129.7842" x="1495" y="278.4568">Edge sorting for Kruskal</text></g><!--link Queue to topo_sort--><g class="link" data-entity-1="Queue" data-entity-2="topo_sort" data-source-line="59" data-uid="lnk61" id="link_Queue_topo_sort"><path codeLine="59" d="M1507.2,123.5345 C1429.97,133.2745 1247,169.1845 1195,293.6345 C1172.9,346.5345 1172.19,370.0345 1195,422.6345 C1210.26,457.8345 1242.74,446.4345 1258,481.6345 C1287.88,550.5445 1277.82,578.1845 1258,650.6345 C1251.05,676.0545 1236.1502,696.9389 1226.2102,709.2989" fill="none" id="Queue-to-topo_sort" style="stroke:#00BAC6;stroke-width:1;stroke-dasharray:7.0,7.0;"/><polygon fill="#00BAC6" points="1222.45,713.9745,1231.2073,709.4679,1225.5835,710.0782,1224.9732,704.4544,1222.45,713.9745" style="stroke:#00BAC6;stroke-width:1;"/><text fill="#000000" font-family="Padauk" font-size="13" lengthAdjust="spacing" textLength="88.7656" x="1196" y="392.9568">Kahn's sort algo</text></g><!--link Stack to topo_sort--><g class="link" data-entity-1="Stack" data-entity-2="topo_sort" data-source-line="60" data-uid="lnk63" id="link_Stack_topo_sort"><path codeLine="60" d="M554.79,131.8445 C619.32,156.3845 768.98,217.3245 880,293.6345 C965.26,352.2345 995.56,364.6645 1050,452.6345 C1098.32,530.7145 1054.36,576.8345 1109,650.6345 C1135.8,686.8245 1181.3546,707.8725 1201.7346,716.0825" fill="none" id="Stack-to-topo_sort" style="stroke:#005F7F;stroke-width:1;stroke-dasharray:7.0,7.0;"/><polygon fill="#005F7F" points="1207.3,718.3245,1200.4466,711.2513,1202.6622,716.4562,1197.4573,718.6718,1207.3,718.3245" style="stroke:#005F7F;stroke-width:1;"/><text fill="#000000" font-family="Padauk" font-size="13" lengthAdjust="spacing" textLength="87.7246" x="1030.9" y="392.9568">DFS sort variant</text></g><!--link binary_search to math_geometry--><g class="link" data-entity-1="binary_search" data-entity-2="math_geometry" data-source-line="63" data-uid="lnk64" id="link_binary_search_math_geometry"><path codeLine="63" d="M686.2,586.2645 C658.81,641.2945 494.4741,971.3934 466.6141,1027.3534" fill="none" id="binary_search-to-math_geometry" style="stroke:#444444;stroke-width:1;stroke-dasharray:7.0,7.0;"/><polygon fill="#444444" points="463.94,1032.7245,471.5319,1026.4505,466.1684,1028.2486,464.3703,1022.8851,463.94,1032.7245" style="stroke:#444444;stroke-width:1;"/><text fill="#000000" font-family="Padauk" font-size="13" lengthAdjust="spacing" textLength="95.7734" x="592.7188" y="799.4568">parametric search</text></g><!--link constructive_algos to simulation_design--><g class="link" data-entity-1="constructive_algos" data-entity-2="simulation_design" data-source-line="64" data-uid="lnk65" id="link_constructive_algos_simulation_design"><path codeLine="64" d="M277.63,1050.4545 C296.67,1072.9045 347.4593,1132.7985 366.4893,1155.2385" fill="none" id="constructive_algos-to-simulation_design" style="stroke:#444444;stroke-width:1;stroke-dasharray:7.0,7.0;"/><polygon fill="#444444" points="370.37,1159.8145,367.5997,1150.3633,367.1361,1156.0011,361.4983,1155.5376,370.37,1159.8145" style="stroke:#444444;stroke-width:1;"/></g><!--link divide_and_conquer to binary_search--><g class="link" data-entity-1="divide_and_conquer" data-entity-2="binary_search" data-source-line="65" data-uid="lnk66" id="link_divide_and_conquer_binary_search"><path codeLine="65" d="M708.18,398.6245 C705.06,429.2245 694.4911,532.7257 691.4011,562.9057" fill="none" id="divide_and_conquer-to-binary_search" style="stroke:#444444;stroke-width:1;stroke-dasharray:7.0,7.0;"/><polygon fill="#444444" points="690.79,568.8745,695.6859,560.3287,691.2993,563.9005,687.7275,559.5139,690.79,568.8745" style="stroke:#444444;stroke-width:1;"/><text fill="#000000" font-family="Padauk" font-size="13" lengthAdjust="spacing" textLength="124.8711" x="708.1088" y="466.4568">subdivide search space</text></g><!--link divide_and_conquer to sorting--><g class="link" data-entity-1="divide_and_conquer" data-entity-2="sorting" data-source-line="66" data-uid="lnk67" id="link_divide_and_conquer_sorting"><path codeLine="66" d="M717.61,394.8045 C731.39,401.3545 759.36,414.1945 784,422.6345 C868.34,451.5345 889.86,460.2245 978,473.6345 C997.57,476.6145 1139.56,470.6045 1156,481.6345 C1186.64,502.1945 1195.4966,543.9455 1198.2066,562.8055" fill="none" id="divide_and_conquer-to-sorting" style="stroke:#444444;stroke-width:1;stroke-dasharray:7.0,7.0;"/><polygon fill="#444444" points="1199.06,568.7445,1201.7393,559.2671,1198.3489,563.7954,1193.8206,560.4049,1199.06,568.7445" style="stroke:#444444;stroke-width:1;"/><text fill="#000000" font-family="Padauk" font-size="13" lengthAdjust="spacing" textLength="107.9482" x="979" y="466.4568">mergesort/quicksort</text></g><!--link divide_and_conquer to dynamic_programming--><g class="link" data-entity-1="divide_and_conquer" data-entity-2="dynamic_programming" data-source-line="67" data-uid="lnk68" id="link_divide_and_conquer_dynamic_programming"><path codeLine="67" d="M700.16,394.1145 C684.14,400.3445 649.18,413.5845 619,422.6345 C565.52,438.6745 531.45,408.6845 497,452.6345 C469.22,488.0645 492.4604,542.4312 503.1604,563.5712" fill="none" id="divide_and_conquer-to-dynamic_programming" style="stroke:#444444;stroke-width:1;stroke-dasharray:7.0,7.0;"/><polygon fill="#444444" points="505.87,568.9245,505.3745,559.0881,503.612,564.4634,498.2367,562.7009,505.87,568.9245" style="stroke:#444444;stroke-width:1;"/><text fill="#000000" font-family="Padauk" font-size="13" lengthAdjust="spacing" textLength="88.8037" x="498" y="466.4568">overlap + memo</text></g><!--link jump_search to binary_search--><g class="link" data-entity-1="jump_search" data-entity-2="binary_search" data-source-line="68" data-uid="lnk69" id="link_jump_search_binary_search"><path codeLine="68" d="M550.27,398.6245 C574.29,429.2245 656.5153,533.9749 680.2053,564.1549" fill="none" id="jump_search-to-binary_search" style="stroke:#444444;stroke-width:1;stroke-dasharray:7.0,7.0;"/><polygon fill="#444444" points="683.91,568.8745,681.4994,559.3252,680.8227,564.9415,675.2065,564.2649,683.91,568.8745" style="stroke:#444444;stroke-width:1;"/><text fill="#000000" font-family="Padauk" font-size="13" lengthAdjust="spacing" textLength="77.4287" x="609.26" y="466.4568">skip then seek</text></g><!--link pathing to graphing--><g class="link" data-entity-1="pathing" data-entity-2="graphing" data-source-line="69" data-uid="lnk70" id="link_pathing_graphing"><path codeLine="69" d="M1336.62,731.8145 C1327.92,739.0245 1314.34,749.3145 1301,755.6345 C1255.2,777.3145 1221.76,745.3645 1191,785.6345 C1173.85,808.0945 1182.5986,839.2021 1188.6386,855.1821" fill="none" id="pathing-to-graphing" style="stroke:#444444;stroke-width:1;stroke-dasharray:7.0,7.0;"/><polygon fill="#444444" points="1190.76,860.7945,1191.3196,850.9616,1188.9922,856.1175,1183.8363,853.7901,1190.76,860.7945" style="stroke:#444444;stroke-width:1;"/><text fill="#000000" font-family="Padauk" font-size="13" lengthAdjust="spacing" textLength="96.1543" x="1192" y="799.4568">path finding algos</text></g><!--link graphing to math_geometry--><g class="link" data-entity-1="graphing" data-entity-2="math_geometry" data-source-line="70" data-uid="lnk71" id="link_graphing_math_geometry"><path codeLine="70" d="M1185.25,872.6645 C1108.09,890.5345 551.0653,1019.5408 474.4653,1037.2808" fill="none" id="graphing-to-math_geometry" style="stroke:#444444;stroke-width:1;stroke-dasharray:7.0,7.0;"/><polygon fill="#444444" points="468.62,1038.6345,478.2904,1040.5008,473.4911,1037.5064,476.4855,1032.7071,468.62,1038.6345" style="stroke:#444444;stroke-width:1;"/><text fill="#000000" font-family="Padauk" font-size="13" lengthAdjust="spacing" textLength="202.6045" x="915.33" y="946.4568">geometry graphs (Voronoi, Delaunay)</text></g><!--link graphing to dijkstra--><g class="link" data-entity-1="graphing" data-entity-2="dijkstra" data-source-line="71" data-uid="lnk72" id="link_graphing_dijkstra"><path codeLine="71" d="M1197.69,878.3845 C1211.12,906.5745 1254.7484,998.1383 1268.5184,1027.0283" fill="none" id="graphing-to-dijkstra" style="stroke:#444444;stroke-width:1;stroke-dasharray:7.0,7.0;"/><polygon fill="#444444" points="1271.1,1032.4445,1270.8385,1022.5991,1268.9487,1027.931,1263.6168,1026.0412,1271.1,1032.4445" style="stroke:#444444;stroke-width:1;"/></g><!--link pathing to dijkstra--><g class="link" data-entity-1="pathing" data-entity-2="dijkstra" data-source-line="72" data-uid="lnk73" id="link_pathing_dijkstra"><path codeLine="72" d="M1337.8622,737.2128 C1327.0822,755.4928 1305.08,795.3345 1294,836.6345 C1274.19,910.4945 1274.1369,998.1856 1274.6669,1026.2956" fill="none" id="pathing-dijkstra" style="stroke:#444444;stroke-width:1;stroke-dasharray:7.0,7.0;"/><polygon fill="#444444" points="1340.91,732.0445,1332.8928,737.7651,1338.3702,736.3514,1339.7838,741.8288,1340.91,732.0445" style="stroke:#444444;stroke-width:1;"/><polygon fill="#444444" points="1274.78,1032.2945,1278.6096,1023.2207,1274.6857,1027.2954,1270.6111,1023.3715,1274.78,1032.2945" style="stroke:#444444;stroke-width:1;"/></g><!--link priority to dijkstra--><g class="link" data-entity-1="priority" data-entity-2="dijkstra" data-source-line="73" data-uid="lnk74" id="link_priority_dijkstra"><path codeLine="73" d="M1347.54,878.3845 C1334.93,906.5745 1294.0295,998.0773 1281.1095,1026.9673" fill="none" id="priority-to-dijkstra" style="stroke:#444444;stroke-width:1;stroke-dasharray:7.0,7.0;"/><polygon fill="#444444" points="1278.66,1032.4445,1285.9857,1025.8617,1280.7012,1027.8802,1278.6828,1022.5957,1278.66,1032.4445" style="stroke:#444444;stroke-width:1;"/></g><!--link sorting to topo_sort--><g class="link" data-entity-1="sorting" data-entity-2="topo_sort" data-source-line="74" data-uid="lnk75" id="link_sorting_topo_sort"><path codeLine="74" d="M1200.86,586.3245 C1203.64,611.1545 1211.6814,683.0619 1214.4714,707.9419" fill="none" id="sorting-to-topo_sort" style="stroke:#444444;stroke-width:1;stroke-dasharray:7.0,7.0;"/><polygon fill="#444444" points="1215.14,713.9045,1218.1121,704.5148,1214.5828,708.9357,1210.162,705.4063,1215.14,713.9045" style="stroke:#444444;stroke-width:1;"/></g><!--link topo_sort to graphing--><g class="link" data-entity-1="topo_sort" data-entity-2="graphing" data-source-line="75" data-uid="lnk76" id="link_topo_sort_graphing"><path codeLine="75" d="M1207.18,729.6045 C1193.57,739.4145 1167.96,760.4045 1158,785.6345 C1146.93,813.6845 1168.619,841.9555 1182.209,856.5355" fill="none" id="topo_sort-to-graphing" style="stroke:#444444;stroke-width:1;stroke-dasharray:7.0,7.0;"/><polygon fill="#444444" points="1186.3,860.9245,1183.0895,851.6136,1182.8908,857.267,1177.2375,857.0683,1186.3,860.9245" style="stroke:#444444;stroke-width:1;"/></g><!--link CORE to TGA--><!--SRC=[dLVBRkCs55rNNt6hHPEW8sjl10OSEvDf9udJiQURO63G52rnB94QaihKA0ha5mfqKw3zkNn9Bodh5SjnEaOszZdtyZuFcU-ve6aHiKAba1YJws4OAl9r47EJ5Aj2CqMbC4oO0PLPc2lvm6H0ISWZ_8sRRQZOMeS98v4ECyB5ZZBWHPPw7Z9I1k0l56FXbI9v0XT4imZ6QImL7f5ft_FMYcGC_6ik654m9OR0OfipxSFl7k27faHh62j5jgtlDoG7E3zFY4u2GrOf6urQwDmGkl7-g9tVIX4SES35vxwJbJQAKBC3tZ6IjtWV1PVYBHTHwxTV2bQmrd4JgHZS4KKY7cEEG3HCPXyktNcdP-2VNt11r1Rc611DHZuq7wIk7BZK3gmiflm1Ymu_m4IABmLJZH5QH0vS4X4jQGdNPbj1CaxXJiaOOykuY7UMrgm4bta3LdO_5rdU5rvf-1dHAhucwvVQRAqML-Ec0bF-UMFB_DnxbL29LcpdjOdz6JlUeHNxJd5xxhQVdU_GcatC0TUENQ8LUIwLEKpM9LgH5pANgOmv9IbOmvOLaWsYIslHAk4yPvIJb3-lNbss6mndY3EGsI4nY5FzV7ne6-pQNJ6PCOE3TueUyfJzTZPodSaGNSOxi4wLPqLA34uxX31bciUY6HrTWyl8GPKLZYSshg26Fx1kbLne3RWac9-skOSdyFJNu-l_q5LT6WX64E56Fpt-QUnEm_zqTH9wdNfLmPu7ztVZnRlbP7PpCxjzCvbTppuiRyO_tNugyc0dHllPlD9mVrsjuU2-GnuCIXM38IX62wLj8xJJjNtxxnhpyMHoURie7THQ1UZ5dyu_1gY31jSKEohNwnGL4QmvHp7qUjJ0fVCi1HHUhrguplpNrF7rmZ5BHJt2hQ8DWbQq62mc9XWrk0VOdrmAl6ymnfRmT9mTBdbLyzqUmuiX1rNG_Un1Xpt00ZlXTyM5YxTphAfESA6PDautVA_IccEdkZkcdzpJrqvZtU7lLQ4t97rw_1jlnld2z_RsitDmfvaxqTghpF6QzblkLybcvmB5Xq9kZM2bYC2xuuY35pA-Z69MoIsifQegu7krhBwgTKDuJn9nKagtqvKZ3khjRDPpYfrt_0UYE17cMnGDnvsot1HuK-1MRl0HmCnNnWGOHXF1SKc_HTewBuagbS5Wr1Ny2h23b1Dx4HcKGYYj_7wPiqxsxu1UORFKta3iURfObKQxuq3dX3B_iAVUaHb2nbJCB1P-AJZTk6lre8zUfHi2lbnLYfFw8thBPB_Ml93Cq-C_UiDpC0csJJEsUNhyjrz8h9DUMHmwsO0rZhc5oXkob_bI4-kVdAM6qr-baaBoDtYBfwGGP7lc7_PQFxqEQ62RqITO7H-ztRACvl7Jksxj2dcUUpi7zmcFyD-EJtZZuqloFm00]--></g></svg>