<svg xmlns="http://www.w3.org/2000/svg" xmlns:xlink="http://www.w3.org/1999/xlink" contentStyleType="text/css" data-diagram-type="CLASS" height="1128px" preserveAspectRatio="none" style="width:2201px;height:1128px;background:#FAFAFA;" version="1.1" viewBox="0 0 2201 1128" width="2201px" zoomAndPan="magnify"><title>Tree/Graph Based Algorithms</title><defs/><g><rect fill="#FAFAFA" height="1128" style="stroke:none;stroke-width:1;" width="2201" x="0" y="0"/><g class="title" data-source-line="4"><text fill="#000000" font-family="Padauk" font-size="14" font-weight="bold" lengthAdjust="spacing" textLength="232.6611" x="977.1694" y="22.9951">Tree/Graph Based Algorithms</text></g><!--cluster Linear Data Types--><g class="cluster" data-entity="Linear Data Types" data-source-line="6" data-uid="ent0002" id="cluster_Linear Data Types"><rect fill="#FAFAFA" height="107.27" rx="2.5" ry="2.5" style="stroke:#005F7F;stroke-width:1;" width="349" x="269" y="44.2969"/><path d="M422.0146,44.2969 L422.0146,53.5938 L412.0146,63.5938 L269,63.5938" fill="none" style="stroke:#005F7F;stroke-width:1;"/><text fill="#000000" font-family="Padauk" font-size="14" font-weight="bold" lengthAdjust="spacing" textLength="143.0146" x="272" y="58.292">Linear Data Types</text></g><!--cluster Non-Linear Data Types--><g class="cluster" data-entity="Non-Linear Data Types" data-source-line="12" data-uid="ent0006" id="cluster_Non-Linear Data Types"><rect fill="#FAFAFA" height="99" rx="2.5" ry="2.5" style="stroke:#005F7F;stroke-width:1;" width="460" x="1610" y="48.4369"/><path d="M1800.127,48.4369 L1800.127,57.7337 L1790.127,67.7337 L1610,67.7337" fill="none" style="stroke:#005F7F;stroke-width:1;"/><text fill="#000000" font-family="Padauk" font-size="14" font-weight="bold" lengthAdjust="spacing" textLength="180.127" x="1613" y="62.432">Non-Linear Data Types</text></g><!--cluster CORE--><g class="cluster" data-entity="CORE" data-source-line="19" data-uid="ent0011" id="cluster_CORE"><rect fill="#FAFAFA" height="297" rx="2.5" ry="2.5" style="stroke:#005F7F;stroke-width:1;" width="536" x="435" y="286.5669"/><path d="M569.9883,286.5669 L569.9883,295.8638 L559.9883,305.8638 L435,305.8638" fill="none" style="stroke:#005F7F;stroke-width:1;"/><text fill="#000000" font-family="Padauk" font-size="14" font-weight="bold" lengthAdjust="spacing" textLength="124.9883" x="438" y="300.562">Core Paradigms</text></g><!--cluster TGA--><g class="cluster" data-entity="TGA" data-source-line="26" data-uid="ent0016" id="cluster_TGA"><rect fill="#FAFAFA" height="533" rx="2.5" ry="2.5" style="stroke:#005F7F;stroke-width:1;" width="320" x="1240" y="458.5669"/><path d="M1482.6611,458.5669 L1482.6611,467.8638 L1472.6611,477.8638 L1240,477.8638" fill="none" style="stroke:#005F7F;stroke-width:1;"/><text fill="#000000" font-family="Padauk" font-size="14" font-weight="bold" lengthAdjust="spacing" textLength="232.6611" x="1243" y="472.562">Tree/Graph Based Algorithms</text></g><!--cluster Specialised Algorithms--><g class="cluster" data-entity="Specialised Algorithms" data-source-line="35" data-uid="ent0023" id="cluster_Specialised Algorithms"><rect fill="#FAFAFA" height="228" rx="2.5" ry="2.5" style="stroke:#005F7F;stroke-width:1;" width="644" x="7" y="894.5669"/><path d="M198.0225,894.5669 L198.0225,903.8638 L188.0225,913.8638 L7,913.8638" fill="none" style="stroke:#005F7F;stroke-width:1;"/><text fill="#000000" font-family="Padauk" font-size="14" font-weight="bold" lengthAdjust="spacing" textLength="181.0225" x="10" y="908.562">Specialised Algorithms</text></g><!--class Array--><g class="entity" data-entity="Array" data-source-line="7" data-uid="ent0003" id="entity_Array"><rect fill="#FAFAFA" height="48" rx="2.5" ry="2.5" style="stroke:#181818;stroke-width:0.5;" width="69.9531" x="285.02" y="83.4369"/><ellipse cx="300.02" cy="99.4369" fill="#FAFAFA" rx="11" ry="11" style="stroke:#181818;stroke-width:1;"/><path d="M302.9888,105.0775 Q302.4106,105.3744 301.77,105.515 Q301.1294,105.6712 300.4263,105.6712 Q297.9263,105.6712 296.5981,104.0306 Q295.2856,102.3744 295.2856,99.2494 Q295.2856,96.1244 296.5981,94.4681 Q297.9263,92.8119 300.4263,92.8119 Q301.1294,92.8119 301.77,92.9681 Q302.4263,93.1244 302.9888,93.4212 L302.9888,96.14 Q302.3638,95.5619 301.77,95.2962 Q301.1763,95.015 300.5513,95.015 Q299.2075,95.015 298.52,96.0931 Q297.8325,97.1556 297.8325,99.2494 Q297.8325,101.3431 298.52,102.4212 Q299.2075,103.4837 300.5513,103.4837 Q301.1763,103.4837 301.77,103.2181 Q302.3638,102.9369 302.9888,102.3587 L302.9888,105.0775 Z " fill="#000000"/><text fill="#000000" font-family="Padauk" font-size="14" lengthAdjust="spacing" textLength="37.9531" x="314.02" y="104.2836">Array</text><line style="stroke:#181818;stroke-width:0.5;" x1="286.02" x2="353.9731" y1="115.4369" y2="115.4369"/><line style="stroke:#181818;stroke-width:0.5;" x1="286.02" x2="353.9731" y1="123.4369" y2="123.4369"/></g><!--class Map--><g class="entity" data-entity="Map" data-source-line="8" data-uid="ent0004" id="entity_Map"><rect fill="#FAFAFA" height="56.2656" rx="2.5" ry="2.5" style="stroke:#181818;stroke-width:0.5;" width="106.3516" x="389.82" y="79.2969"/><ellipse cx="404.82" cy="99.4297" fill="#FAFAFA" rx="11" ry="11" style="stroke:#181818;stroke-width:1;"/><path d="M407.7888,105.0703 Q407.2106,105.3672 406.57,105.5078 Q405.9294,105.6641 405.2263,105.6641 Q402.7263,105.6641 401.3981,104.0234 Q400.0856,102.3672 400.0856,99.2422 Q400.0856,96.1172 401.3981,94.4609 Q402.7263,92.8047 405.2263,92.8047 Q405.9294,92.8047 406.57,92.9609 Q407.2263,93.1172 407.7888,93.4141 L407.7888,96.1328 Q407.1638,95.5547 406.57,95.2891 Q405.9763,95.0078 405.3513,95.0078 Q404.0075,95.0078 403.32,96.0859 Q402.6325,97.1484 402.6325,99.2422 Q402.6325,101.3359 403.32,102.4141 Q404.0075,103.4766 405.3513,103.4766 Q405.9763,103.4766 406.57,103.2109 Q407.1638,102.9297 407.7888,102.3516 L407.7888,105.0703 Z " fill="#000000"/><text fill="#000000" font-family="sans-serif" font-size="12" font-style="italic" lengthAdjust="spacing" textLength="78.3516" x="416.82" y="95.4355">&#171;hash-table&#187;</text><text fill="#000000" font-family="Padauk" font-size="14" lengthAdjust="spacing" textLength="29.5449" x="441.2233" y="111.2607">Map</text><line style="stroke:#181818;stroke-width:0.5;" x1="390.82" x2="495.1716" y1="119.5625" y2="119.5625"/><line style="stroke:#181818;stroke-width:0.5;" x1="390.82" x2="495.1716" y1="127.5625" y2="127.5625"/></g><!--class Stack--><g class="entity" data-entity="Stack" data-source-line="9" data-uid="ent0005" id="entity_Stack"><rect fill="#FAFAFA" height="48" rx="2.5" ry="2.5" style="stroke:#181818;stroke-width:0.5;" width="70.7598" x="531.62" y="83.4369"/><ellipse cx="546.62" cy="99.4369" fill="#FAFAFA" rx="11" ry="11" style="stroke:#181818;stroke-width:1;"/><path d="M549.5888,105.0775 Q549.0106,105.3744 548.37,105.515 Q547.7294,105.6712 547.0263,105.6712 Q544.5263,105.6712 543.1981,104.0306 Q541.8856,102.3744 541.8856,99.2494 Q541.8856,96.1244 543.1981,94.4681 Q544.5263,92.8119 547.0263,92.8119 Q547.7294,92.8119 548.37,92.9681 Q549.0263,93.1244 549.5888,93.4212 L549.5888,96.14 Q548.9638,95.5619 548.37,95.2962 Q547.7763,95.015 547.1513,95.015 Q545.8075,95.015 545.12,96.0931 Q544.4325,97.1556 544.4325,99.2494 Q544.4325,101.3431 545.12,102.4212 Q545.8075,103.4837 547.1513,103.4837 Q547.7763,103.4837 548.37,103.2181 Q548.9638,102.9369 549.5888,102.3587 L549.5888,105.0775 Z " fill="#000000"/><text fill="#000000" font-family="Padauk" font-size="14" lengthAdjust="spacing" textLength="38.7598" x="560.62" y="104.2836">Stack</text><line style="stroke:#181818;stroke-width:0.5;" x1="532.62" x2="601.3798" y1="115.4369" y2="115.4369"/><line style="stroke:#181818;stroke-width:0.5;" x1="532.62" x2="601.3798" y1="123.4369" y2="123.4369"/></g><!--class Graph--><g class="entity" data-entity="Graph" data-source-line="13" data-uid="ent0007" id="entity_Graph"><rect fill="#FAFAFA" height="48" rx="2.5" ry="2.5" style="stroke:#181818;stroke-width:0.5;" width="74.9434" x="1979.53" y="83.4369"/><ellipse cx="1994.53" cy="99.4369" fill="#FAFAFA" rx="11" ry="11" style="stroke:#181818;stroke-width:1;"/><path d="M1997.4988,105.0775 Q1996.9206,105.3744 1996.28,105.515 Q1995.6394,105.6712 1994.9363,105.6712 Q1992.4363,105.6712 1991.1081,104.0306 Q1989.7956,102.3744 1989.7956,99.2494 Q1989.7956,96.1244 1991.1081,94.4681 Q1992.4363,92.8119 1994.9363,92.8119 Q1995.6394,92.8119 1996.28,92.9681 Q1996.9363,93.1244 1997.4988,93.4212 L1997.4988,96.14 Q1996.8738,95.5619 1996.28,95.2962 Q1995.6863,95.015 1995.0613,95.015 Q1993.7175,95.015 1993.03,96.0931 Q1992.3425,97.1556 1992.3425,99.2494 Q1992.3425,101.3431 1993.03,102.4212 Q1993.7175,103.4837 1995.0613,103.4837 Q1995.6863,103.4837 1996.28,103.2181 Q1996.8738,102.9369 1997.4988,102.3587 L1997.4988,105.0775 Z " fill="#000000"/><text fill="#000000" font-family="Padauk" font-size="14" lengthAdjust="spacing" textLength="42.9434" x="2008.53" y="104.2836">Graph</text><line style="stroke:#181818;stroke-width:0.5;" x1="1980.53" x2="2053.4734" y1="115.4369" y2="115.4369"/><line style="stroke:#181818;stroke-width:0.5;" x1="1980.53" x2="2053.4734" y1="123.4369" y2="123.4369"/></g><!--class Heap--><g class="entity" data-entity="Heap" data-source-line="14" data-uid="ent0008" id="entity_Heap"><rect fill="#FAFAFA" height="48" rx="2.5" ry="2.5" style="stroke:#181818;stroke-width:0.5;" width="68.6064" x="1875.7" y="83.4369"/><ellipse cx="1890.7" cy="99.4369" fill="#FAFAFA" rx="11" ry="11" style="stroke:#181818;stroke-width:1;"/><path d="M1890.8094,94.7806 L1889.6531,99.8587 L1891.9813,99.8587 L1890.8094,94.7806 Z M1889.325,92.5462 L1892.3094,92.5462 L1895.6688,104.9369 L1893.2156,104.9369 L1892.45,101.8744 L1889.1688,101.8744 L1888.4188,104.9369 L1885.9813,104.9369 L1889.325,92.5462 Z " fill="#000000"/><text fill="#000000" font-family="Padauk" font-size="14" font-style="italic" lengthAdjust="spacing" textLength="36.6064" x="1904.7" y="104.2836">Heap</text><line style="stroke:#181818;stroke-width:0.5;" x1="1876.7" x2="1943.3064" y1="115.4369" y2="115.4369"/><line style="stroke:#181818;stroke-width:0.5;" x1="1876.7" x2="1943.3064" y1="123.4369" y2="123.4369"/></g><!--class UnionFind--><g class="entity" data-entity="UnionFind" data-source-line="15" data-uid="ent0009" id="entity_UnionFind"><rect fill="#FAFAFA" height="48" rx="2.5" ry="2.5" style="stroke:#181818;stroke-width:0.5;" width="102.1504" x="1738.92" y="83.4369"/><ellipse cx="1753.92" cy="99.4369" fill="#FAFAFA" rx="11" ry="11" style="stroke:#181818;stroke-width:1;"/><path d="M1756.8888,105.0775 Q1756.3106,105.3744 1755.67,105.515 Q1755.0294,105.6712 1754.3263,105.6712 Q1751.8263,105.6712 1750.4981,104.0306 Q1749.1856,102.3744 1749.1856,99.2494 Q1749.1856,96.1244 1750.4981,94.4681 Q1751.8263,92.8119 1754.3263,92.8119 Q1755.0294,92.8119 1755.67,92.9681 Q1756.3263,93.1244 1756.8888,93.4212 L1756.8888,96.14 Q1756.2638,95.5619 1755.67,95.2962 Q1755.0763,95.015 1754.4513,95.015 Q1753.1075,95.015 1752.42,96.0931 Q1751.7325,97.1556 1751.7325,99.2494 Q1751.7325,101.3431 1752.42,102.4212 Q1753.1075,103.4837 1754.4513,103.4837 Q1755.0763,103.4837 1755.67,103.2181 Q1756.2638,102.9369 1756.8888,102.3587 L1756.8888,105.0775 Z " fill="#000000"/><text fill="#000000" font-family="Padauk" font-size="14" lengthAdjust="spacing" textLength="70.1504" x="1767.92" y="104.2836">UnionFind</text><line style="stroke:#181818;stroke-width:0.5;" x1="1739.92" x2="1840.0704" y1="115.4369" y2="115.4369"/><line style="stroke:#181818;stroke-width:0.5;" x1="1739.92" x2="1840.0704" y1="123.4369" y2="123.4369"/></g><!--class Queue--><g class="entity" data-entity="Queue" data-source-line="16" data-uid="ent0010" id="entity_Queue"><rect fill="#FAFAFA" height="48" rx="2.5" ry="2.5" style="stroke:#181818;stroke-width:0.5;" width="77.9922" x="1626" y="83.4369"/><ellipse cx="1641" cy="99.4369" fill="#FAFAFA" rx="11" ry="11" style="stroke:#181818;stroke-width:1;"/><path d="M1643.9688,105.0775 Q1643.3906,105.3744 1642.75,105.515 Q1642.1094,105.6712 1641.4063,105.6712 Q1638.9063,105.6712 1637.5781,104.0306 Q1636.2656,102.3744 1636.2656,99.2494 Q1636.2656,96.1244 1637.5781,94.4681 Q1638.9063,92.8119 1641.4063,92.8119 Q1642.1094,92.8119 1642.75,92.9681 Q1643.4063,93.1244 1643.9688,93.4212 L1643.9688,96.14 Q1643.3438,95.5619 1642.75,95.2962 Q1642.1563,95.015 1641.5313,95.015 Q1640.1875,95.015 1639.5,96.0931 Q1638.8125,97.1556 1638.8125,99.2494 Q1638.8125,101.3431 1639.5,102.4212 Q1640.1875,103.4837 1641.5313,103.4837 Q1642.1563,103.4837 1642.75,103.2181 Q1643.3438,102.9369 1643.9688,102.3587 L1643.9688,105.0775 Z " fill="#000000"/><text fill="#000000" font-family="Padauk" font-size="14" lengthAdjust="spacing" textLength="45.9922" x="1655" y="104.2836">Queue</text><line style="stroke:#181818;stroke-width:0.5;" x1="1627" x2="1702.9922" y1="115.4369" y2="115.4369"/><line style="stroke:#181818;stroke-width:0.5;" x1="1627" x2="1702.9922" y1="123.4369" y2="123.4369"/></g><!--entity binary_search--><g class="entity" data-entity="binary_search" data-source-line="20" data-uid="ent0012" id="entity_binary_search"><ellipse cx="762" cy="530.5669" fill="#FAFAFA" rx="8" ry="8" style="stroke:#181818;stroke-width:0.5;"/><text fill="#000000" font-family="Padauk" font-size="14" lengthAdjust="spacing" textLength="121.3037" x="701.3481" y="560.562">&lt;Binary Search&gt;</text></g><!--entity divide_and_conquer--><g class="entity" data-entity="divide_and_conquer" data-source-line="21" data-uid="ent0013" id="entity_divide_and_conquer"><ellipse cx="781" cy="358.5669" fill="#FAFAFA" rx="8" ry="8" style="stroke:#181818;stroke-width:0.5;"/><text fill="#000000" font-family="Padauk" font-size="14" lengthAdjust="spacing" textLength="146.9658" x="707.5171" y="388.562">&lt;Divide &amp; Conquer&gt;</text></g><!--entity dynamic_programming--><g class="entity" data-entity="dynamic_programming" data-source-line="22" data-uid="ent0014" id="entity_dynamic_programming"><ellipse cx="559" cy="530.5669" fill="#FAFAFA" rx="8" ry="8" style="stroke:#181818;stroke-width:0.5;"/><text fill="#000000" font-family="Padauk" font-size="14" lengthAdjust="spacing" textLength="184.5635" x="466.7183" y="560.562">&lt;Dynamic Programming&gt;</text></g><!--entity jump_search--><g class="entity" data-entity="jump_search" data-source-line="23" data-uid="ent0015" id="entity_jump_search"><ellipse cx="592" cy="358.5669" fill="#FAFAFA" rx="8" ry="8" style="stroke:#181818;stroke-width:0.5;"/><text fill="#000000" font-family="Padauk" font-size="14" lengthAdjust="spacing" textLength="111.8428" x="536.0786" y="388.562">&lt;Jump Search&gt;</text></g><!--entity dijkstra--><g class="entity" data-entity="dijkstra" data-source-line="27" data-uid="ent0017" id="entity_dijkstra"><ellipse cx="1412" cy="958.5669" fill="#FAFAFA" rx="8" ry="8" style="stroke:#181818;stroke-width:0.5;"/><text fill="#000000" font-family="Padauk" font-size="14" lengthAdjust="spacing" textLength="77.2461" x="1373.377" y="988.562">&lt;Dijkstra&gt;</text></g><!--entity graphing--><g class="entity" data-entity="graphing" data-source-line="28" data-uid="ent0018" id="entity_graphing"><ellipse cx="1324" cy="802.5669" fill="#FAFAFA" rx="8" ry="8" style="stroke:#181818;stroke-width:0.5;"/><text fill="#000000" font-family="Padauk" font-size="14" lengthAdjust="spacing" textLength="88.0537" x="1279.9731" y="832.562">&lt;Graphing&gt;</text></g><!--entity priority--><g class="entity" data-entity="priority" data-source-line="29" data-uid="ent0019" id="entity_priority"><ellipse cx="1492" cy="802.5669" fill="#FAFAFA" rx="8" ry="8" style="stroke:#181818;stroke-width:0.5;"/><text fill="#000000" font-family="Padauk" font-size="14" lengthAdjust="spacing" textLength="73.5342" x="1455.2329" y="832.562">&lt;Priority&gt;</text></g><!--entity pathing--><g class="entity" data-entity="pathing" data-source-line="30" data-uid="ent0020" id="entity_pathing"><ellipse cx="1482" cy="667.5669" fill="#FAFAFA" rx="8" ry="8" style="stroke:#181818;stroke-width:0.5;"/><text fill="#000000" font-family="Padauk" font-size="14" lengthAdjust="spacing" textLength="76.4941" x="1443.7529" y="697.562">&lt;Pathing&gt;</text></g><!--entity sorting--><g class="entity" data-entity="sorting" data-source-line="31" data-uid="ent0021" id="entity_sorting"><ellipse cx="1327" cy="530.5669" fill="#FAFAFA" rx="8" ry="8" style="stroke:#181818;stroke-width:0.5;"/><text fill="#000000" font-family="Padauk" font-size="14" lengthAdjust="spacing" textLength="73.8076" x="1290.0962" y="560.562">&lt;Sorting&gt;</text></g><!--entity topo_sort--><g class="entity" data-entity="topo_sort" data-source-line="32" data-uid="ent0022" id="entity_topo_sort"><ellipse cx="1348" cy="667.5669" fill="#FAFAFA" rx="8" ry="8" style="stroke:#181818;stroke-width:0.5;"/><text fill="#000000" font-family="Padauk" font-size="14" lengthAdjust="spacing" textLength="136.5752" x="1279.7124" y="697.562">&lt;Topological Sort&gt;</text></g><!--entity combinatorics--><g class="entity" data-entity="combinatorics" data-source-line="36" data-uid="ent0024" id="entity_combinatorics"><ellipse cx="115" cy="958.5669" fill="#FAFAFA" rx="8" ry="8" style="stroke:#181818;stroke-width:0.5;"/><text fill="#000000" font-family="Padauk" font-size="14" lengthAdjust="spacing" textLength="168.5469" x="30.7266" y="988.562">&lt;Math: Combinatorics&gt;</text></g><!--entity math_geometry--><g class="entity" data-entity="math_geometry" data-source-line="37" data-uid="ent0025" id="entity_math_geometry"><ellipse cx="520" cy="958.5669" fill="#FAFAFA" rx="8" ry="8" style="stroke:#181818;stroke-width:0.5;"/><text fill="#000000" font-family="Padauk" font-size="14" lengthAdjust="spacing" textLength="214.4844" x="412.7578" y="988.562">&lt;Math: Geometry (Complex)&gt;</text></g><!--entity simulation_design--><g class="entity" data-entity="simulation_design" data-source-line="38" data-uid="ent0026" id="entity_simulation_design"><ellipse cx="427" cy="1077.5669" fill="#FAFAFA" rx="8" ry="8" style="stroke:#181818;stroke-width:0.5;"/><text fill="#000000" font-family="Padauk" font-size="14" lengthAdjust="spacing" textLength="159.9883" x="347.0059" y="1107.562">&lt;Simulation / Design&gt;</text></g><!--entity constructive_algos--><g class="entity" data-entity="constructive_algos" data-source-line="39" data-uid="ent0027" id="entity_constructive_algos"><ellipse cx="306" cy="958.5669" fill="#FAFAFA" rx="8" ry="8" style="stroke:#181818;stroke-width:0.5;"/><text fill="#000000" font-family="Padauk" font-size="14" lengthAdjust="spacing" textLength="112.0615" x="249.9692" y="988.562">&lt;Constructive&gt;</text></g><!--link Array to combinatorics--><g class="link" data-entity-1="Array" data-entity-2="combinatorics" data-source-line="43" data-uid="lnk29" id="link_Array_combinatorics"><path codeLine="43" d="M284.76,109.7169 C226.15,113.9469 115,131.7569 115,206.0669 C115,206.0669 115,206.0669 115,803.5669 C115,859.7169 115,921.3769 115,943.8769" fill="none" id="Array-to-combinatorics" style="stroke:#005F7F;stroke-width:1;"/><polygon fill="#005F7F" points="115,949.8769,119,940.8769,115,944.8769,111,940.8769,115,949.8769" style="stroke:#005F7F;stroke-width:1;"/></g><!--link Array to constructive_algos--><g class="link" data-entity-1="Array" data-entity-2="constructive_algos" data-source-line="44" data-uid="lnk31" id="link_Array_constructive_algos"><path codeLine="44" d="M284.79,117.5169 C245.09,130.1369 186,157.1369 186,206.0669 C186,206.0669 186,206.0669 186,803.5669 C186,840.0069 266.304,919.7096 293.414,945.6396" fill="none" id="Array-to-constructive_algos" style="stroke:#005F7F;stroke-width:1;"/><polygon fill="#005F7F" points="297.75,949.7869,294.0109,940.6754,294.1367,946.3309,288.4812,946.4567,297.75,949.7869" style="stroke:#005F7F;stroke-width:1;"/></g><!--link Stack to divide_and_conquer--><g class="link" data-entity-1="Stack" data-entity-2="divide_and_conquer" data-source-line="45" data-uid="lnk33" id="link_Stack_divide_and_conquer"><path codeLine="45" d="M587.13,131.8669 C633.54,185.8969 742.2902,312.5056 770.5702,345.4256" fill="none" id="Stack-to-divide_and_conquer" style="stroke:#005F7F;stroke-width:1;stroke-dasharray:7,7;"/><polygon fill="#005F7F" points="774.48,349.9769,771.6495,340.5435,771.2219,346.1842,765.5812,345.7565,774.48,349.9769" style="stroke:#005F7F;stroke-width:1;"/><text fill="#000000" font-family="Padauk" font-size="13" lengthAdjust="spacing" textLength="99.2964" x="659.89" y="211.6338">recursion stack</text></g><!--link UnionFind to divide_and_conquer--><g class="link" data-entity-1="UnionFind" data-entity-2="divide_and_conquer" data-source-line="46" data-uid="lnk35" id="link_UnionFind_divide_and_conquer"><path codeLine="46" d="M1765.05,131.7769 C1752.71,141.9869 1737.04,153.0969 1721,159.5669 C1676.58,177.4869 908.85,249.1669 866,270.5669 C828.21,289.4369 800.8782,326.8981 789.2882,344.5881" fill="none" id="UnionFind-to-divide_and_conquer" style="stroke:#CBDB2A;stroke-width:1;stroke-dasharray:7,7;"/><polygon fill="#CBDB2A" points="786,349.6069,794.2781,344.2708,788.7401,345.4246,787.5864,339.8866,786,349.6069" style="stroke:#CBDB2A;stroke-width:1;"/><text fill="#000000" font-family="Padauk" font-size="13" lengthAdjust="spacing" textLength="185.3516" x="1427.18" y="211.6338">DSU-on-tree / offline queries</text></g><!--link Map to dynamic_programming--><g class="link" data-entity-1="Map" data-entity-2="dynamic_programming" data-source-line="47" data-uid="lnk37" id="link_Map_dynamic_programming"><path codeLine="47" d="M447.58,135.9469 C457.41,192.6669 482.53,326.3569 518,434.5669 C528.97,468.0269 544.4935,500.5669 552.4335,516.4969" fill="none" id="Map-to-dynamic_programming" style="stroke:#005F7F;stroke-width:2;"/><polygon fill="#005F7F" points="555.11,521.8669,554.6751,512.0276,552.8796,517.3919,547.5152,515.5963,555.11,521.8669" style="stroke:#005F7F;stroke-width:2;"/></g><!--link Graph to graphing--><g class="link" data-entity-1="Graph" data-entity-2="graphing" data-source-line="48" data-uid="lnk39" id="link_Graph_graphing"><path codeLine="48" d="M2054.97,112.5069 C2106.98,120.4169 2194,143.0769 2194,206.0669 C2194,206.0669 2194,206.0669 2194,608.5669 C2194,782.0369 1599.73,733.2669 1431,773.5669 C1394.39,782.3069 1356.904,792.4813 1338.634,797.5213" fill="none" id="Graph-to-graphing" style="stroke:#00BAC6;stroke-width:2;"/><polygon fill="#00BAC6" points="1332.85,799.1169,1342.5896,800.5795,1337.67,797.7872,1340.4622,792.8675,1332.85,799.1169" style="stroke:#00BAC6;stroke-width:2;"/></g><!--link UnionFind to graphing--><g class="link" data-entity-1="UnionFind" data-entity-2="graphing" data-source-line="49" data-uid="lnk41" id="link_UnionFind_graphing"><path codeLine="49" d="M1790.33,131.8369 C1790.08,162.6369 1787.26,218.0969 1772,262.5669 C1735.4,369.2369 1584.17,612.4969 1509,696.5669 C1456.08,755.7569 1367.2708,787.7465 1338.3508,797.0665" fill="none" id="UnionFind-to-graphing" style="stroke:#CBDB2A;stroke-width:2;"/><polygon fill="#CBDB2A" points="1332.64,798.9069,1342.4331,799.9535,1337.399,797.3732,1339.9792,792.3391,1332.64,798.9069" style="stroke:#CBDB2A;stroke-width:2;"/><text fill="#000000" font-family="Padauk" font-size="13" lengthAdjust="spacing" textLength="152.5215" x="1697.26" y="430.6338">connected components</text></g><!--link Array to jump_search--><g class="link" data-entity-1="Array" data-entity-2="jump_search" data-source-line="50" data-uid="lnk43" id="link_Array_jump_search"><path codeLine="50" d="M307.57,131.5269 C297.05,154.5169 286.03,189.9669 302,215.5669 C368.76,322.5869 536.2406,350.3995 577.2606,355.7595" fill="none" id="Array-to-jump_search" style="stroke:#005F7F;stroke-width:1;"/><polygon fill="#005F7F" points="583.21,356.5369,574.8041,351.4045,578.2521,355.889,573.7676,359.3371,583.21,356.5369" style="stroke:#005F7F;stroke-width:1;"/></g><!--link Graph to pathing--><g class="link" data-entity-1="Graph" data-entity-2="pathing" data-source-line="51" data-uid="lnk45" id="link_Graph_pathing"><path codeLine="51" d="M2054.97,124.6969 C2085.38,140.5669 2123,167.9169 2123,206.0669 C2123,206.0669 2123,206.0669 2123,427.0669 C2123,568.2869 1576.0674,652.9021 1497.2474,664.3821" fill="none" id="Graph-to-pathing" style="stroke:#00BAC6;stroke-width:2;"/><polygon fill="#00BAC6" points="1491.31,665.2469,1500.7925,667.908,1496.2578,664.5262,1499.6395,659.9915,1491.31,665.2469" style="stroke:#00BAC6;stroke-width:2;"/></g><!--link Queue to pathing--><g class="link" data-entity-1="Queue" data-entity-2="pathing" data-source-line="52" data-uid="lnk47" id="link_Queue_pathing"><path codeLine="52" d="M1625.56,108.7069 C1565.68,111.5169 1453.34,126.6969 1402,198.5669 C1390.57,214.5569 1414.13,237.2369 1423,270.5669 C1463.6,423.0369 1478.1797,610.4909 1481.0497,652.3609" fill="none" id="Queue-to-pathing" style="stroke:#00BAC6;stroke-width:1;stroke-dasharray:7,7;"/><polygon fill="#00BAC6" points="1481.46,658.3469,1484.8352,649.0944,1481.1181,653.3586,1476.8539,649.6415,1481.46,658.3469" style="stroke:#00BAC6;stroke-width:1;"/><text fill="#000000" font-family="Padauk" font-size="13" lengthAdjust="spacing" textLength="124.2554" x="1453.6023" y="363.1338">BFS / shortest path</text></g><!--link Heap to priority--><g class="link" data-entity-1="Heap" data-entity-2="priority" data-source-line="53" data-uid="lnk49" id="link_Heap_priority"><path codeLine="53" d="M1930.94,131.8969 C1939.94,141.1869 1950.93,151.5469 1962,159.5669 C1998.46,185.9769 2052,161.0469 2052,206.0669 C2052,206.0669 2052,206.0669 2052,427.0669 C2052,618.7569 1932.16,661.3469 1759,743.5669 C1664.73,788.3269 1541.2887,798.6193 1506.7487,800.7393" fill="none" id="Heap-to-priority" style="stroke:#00BAC6;stroke-width:2;"/><polygon fill="#00BAC6" points="1500.76,801.1069,1509.9881,804.548,1505.7506,800.8006,1509.498,796.563,1500.76,801.1069" style="stroke:#00BAC6;stroke-width:2;"/></g><!--link UnionFind to priority--><g class="link" data-entity-1="UnionFind" data-entity-2="priority" data-source-line="54" data-uid="lnk51" id="link_UnionFind_priority"><path codeLine="54" d="M1801.81,131.7569 C1827.42,185.2469 1883.9,320.9469 1860,434.5669 C1829.12,581.3969 1838.71,646.8369 1724,743.5669 C1654.49,802.1769 1540.1173,803.1368 1506.7773,802.1368" fill="none" id="UnionFind-to-priority" style="stroke:#CBDB2A;stroke-width:1;stroke-dasharray:7,7;"/><polygon fill="#CBDB2A" points="1500.78,801.9569,1509.656,806.2249,1505.7778,802.1068,1509.8959,798.2285,1500.78,801.9569" style="stroke:#CBDB2A;stroke-width:1;"/><text fill="#000000" font-family="Padauk" font-size="13" lengthAdjust="spacing" textLength="90.4351" x="1868.0623" y="430.6338">Kruskal&#8217;s MST</text></g><!--link Map to simulation_design--><g class="link" data-entity-1="Map" data-entity-2="simulation_design" data-source-line="55" data-uid="lnk53" id="link_Map_simulation_design"><path codeLine="55" d="M435.73,135.7369 C421.86,190.2869 393,316.8269 393,425.0669 C393,425.0669 393,425.0669 393,736.0669 C393,912.2369 666.02,718.6269 769,861.5669 C865.14,995.0069 504.0933,1063.3705 441.7833,1074.0805" fill="none" id="Map-to-simulation_design" style="stroke:#005F7F;stroke-width:2;"/><polygon fill="#005F7F" points="435.87,1075.0969,445.4175,1077.5145,440.7977,1074.2499,444.0623,1069.6301,435.87,1075.0969" style="stroke:#005F7F;stroke-width:2;"/></g><!--link Array to sorting--><g class="link" data-entity-1="Array" data-entity-2="sorting" data-source-line="56" data-uid="lnk55" id="link_Array_sorting"><path codeLine="56" d="M338.51,131.8769 C347.58,141.8569 359.28,152.7369 372,159.5669 C478.07,216.4969 518.65,193.5569 637,215.5669 C788.36,243.7169 843.01,198.4069 979,270.5669 C1042.05,304.0169 1027.27,351.7369 1089,387.5669 C1165.03,431.6969 1212.73,384.8069 1279,442.5669 C1304.75,465.0069 1317.5786,499.0537 1322.8886,515.9237" fill="none" id="Array-to-sorting" style="stroke:#005F7F;stroke-width:1;"/><polygon fill="#005F7F" points="1324.69,521.6469,1325.8033,511.8611,1323.1888,516.8776,1318.1724,514.263,1324.69,521.6469" style="stroke:#005F7F;stroke-width:1;"/></g><!--link Heap to sorting--><g class="link" data-entity-1="Heap" data-entity-2="sorting" data-source-line="57" data-uid="lnk57" id="link_Heap_sorting"><path codeLine="57" d="M1909.28,131.6169 C1906.7,198.8169 1895.66,391.6669 1853,434.5669 C1776.28,511.7169 1404.7568,527.0404 1341.8768,529.1004" fill="none" id="Heap-to-sorting" style="stroke:#00BAC6;stroke-width:1;stroke-dasharray:7,7;"/><polygon fill="#00BAC6" points="1335.88,529.2969,1345.0061,533,1340.8773,529.1332,1344.7442,525.0043,1335.88,529.2969" style="stroke:#00BAC6;stroke-width:1;"/><text fill="#000000" font-family="Padauk" font-size="13" lengthAdjust="spacing" textLength="106.9453" x="1902.48" y="258.6338">heapsort branch</text></g><!--link UnionFind to sorting--><g class="link" data-entity-1="UnionFind" data-entity-2="sorting" data-source-line="58" data-uid="lnk59" id="link_UnionFind_sorting"><path codeLine="58" d="M1758.67,131.7469 C1707.65,169.7969 1612.04,241.4369 1610,245.5669 C1606.65,252.3369 1606.31,255.9669 1610,262.5669 C1613.31,268.4869 1619.69,264.6469 1623,270.5669 C1648.37,315.9569 1650.7,343.5569 1623,387.5669 C1554.69,496.0969 1383.7567,522.8277 1341.9267,527.8777" fill="none" id="UnionFind-to-sorting" style="stroke:#CBDB2A;stroke-width:1;stroke-dasharray:7,7;"/><polygon fill="#CBDB2A" points="1335.97,528.5969,1345.3845,531.4893,1340.934,527.9976,1344.4257,523.547,1335.97,528.5969" style="stroke:#CBDB2A;stroke-width:1;"/><text fill="#000000" font-family="Padauk" font-size="13" lengthAdjust="spacing" textLength="156.2476" x="1611" y="258.6338">Edge sorting for Kruskal</text></g><!--link Queue to topo_sort--><g class="link" data-entity-1="Queue" data-entity-2="topo_sort" data-source-line="59" data-uid="lnk61" id="link_Queue_topo_sort"><path codeLine="59" d="M1625.64,110.8169 C1544.85,118.1969 1363.31,148.2969 1309,270.5669 C1287.89,318.0869 1284.79,341.5469 1309,387.5669 C1329.09,425.7569 1368.91,404.3769 1389,442.5669 C1421.48,504.3169 1407.92,532.4069 1389,599.5669 C1382.34,623.1969 1368.6054,642.0945 1358.7654,653.9845" fill="none" id="Queue-to-topo_sort" style="stroke:#00BAC6;stroke-width:1;stroke-dasharray:7,7;"/><polygon fill="#00BAC6" points="1354.94,658.6069,1363.7597,654.2236,1358.1278,654.7549,1357.5965,649.1231,1354.94,658.6069" style="stroke:#00BAC6;stroke-width:1;"/><text fill="#000000" font-family="Padauk" font-size="13" lengthAdjust="spacing" textLength="104.5332" x="1310" y="363.1338">Kahn's sort algo</text></g><!--link Stack to topo_sort--><g class="link" data-entity-1="Stack" data-entity-2="topo_sort" data-source-line="60" data-uid="lnk63" id="link_Stack_topo_sort"><path codeLine="60" d="M602.64,118.8169 C675.92,140.9469 847.64,196.7969 979,270.5669 C1073.32,323.5369 1110.33,329.3969 1173,417.5669 C1222.26,486.8769 1178.52,533.4569 1232,599.5669 C1261.84,636.4469 1312.0647,655.2706 1333.5647,662.1406" fill="none" id="Stack-to-topo_sort" style="stroke:#005F7F;stroke-width:1;stroke-dasharray:7,7;"/><polygon fill="#005F7F" points="1339.28,663.9669,1331.9245,657.4173,1334.5172,662.445,1329.4895,665.0377,1339.28,663.9669" style="stroke:#005F7F;stroke-width:1;"/><text fill="#000000" font-family="Padauk" font-size="13" lengthAdjust="spacing" textLength="105.0918" x="1150.78" y="363.1338">DFS sort variant</text></g><!--link binary_search to math_geometry--><g class="link" data-entity-1="binary_search" data-entity-2="math_geometry" data-source-line="63" data-uid="lnk64" id="link_binary_search_math_geometry"><path codeLine="63" d="M757.59,539.3269 C727.68,591.9869 557.6335,891.3198 527.4535,944.4498" fill="none" id="binary_search-to-math_geometry" style="stroke:#444444;stroke-width:1;stroke-dasharray:7,7;"/><polygon fill="#444444" points="524.49,949.6669,532.4133,943.817,526.9596,945.3193,525.4572,939.8656,524.49,949.6669" style="stroke:#444444;stroke-width:1;"/><text fill="#000000" font-family="Padauk" font-size="13" lengthAdjust="spacing" textLength="118.9932" x="654.5023" y="739.6338">parametric search</text></g><!--link constructive_algos to simulation_design--><g class="link" data-entity-1="constructive_algos" data-entity-2="simulation_design" data-source-line="64" data-uid="lnk65" id="link_constructive_algos_simulation_design"><path codeLine="64" d="M313.94,967.2469 C335.81,988.3969 392.4667,1043.1761 414.5567,1064.5361" fill="none" id="constructive_algos-to-simulation_design" style="stroke:#444444;stroke-width:1;stroke-dasharray:7,7;"/><polygon fill="#444444" points="418.87,1068.7069,415.1805,1059.5752,415.2756,1065.2312,409.6195,1065.3263,418.87,1068.7069" style="stroke:#444444;stroke-width:1;"/></g><!--link divide_and_conquer to binary_search--><g class="link" data-entity-1="divide_and_conquer" data-entity-2="binary_search" data-source-line="65" data-uid="lnk66" id="link_divide_and_conquer_binary_search"><path codeLine="65" d="M780.13,367.3169 C776.97,395.6369 766.7056,487.4139 763.5356,515.8139" fill="none" id="divide_and_conquer-to-binary_search" style="stroke:#444444;stroke-width:1;stroke-dasharray:7,7;"/><polygon fill="#444444" points="762.87,521.7769,767.8437,513.2761,763.4247,516.8077,759.8931,512.3887,762.87,521.7769" style="stroke:#444444;stroke-width:1;"/><text fill="#000000" font-family="Padauk" font-size="13" lengthAdjust="spacing" textLength="152.5532" x="779.4423" y="430.6338">subdivide search space</text></g><!--link divide_and_conquer to sorting--><g class="link" data-entity-1="divide_and_conquer" data-entity-2="sorting" data-source-line="66" data-uid="lnk67" id="link_divide_and_conquer_sorting"><path codeLine="66" d="M789.84,362.8069 C805.2,368.3469 837.84,379.8169 866,387.5669 C958.63,413.0769 981.73,422.1669 1077,434.5669 C1099.27,437.4669 1259.89,430.7669 1279,442.5669 C1308.5,460.7869 1319.9127,498.1824 1324.0327,515.9224" fill="none" id="divide_and_conquer-to-sorting" style="stroke:#444444;stroke-width:1;stroke-dasharray:7,7;"/><polygon fill="#444444" points="1325.39,521.7669,1327.2503,512.0953,1324.2589,516.8965,1319.4577,513.9051,1325.39,521.7669" style="stroke:#444444;stroke-width:1;"/><text fill="#000000" font-family="Padauk" font-size="13" lengthAdjust="spacing" textLength="131.752" x="1078" y="430.6338">mergesort/quicksort</text></g><!--link divide_and_conquer to dynamic_programming--><g class="link" data-entity-1="divide_and_conquer" data-entity-2="dynamic_programming" data-source-line="67" data-uid="lnk68" id="link_divide_and_conquer_dynamic_programming"><path codeLine="67" d="M772.27,361.9269 C753.81,366.8969 709.45,378.6869 672,387.5669 C610.93,402.0469 573.39,368.6969 534,417.5669 C508.37,449.3669 536.4233,497.1109 549.9733,516.8409" fill="none" id="divide_and_conquer-to-dynamic_programming" style="stroke:#444444;stroke-width:1;stroke-dasharray:7,7;"/><polygon fill="#444444" points="553.37,521.7869,551.5722,512.1035,550.5394,517.6653,544.9776,516.6325,553.37,521.7869" style="stroke:#444444;stroke-width:1;"/><text fill="#000000" font-family="Padauk" font-size="13" lengthAdjust="spacing" textLength="109.2559" x="535" y="430.6338">overlap + memo</text></g><!--link jump_search to binary_search--><g class="link" data-entity-1="jump_search" data-entity-2="binary_search" data-source-line="68" data-uid="lnk69" id="link_jump_search_binary_search"><path codeLine="68" d="M599.91,367.3169 C614.83,381.9669 648.16,414.7369 676,442.5669 C705.14,471.6969 735.2969,502.355 750.2369,517.575" fill="none" id="jump_search-to-binary_search" style="stroke:#444444;stroke-width:1;stroke-dasharray:7,7;"/><polygon fill="#444444" points="754.44,521.8569,750.99,512.6321,750.9374,518.2887,745.2808,518.2362,754.44,521.8569" style="stroke:#444444;stroke-width:1;"/><text fill="#000000" font-family="Padauk" font-size="13" lengthAdjust="spacing" textLength="94.3008" x="667.93" y="430.6338">skip then seek</text></g><!--link pathing to graphing--><g class="link" data-entity-1="pathing" data-entity-2="graphing" data-source-line="69" data-uid="lnk70" id="link_pathing_graphing"><path codeLine="69" d="M1472.75,676.5369 C1465,682.8269 1453.42,691.3769 1442,696.5669 C1391.57,719.5069 1355.14,682.9269 1321,726.5669 C1305.42,746.4769 1313.0333,773.6841 1318.6733,788.4041" fill="none" id="pathing-to-graphing" style="stroke:#444444;stroke-width:1;stroke-dasharray:7,7;"/><polygon fill="#444444" points="1320.82,794.0069,1321.3351,784.1715,1319.0311,789.3379,1313.8647,787.0338,1320.82,794.0069" style="stroke:#444444;stroke-width:1;"/><text fill="#000000" font-family="Padauk" font-size="13" lengthAdjust="spacing" textLength="117.1587" x="1322" y="739.6338">path finding algos</text></g><!--link graphing to math_geometry--><g class="link" data-entity-1="graphing" data-entity-2="math_geometry" data-source-line="70" data-uid="lnk71" id="link_graphing_math_geometry"><path codeLine="70" d="M1315.24,805.2469 C1233.9,820.8269 617.2029,938.9481 534.8729,954.7181" fill="none" id="graphing-to-math_geometry" style="stroke:#444444;stroke-width:1;stroke-dasharray:7,7;"/><polygon fill="#444444" points="528.98,955.8469,538.5718,958.0823,533.8907,954.9062,537.0668,950.2252,528.98,955.8469" style="stroke:#444444;stroke-width:1;"/><text fill="#000000" font-family="Padauk" font-size="13" lengthAdjust="spacing" textLength="246.1748" x="1018.66" y="874.6338">geometry graphs (Voronoi, Delaunay)</text></g><!--link graphing to dijkstra--><g class="link" data-entity-1="graphing" data-entity-2="dijkstra" data-source-line="71" data-uid="lnk72" id="link_graphing_dijkstra"><path codeLine="71" d="M1328.48,811.4169 C1343.48,837.6469 1388.7832,916.9474 1404.2232,943.9674" fill="none" id="graphing-to-dijkstra" style="stroke:#444444;stroke-width:1;stroke-dasharray:7,7;"/><polygon fill="#444444" points="1407.2,949.1769,1406.2077,939.3781,1404.7193,944.8357,1399.2618,943.3472,1407.2,949.1769" style="stroke:#444444;stroke-width:1;"/></g><!--link pathing to dijkstra--><g class="link" data-entity-1="pathing" data-entity-2="dijkstra" data-source-line="72" data-uid="lnk73" id="link_pathing_dijkstra"><path codeLine="72" d="M1475.0468,682.2033 C1463.3368,705.1933 1433.9,763.3869 1431,773.5669 C1412.26,839.3569 1411.4837,917.0472 1411.7737,943.3072" fill="none" id="pathing-dijkstra" style="stroke:#444444;stroke-width:1;stroke-dasharray:7,7;"/><polygon fill="#444444" points="1477.77,676.8569,1470.1209,683.061,1475.5007,681.3122,1477.2495,686.692,1477.77,676.8569" style="stroke:#444444;stroke-width:1;"/><polygon fill="#444444" points="1411.84,949.3069,1415.7404,940.2633,1411.7848,944.3072,1407.7409,940.3516,1411.84,949.3069" style="stroke:#444444;stroke-width:1;"/></g><!--link priority to dijkstra--><g class="link" data-entity-1="priority" data-entity-2="dijkstra" data-source-line="73" data-uid="lnk74" id="link_priority_dijkstra"><path codeLine="73" d="M1487.92,811.4169 C1474.29,837.6469 1433.1665,916.8327 1419.1265,943.8527" fill="none" id="priority-to-dijkstra" style="stroke:#444444;stroke-width:1;stroke-dasharray:7,7;"/><polygon fill="#444444" points="1416.36,949.1769,1424.0592,943.035,1418.6654,944.7401,1416.9603,939.3463,1416.36,949.1769" style="stroke:#444444;stroke-width:1;"/></g><!--link sorting to topo_sort--><g class="link" data-entity-1="sorting" data-entity-2="topo_sort" data-source-line="74" data-uid="lnk75" id="link_sorting_topo_sort"><path codeLine="74" d="M1328.19,539.2069 C1331.87,562.8569 1342.1182,628.7481 1345.8482,652.7381" fill="none" id="sorting-to-topo_sort" style="stroke:#444444;stroke-width:1;stroke-dasharray:7,7;"/><polygon fill="#444444" points="1346.77,658.6669,1349.3398,649.1592,1346.0018,653.7262,1341.4348,650.3883,1346.77,658.6669" style="stroke:#444444;stroke-width:1;"/></g><!--link topo_sort to graphing--><g class="link" data-entity-1="topo_sort" data-entity-2="graphing" data-source-line="75" data-uid="lnk76" id="link_topo_sort_graphing"><path codeLine="75" d="M1339.36,673.6369 C1325.43,682.3869 1298.52,701.7569 1288,726.5669 C1277.4,751.5669 1297.5063,776.0855 1311.2063,789.5855" fill="none" id="topo_sort-to-graphing" style="stroke:#444444;stroke-width:1;stroke-dasharray:7,7;"/><polygon fill="#444444" points="1315.48,793.7969,1311.877,784.6307,1311.9186,790.2874,1306.2619,790.329,1315.48,793.7969" style="stroke:#444444;stroke-width:1;"/></g><!--link CORE to TGA--><!--SRC=[dLVBRkCs55rNNt6hHPEW8sjl10OSEvDf9udJiQURO63G52rnB94QaihKA0ha5mfqKw3zkNn9Bodh5SjnEaOszZdtyZuFcU-ve6aHiKAba1YJws4OAl9r47EJ5Aj2CqMbC4oO0PLPc2lvm6H0ISWZ_8sRRQZOMeS98v4ECyB5ZZBWHPPw7Z9I1k0l56FXbI9v0XT4imZ6QImL7f5ft_FMYcGC_6ik654m9OR0OfipxSFl7k27faHh62j5jgtlDoG7E3zFY4u2GrOf6urQwDmGkl7-g9tVIX4SES35vxwJbJQAKBC3tZ6IjtWV1PVYBHTHwxTV2bQmrd4JgHZS4KKY7cEEG3HCPXyktNcdP-2VNt11r1Rc611DHZuq7wIk7BZK3gmiflm1Ymu_m4IABmLJZH5QH0vS4X4jQGdNPbj1CaxXJiaOOykuY7UMrgm4bta3LdO_5rdU5rvf-1dHAhucwvVQRAqML-Ec0bF-UMFB_DnxbL29LcpdjOdz6JlUeHNxJd5xxhQVdU_GcatC0TUENQ8LUIwLEKpM9LgH5pANgOmv9IbOmvOLaWsYIslHAk4yPvIJb3-lNbss6mndY3EGsI4nY5FzV7ne6-pQNJ6PCOE3TueUyfJzTZPodSaGNSOxi4wLPqLA34uxX31bciUY6HrTWyl8GPKLZYSshg26Fx1kbLne3RWac9-skOSdyFJNu-l_q5LT6WX64E56Fpt-QUnEm_zqTH9wdNfLmPu7ztVZnRlbP7PpCxjzCvbTppuiRyO_tNugyc0dHllPlD9mVrsjuU2-GnuCIXM38IX62wLj8xJJjNtxxnhpyMHoURie7THQ1UZ5dyu_1gY31jSKEohNwnGL4QmvHp7qUjJ0fVCi1HHUhrguplpNrF7rmZ5BHJt2hQ8DWbQq62mc9XWrk0VOdrmAl6ymnfRmT9mTBdbLyzqUmuiX1rNG_Un1Xpt00ZlXTyM5YxTphAfESA6PDautVA_IccEdkZkcdzpJrqvZtU7lLQ4t97rw_1jlnld2z_RsitDmfvaxqTghpF6QzblkLybcvmB5Xq9kZM2bYC2xuuY35pA-Z69MoIsifQegu7krhBwgTKDuJn9nKagtqvKZ3khjRDPpYfrt_0UYE17cMnGDnvsot1HuK-1MRl0HmCnNnWGOHXF1SKc_HTewBuagbS5Wr1Ny2h23b1Dx4HcKGYYj_7wPiqxsxu1UORFKta3iURfObKQxuq3dX3B_iAVUaHb2nbJCB1P-AJZTk6lre8zUfHi2lbnLYfFw8thBPB_Ml93Cq-C_UiDpC0csJJEsUNhyjrz8h9DUMHmwsO0rZhc5oXkob_bI4-kVdAM6qr-baaBoDtYBfwGGP7lc7_PQFxqEQ62RqITO7H-ztRACvl7Jksxj2dcUUpi7zmcFyD-EJtZZuqloFm00]--></g></svg>